G75*
%MOIN*%
%OFA0B0*%
%FSLAX25Y25*%
%IPPOS*%
%LPD*%
%AMOC8*
5,1,8,0,0,1.08239X$1,22.5*
%
%ADD10R,0.07400X0.07400*%
%ADD11C,0.07400*%
%ADD12OC8,0.07400*%
%ADD13C,0.17000*%
%ADD14R,0.08000X0.08000*%
%ADD15C,0.08000*%
%ADD16C,0.06000*%
%ADD17C,0.05200*%
%ADD18C,0.01000*%
%ADD19C,0.04356*%
D10*
X0158833Y0121000D03*
X0287833Y0091000D03*
D11*
X0288833Y0101000D03*
X0287833Y0111000D03*
X0288833Y0121000D03*
X0287833Y0131000D03*
X0288833Y0141000D03*
X0287833Y0151000D03*
X0288833Y0161000D03*
X0157833Y0111000D03*
X0158833Y0101000D03*
X0157833Y0091000D03*
X0158833Y0081000D03*
X0157833Y0071000D03*
X0158833Y0061000D03*
X0157833Y0051000D03*
X0197833Y0017000D03*
X0207833Y0017000D03*
X0217833Y0017000D03*
X0227833Y0017000D03*
X0237833Y0017000D03*
X0247833Y0017000D03*
X0248333Y0041000D03*
X0253333Y0048500D03*
X0258333Y0041000D03*
D12*
X0253333Y0066000D03*
X0243333Y0066000D03*
X0243333Y0076000D03*
X0253333Y0076000D03*
X0263333Y0076000D03*
X0263333Y0066000D03*
D13*
X0163333Y0159063D03*
X0144829Y0170874D03*
X0163333Y0182685D03*
D14*
X0153333Y0021000D03*
D15*
X0173018Y0021000D03*
D16*
X0131333Y0051000D02*
X0125333Y0051000D01*
X0125333Y0061000D02*
X0131333Y0061000D01*
X0131333Y0071000D02*
X0125333Y0071000D01*
D17*
X0195733Y0066000D02*
X0200933Y0066000D01*
X0200933Y0056000D02*
X0195733Y0056000D01*
X0195733Y0046000D02*
X0200933Y0046000D01*
X0225733Y0046000D02*
X0230933Y0046000D01*
X0230933Y0056000D02*
X0225733Y0056000D01*
X0225733Y0066000D02*
X0230933Y0066000D01*
X0230933Y0076000D02*
X0225733Y0076000D01*
X0225733Y0086000D02*
X0230933Y0086000D01*
X0230933Y0096000D02*
X0225733Y0096000D01*
X0225733Y0106000D02*
X0230933Y0106000D01*
X0230933Y0116000D02*
X0225733Y0116000D01*
X0225733Y0126000D02*
X0230933Y0126000D01*
X0230933Y0136000D02*
X0225733Y0136000D01*
X0225733Y0146000D02*
X0230933Y0146000D01*
X0230933Y0156000D02*
X0225733Y0156000D01*
X0225733Y0166000D02*
X0230933Y0166000D01*
X0230933Y0176000D02*
X0225733Y0176000D01*
X0200933Y0176000D02*
X0195733Y0176000D01*
X0195733Y0166000D02*
X0200933Y0166000D01*
X0200933Y0156000D02*
X0195733Y0156000D01*
X0195733Y0146000D02*
X0200933Y0146000D01*
X0200933Y0136000D02*
X0195733Y0136000D01*
X0195733Y0126000D02*
X0200933Y0126000D01*
X0200933Y0116000D02*
X0195733Y0116000D01*
X0195733Y0106000D02*
X0200933Y0106000D01*
X0200933Y0096000D02*
X0195733Y0096000D01*
X0195733Y0086000D02*
X0200933Y0086000D01*
X0200933Y0076000D02*
X0195733Y0076000D01*
D18*
X0118333Y0056000D02*
X0118333Y0051000D01*
X0123333Y0046000D01*
X0143333Y0046000D01*
X0168333Y0021000D01*
X0173018Y0021000D01*
X0198333Y0046000D02*
X0198333Y0046500D01*
X0189333Y0051000D02*
X0189333Y0080000D01*
X0190333Y0081000D01*
X0203333Y0081000D01*
X0218333Y0096000D01*
X0218333Y0106000D01*
X0223333Y0111000D01*
X0238333Y0111000D01*
X0258333Y0131000D01*
X0258333Y0149500D01*
X0268333Y0149500D02*
X0268333Y0134000D01*
X0267833Y0134000D01*
X0244833Y0111000D01*
X0244833Y0100500D01*
X0235333Y0091000D01*
X0219333Y0091000D01*
X0228333Y0086000D02*
X0258333Y0086000D01*
X0258333Y0071000D01*
X0253333Y0066000D01*
X0248333Y0071000D02*
X0243333Y0076000D01*
X0248333Y0071000D02*
X0248333Y0056000D01*
X0243333Y0051000D01*
X0243333Y0046000D01*
X0248333Y0041000D01*
X0253833Y0048000D02*
X0253333Y0048500D01*
X0253833Y0048000D02*
X0260833Y0048000D01*
X0288333Y0075500D01*
X0288333Y0076000D01*
X0298333Y0086000D01*
X0298333Y0106000D01*
X0293333Y0111000D01*
X0287833Y0111000D01*
X0278333Y0081000D02*
X0263333Y0066000D01*
X0253333Y0076000D02*
X0247333Y0082500D01*
X0239333Y0082500D01*
X0235833Y0079000D01*
X0235833Y0073500D01*
X0228333Y0066000D01*
X0198333Y0096000D02*
X0188333Y0086000D01*
X0130833Y0086000D01*
X0123333Y0093500D01*
X0123333Y0141000D01*
X0144829Y0128500D02*
X0161333Y0128500D01*
X0183333Y0106500D01*
X0183333Y0106000D01*
X0198333Y0106000D01*
X0213333Y0106000D01*
X0223333Y0116000D01*
X0228333Y0116000D01*
X0188333Y0111000D02*
X0188333Y0176000D01*
X0183333Y0183500D02*
X0211333Y0183500D01*
X0217833Y0190000D01*
X0212833Y0176000D02*
X0198333Y0176000D01*
X0212833Y0176000D02*
X0218333Y0170500D01*
X0273833Y0170500D01*
X0278333Y0166000D01*
X0278333Y0081000D01*
X0173333Y0096000D02*
X0143333Y0096000D01*
X0140333Y0076000D02*
X0152333Y0076000D01*
X0157333Y0071000D01*
X0157833Y0071000D01*
X0128333Y0061000D02*
X0123333Y0061000D01*
X0118333Y0056000D01*
X0144829Y0128500D02*
X0144829Y0170874D01*
X0144829Y0170996D01*
X0169833Y0170000D02*
X0183333Y0183500D01*
D19*
X0188333Y0176000D03*
X0169833Y0170000D03*
X0217833Y0190000D03*
X0258333Y0149500D03*
X0268333Y0149500D03*
X0188333Y0111000D03*
X0173333Y0096000D03*
X0143333Y0096000D03*
X0140333Y0076000D03*
X0189333Y0051000D03*
X0219333Y0091000D03*
X0144829Y0128500D03*
X0123333Y0141000D03*
M02*
