G75*
%MOIN*%
%OFA0B0*%
%FSLAX25Y25*%
%IPPOS*%
%LPD*%
%AMOC8*
5,1,8,0,0,1.08239X$1,22.5*
%
%ADD10C,0.00000*%
%ADD11C,0.01100*%
%ADD12R,0.06299X0.07087*%
%ADD13R,0.07087X0.06299*%
%ADD14R,0.07400X0.07400*%
%ADD15C,0.07400*%
%ADD16OC8,0.07400*%
%ADD17C,0.17000*%
%ADD18R,0.08000X0.08000*%
%ADD19C,0.08000*%
%ADD20R,0.05512X0.04724*%
%ADD21C,0.06000*%
%ADD22R,0.06000X0.03000*%
%ADD23R,0.04800X0.08800*%
%ADD24R,0.14173X0.08661*%
%ADD25C,0.05200*%
%ADD26R,0.09449X0.06693*%
%ADD27C,0.04356*%
%ADD28C,0.01000*%
D10*
X0108333Y0001000D02*
X0108333Y0200961D01*
X0307034Y0200961D01*
X0307034Y0001000D01*
X0108333Y0001000D01*
X0116833Y0016000D02*
X0116835Y0016161D01*
X0116841Y0016321D01*
X0116851Y0016482D01*
X0116865Y0016642D01*
X0116883Y0016802D01*
X0116904Y0016961D01*
X0116930Y0017120D01*
X0116960Y0017278D01*
X0116993Y0017435D01*
X0117031Y0017592D01*
X0117072Y0017747D01*
X0117117Y0017901D01*
X0117166Y0018054D01*
X0117219Y0018206D01*
X0117275Y0018357D01*
X0117336Y0018506D01*
X0117399Y0018654D01*
X0117467Y0018800D01*
X0117538Y0018944D01*
X0117612Y0019086D01*
X0117690Y0019227D01*
X0117772Y0019365D01*
X0117857Y0019502D01*
X0117945Y0019636D01*
X0118037Y0019768D01*
X0118132Y0019898D01*
X0118230Y0020026D01*
X0118331Y0020151D01*
X0118435Y0020273D01*
X0118542Y0020393D01*
X0118652Y0020510D01*
X0118765Y0020625D01*
X0118881Y0020736D01*
X0119000Y0020845D01*
X0119121Y0020950D01*
X0119245Y0021053D01*
X0119371Y0021153D01*
X0119499Y0021249D01*
X0119630Y0021342D01*
X0119764Y0021432D01*
X0119899Y0021519D01*
X0120037Y0021602D01*
X0120176Y0021682D01*
X0120318Y0021758D01*
X0120461Y0021831D01*
X0120606Y0021900D01*
X0120753Y0021966D01*
X0120901Y0022028D01*
X0121051Y0022086D01*
X0121202Y0022141D01*
X0121355Y0022192D01*
X0121509Y0022239D01*
X0121664Y0022282D01*
X0121820Y0022321D01*
X0121976Y0022357D01*
X0122134Y0022388D01*
X0122292Y0022416D01*
X0122451Y0022440D01*
X0122611Y0022460D01*
X0122771Y0022476D01*
X0122931Y0022488D01*
X0123092Y0022496D01*
X0123253Y0022500D01*
X0123413Y0022500D01*
X0123574Y0022496D01*
X0123735Y0022488D01*
X0123895Y0022476D01*
X0124055Y0022460D01*
X0124215Y0022440D01*
X0124374Y0022416D01*
X0124532Y0022388D01*
X0124690Y0022357D01*
X0124846Y0022321D01*
X0125002Y0022282D01*
X0125157Y0022239D01*
X0125311Y0022192D01*
X0125464Y0022141D01*
X0125615Y0022086D01*
X0125765Y0022028D01*
X0125913Y0021966D01*
X0126060Y0021900D01*
X0126205Y0021831D01*
X0126348Y0021758D01*
X0126490Y0021682D01*
X0126629Y0021602D01*
X0126767Y0021519D01*
X0126902Y0021432D01*
X0127036Y0021342D01*
X0127167Y0021249D01*
X0127295Y0021153D01*
X0127421Y0021053D01*
X0127545Y0020950D01*
X0127666Y0020845D01*
X0127785Y0020736D01*
X0127901Y0020625D01*
X0128014Y0020510D01*
X0128124Y0020393D01*
X0128231Y0020273D01*
X0128335Y0020151D01*
X0128436Y0020026D01*
X0128534Y0019898D01*
X0128629Y0019768D01*
X0128721Y0019636D01*
X0128809Y0019502D01*
X0128894Y0019365D01*
X0128976Y0019227D01*
X0129054Y0019086D01*
X0129128Y0018944D01*
X0129199Y0018800D01*
X0129267Y0018654D01*
X0129330Y0018506D01*
X0129391Y0018357D01*
X0129447Y0018206D01*
X0129500Y0018054D01*
X0129549Y0017901D01*
X0129594Y0017747D01*
X0129635Y0017592D01*
X0129673Y0017435D01*
X0129706Y0017278D01*
X0129736Y0017120D01*
X0129762Y0016961D01*
X0129783Y0016802D01*
X0129801Y0016642D01*
X0129815Y0016482D01*
X0129825Y0016321D01*
X0129831Y0016161D01*
X0129833Y0016000D01*
X0129831Y0015839D01*
X0129825Y0015679D01*
X0129815Y0015518D01*
X0129801Y0015358D01*
X0129783Y0015198D01*
X0129762Y0015039D01*
X0129736Y0014880D01*
X0129706Y0014722D01*
X0129673Y0014565D01*
X0129635Y0014408D01*
X0129594Y0014253D01*
X0129549Y0014099D01*
X0129500Y0013946D01*
X0129447Y0013794D01*
X0129391Y0013643D01*
X0129330Y0013494D01*
X0129267Y0013346D01*
X0129199Y0013200D01*
X0129128Y0013056D01*
X0129054Y0012914D01*
X0128976Y0012773D01*
X0128894Y0012635D01*
X0128809Y0012498D01*
X0128721Y0012364D01*
X0128629Y0012232D01*
X0128534Y0012102D01*
X0128436Y0011974D01*
X0128335Y0011849D01*
X0128231Y0011727D01*
X0128124Y0011607D01*
X0128014Y0011490D01*
X0127901Y0011375D01*
X0127785Y0011264D01*
X0127666Y0011155D01*
X0127545Y0011050D01*
X0127421Y0010947D01*
X0127295Y0010847D01*
X0127167Y0010751D01*
X0127036Y0010658D01*
X0126902Y0010568D01*
X0126767Y0010481D01*
X0126629Y0010398D01*
X0126490Y0010318D01*
X0126348Y0010242D01*
X0126205Y0010169D01*
X0126060Y0010100D01*
X0125913Y0010034D01*
X0125765Y0009972D01*
X0125615Y0009914D01*
X0125464Y0009859D01*
X0125311Y0009808D01*
X0125157Y0009761D01*
X0125002Y0009718D01*
X0124846Y0009679D01*
X0124690Y0009643D01*
X0124532Y0009612D01*
X0124374Y0009584D01*
X0124215Y0009560D01*
X0124055Y0009540D01*
X0123895Y0009524D01*
X0123735Y0009512D01*
X0123574Y0009504D01*
X0123413Y0009500D01*
X0123253Y0009500D01*
X0123092Y0009504D01*
X0122931Y0009512D01*
X0122771Y0009524D01*
X0122611Y0009540D01*
X0122451Y0009560D01*
X0122292Y0009584D01*
X0122134Y0009612D01*
X0121976Y0009643D01*
X0121820Y0009679D01*
X0121664Y0009718D01*
X0121509Y0009761D01*
X0121355Y0009808D01*
X0121202Y0009859D01*
X0121051Y0009914D01*
X0120901Y0009972D01*
X0120753Y0010034D01*
X0120606Y0010100D01*
X0120461Y0010169D01*
X0120318Y0010242D01*
X0120176Y0010318D01*
X0120037Y0010398D01*
X0119899Y0010481D01*
X0119764Y0010568D01*
X0119630Y0010658D01*
X0119499Y0010751D01*
X0119371Y0010847D01*
X0119245Y0010947D01*
X0119121Y0011050D01*
X0119000Y0011155D01*
X0118881Y0011264D01*
X0118765Y0011375D01*
X0118652Y0011490D01*
X0118542Y0011607D01*
X0118435Y0011727D01*
X0118331Y0011849D01*
X0118230Y0011974D01*
X0118132Y0012102D01*
X0118037Y0012232D01*
X0117945Y0012364D01*
X0117857Y0012498D01*
X0117772Y0012635D01*
X0117690Y0012773D01*
X0117612Y0012914D01*
X0117538Y0013056D01*
X0117467Y0013200D01*
X0117399Y0013346D01*
X0117336Y0013494D01*
X0117275Y0013643D01*
X0117219Y0013794D01*
X0117166Y0013946D01*
X0117117Y0014099D01*
X0117072Y0014253D01*
X0117031Y0014408D01*
X0116993Y0014565D01*
X0116960Y0014722D01*
X0116930Y0014880D01*
X0116904Y0015039D01*
X0116883Y0015198D01*
X0116865Y0015358D01*
X0116851Y0015518D01*
X0116841Y0015679D01*
X0116835Y0015839D01*
X0116833Y0016000D01*
X0286833Y0016000D02*
X0286835Y0016161D01*
X0286841Y0016321D01*
X0286851Y0016482D01*
X0286865Y0016642D01*
X0286883Y0016802D01*
X0286904Y0016961D01*
X0286930Y0017120D01*
X0286960Y0017278D01*
X0286993Y0017435D01*
X0287031Y0017592D01*
X0287072Y0017747D01*
X0287117Y0017901D01*
X0287166Y0018054D01*
X0287219Y0018206D01*
X0287275Y0018357D01*
X0287336Y0018506D01*
X0287399Y0018654D01*
X0287467Y0018800D01*
X0287538Y0018944D01*
X0287612Y0019086D01*
X0287690Y0019227D01*
X0287772Y0019365D01*
X0287857Y0019502D01*
X0287945Y0019636D01*
X0288037Y0019768D01*
X0288132Y0019898D01*
X0288230Y0020026D01*
X0288331Y0020151D01*
X0288435Y0020273D01*
X0288542Y0020393D01*
X0288652Y0020510D01*
X0288765Y0020625D01*
X0288881Y0020736D01*
X0289000Y0020845D01*
X0289121Y0020950D01*
X0289245Y0021053D01*
X0289371Y0021153D01*
X0289499Y0021249D01*
X0289630Y0021342D01*
X0289764Y0021432D01*
X0289899Y0021519D01*
X0290037Y0021602D01*
X0290176Y0021682D01*
X0290318Y0021758D01*
X0290461Y0021831D01*
X0290606Y0021900D01*
X0290753Y0021966D01*
X0290901Y0022028D01*
X0291051Y0022086D01*
X0291202Y0022141D01*
X0291355Y0022192D01*
X0291509Y0022239D01*
X0291664Y0022282D01*
X0291820Y0022321D01*
X0291976Y0022357D01*
X0292134Y0022388D01*
X0292292Y0022416D01*
X0292451Y0022440D01*
X0292611Y0022460D01*
X0292771Y0022476D01*
X0292931Y0022488D01*
X0293092Y0022496D01*
X0293253Y0022500D01*
X0293413Y0022500D01*
X0293574Y0022496D01*
X0293735Y0022488D01*
X0293895Y0022476D01*
X0294055Y0022460D01*
X0294215Y0022440D01*
X0294374Y0022416D01*
X0294532Y0022388D01*
X0294690Y0022357D01*
X0294846Y0022321D01*
X0295002Y0022282D01*
X0295157Y0022239D01*
X0295311Y0022192D01*
X0295464Y0022141D01*
X0295615Y0022086D01*
X0295765Y0022028D01*
X0295913Y0021966D01*
X0296060Y0021900D01*
X0296205Y0021831D01*
X0296348Y0021758D01*
X0296490Y0021682D01*
X0296629Y0021602D01*
X0296767Y0021519D01*
X0296902Y0021432D01*
X0297036Y0021342D01*
X0297167Y0021249D01*
X0297295Y0021153D01*
X0297421Y0021053D01*
X0297545Y0020950D01*
X0297666Y0020845D01*
X0297785Y0020736D01*
X0297901Y0020625D01*
X0298014Y0020510D01*
X0298124Y0020393D01*
X0298231Y0020273D01*
X0298335Y0020151D01*
X0298436Y0020026D01*
X0298534Y0019898D01*
X0298629Y0019768D01*
X0298721Y0019636D01*
X0298809Y0019502D01*
X0298894Y0019365D01*
X0298976Y0019227D01*
X0299054Y0019086D01*
X0299128Y0018944D01*
X0299199Y0018800D01*
X0299267Y0018654D01*
X0299330Y0018506D01*
X0299391Y0018357D01*
X0299447Y0018206D01*
X0299500Y0018054D01*
X0299549Y0017901D01*
X0299594Y0017747D01*
X0299635Y0017592D01*
X0299673Y0017435D01*
X0299706Y0017278D01*
X0299736Y0017120D01*
X0299762Y0016961D01*
X0299783Y0016802D01*
X0299801Y0016642D01*
X0299815Y0016482D01*
X0299825Y0016321D01*
X0299831Y0016161D01*
X0299833Y0016000D01*
X0299831Y0015839D01*
X0299825Y0015679D01*
X0299815Y0015518D01*
X0299801Y0015358D01*
X0299783Y0015198D01*
X0299762Y0015039D01*
X0299736Y0014880D01*
X0299706Y0014722D01*
X0299673Y0014565D01*
X0299635Y0014408D01*
X0299594Y0014253D01*
X0299549Y0014099D01*
X0299500Y0013946D01*
X0299447Y0013794D01*
X0299391Y0013643D01*
X0299330Y0013494D01*
X0299267Y0013346D01*
X0299199Y0013200D01*
X0299128Y0013056D01*
X0299054Y0012914D01*
X0298976Y0012773D01*
X0298894Y0012635D01*
X0298809Y0012498D01*
X0298721Y0012364D01*
X0298629Y0012232D01*
X0298534Y0012102D01*
X0298436Y0011974D01*
X0298335Y0011849D01*
X0298231Y0011727D01*
X0298124Y0011607D01*
X0298014Y0011490D01*
X0297901Y0011375D01*
X0297785Y0011264D01*
X0297666Y0011155D01*
X0297545Y0011050D01*
X0297421Y0010947D01*
X0297295Y0010847D01*
X0297167Y0010751D01*
X0297036Y0010658D01*
X0296902Y0010568D01*
X0296767Y0010481D01*
X0296629Y0010398D01*
X0296490Y0010318D01*
X0296348Y0010242D01*
X0296205Y0010169D01*
X0296060Y0010100D01*
X0295913Y0010034D01*
X0295765Y0009972D01*
X0295615Y0009914D01*
X0295464Y0009859D01*
X0295311Y0009808D01*
X0295157Y0009761D01*
X0295002Y0009718D01*
X0294846Y0009679D01*
X0294690Y0009643D01*
X0294532Y0009612D01*
X0294374Y0009584D01*
X0294215Y0009560D01*
X0294055Y0009540D01*
X0293895Y0009524D01*
X0293735Y0009512D01*
X0293574Y0009504D01*
X0293413Y0009500D01*
X0293253Y0009500D01*
X0293092Y0009504D01*
X0292931Y0009512D01*
X0292771Y0009524D01*
X0292611Y0009540D01*
X0292451Y0009560D01*
X0292292Y0009584D01*
X0292134Y0009612D01*
X0291976Y0009643D01*
X0291820Y0009679D01*
X0291664Y0009718D01*
X0291509Y0009761D01*
X0291355Y0009808D01*
X0291202Y0009859D01*
X0291051Y0009914D01*
X0290901Y0009972D01*
X0290753Y0010034D01*
X0290606Y0010100D01*
X0290461Y0010169D01*
X0290318Y0010242D01*
X0290176Y0010318D01*
X0290037Y0010398D01*
X0289899Y0010481D01*
X0289764Y0010568D01*
X0289630Y0010658D01*
X0289499Y0010751D01*
X0289371Y0010847D01*
X0289245Y0010947D01*
X0289121Y0011050D01*
X0289000Y0011155D01*
X0288881Y0011264D01*
X0288765Y0011375D01*
X0288652Y0011490D01*
X0288542Y0011607D01*
X0288435Y0011727D01*
X0288331Y0011849D01*
X0288230Y0011974D01*
X0288132Y0012102D01*
X0288037Y0012232D01*
X0287945Y0012364D01*
X0287857Y0012498D01*
X0287772Y0012635D01*
X0287690Y0012773D01*
X0287612Y0012914D01*
X0287538Y0013056D01*
X0287467Y0013200D01*
X0287399Y0013346D01*
X0287336Y0013494D01*
X0287275Y0013643D01*
X0287219Y0013794D01*
X0287166Y0013946D01*
X0287117Y0014099D01*
X0287072Y0014253D01*
X0287031Y0014408D01*
X0286993Y0014565D01*
X0286960Y0014722D01*
X0286930Y0014880D01*
X0286904Y0015039D01*
X0286883Y0015198D01*
X0286865Y0015358D01*
X0286851Y0015518D01*
X0286841Y0015679D01*
X0286835Y0015839D01*
X0286833Y0016000D01*
X0286833Y0186000D02*
X0286835Y0186161D01*
X0286841Y0186321D01*
X0286851Y0186482D01*
X0286865Y0186642D01*
X0286883Y0186802D01*
X0286904Y0186961D01*
X0286930Y0187120D01*
X0286960Y0187278D01*
X0286993Y0187435D01*
X0287031Y0187592D01*
X0287072Y0187747D01*
X0287117Y0187901D01*
X0287166Y0188054D01*
X0287219Y0188206D01*
X0287275Y0188357D01*
X0287336Y0188506D01*
X0287399Y0188654D01*
X0287467Y0188800D01*
X0287538Y0188944D01*
X0287612Y0189086D01*
X0287690Y0189227D01*
X0287772Y0189365D01*
X0287857Y0189502D01*
X0287945Y0189636D01*
X0288037Y0189768D01*
X0288132Y0189898D01*
X0288230Y0190026D01*
X0288331Y0190151D01*
X0288435Y0190273D01*
X0288542Y0190393D01*
X0288652Y0190510D01*
X0288765Y0190625D01*
X0288881Y0190736D01*
X0289000Y0190845D01*
X0289121Y0190950D01*
X0289245Y0191053D01*
X0289371Y0191153D01*
X0289499Y0191249D01*
X0289630Y0191342D01*
X0289764Y0191432D01*
X0289899Y0191519D01*
X0290037Y0191602D01*
X0290176Y0191682D01*
X0290318Y0191758D01*
X0290461Y0191831D01*
X0290606Y0191900D01*
X0290753Y0191966D01*
X0290901Y0192028D01*
X0291051Y0192086D01*
X0291202Y0192141D01*
X0291355Y0192192D01*
X0291509Y0192239D01*
X0291664Y0192282D01*
X0291820Y0192321D01*
X0291976Y0192357D01*
X0292134Y0192388D01*
X0292292Y0192416D01*
X0292451Y0192440D01*
X0292611Y0192460D01*
X0292771Y0192476D01*
X0292931Y0192488D01*
X0293092Y0192496D01*
X0293253Y0192500D01*
X0293413Y0192500D01*
X0293574Y0192496D01*
X0293735Y0192488D01*
X0293895Y0192476D01*
X0294055Y0192460D01*
X0294215Y0192440D01*
X0294374Y0192416D01*
X0294532Y0192388D01*
X0294690Y0192357D01*
X0294846Y0192321D01*
X0295002Y0192282D01*
X0295157Y0192239D01*
X0295311Y0192192D01*
X0295464Y0192141D01*
X0295615Y0192086D01*
X0295765Y0192028D01*
X0295913Y0191966D01*
X0296060Y0191900D01*
X0296205Y0191831D01*
X0296348Y0191758D01*
X0296490Y0191682D01*
X0296629Y0191602D01*
X0296767Y0191519D01*
X0296902Y0191432D01*
X0297036Y0191342D01*
X0297167Y0191249D01*
X0297295Y0191153D01*
X0297421Y0191053D01*
X0297545Y0190950D01*
X0297666Y0190845D01*
X0297785Y0190736D01*
X0297901Y0190625D01*
X0298014Y0190510D01*
X0298124Y0190393D01*
X0298231Y0190273D01*
X0298335Y0190151D01*
X0298436Y0190026D01*
X0298534Y0189898D01*
X0298629Y0189768D01*
X0298721Y0189636D01*
X0298809Y0189502D01*
X0298894Y0189365D01*
X0298976Y0189227D01*
X0299054Y0189086D01*
X0299128Y0188944D01*
X0299199Y0188800D01*
X0299267Y0188654D01*
X0299330Y0188506D01*
X0299391Y0188357D01*
X0299447Y0188206D01*
X0299500Y0188054D01*
X0299549Y0187901D01*
X0299594Y0187747D01*
X0299635Y0187592D01*
X0299673Y0187435D01*
X0299706Y0187278D01*
X0299736Y0187120D01*
X0299762Y0186961D01*
X0299783Y0186802D01*
X0299801Y0186642D01*
X0299815Y0186482D01*
X0299825Y0186321D01*
X0299831Y0186161D01*
X0299833Y0186000D01*
X0299831Y0185839D01*
X0299825Y0185679D01*
X0299815Y0185518D01*
X0299801Y0185358D01*
X0299783Y0185198D01*
X0299762Y0185039D01*
X0299736Y0184880D01*
X0299706Y0184722D01*
X0299673Y0184565D01*
X0299635Y0184408D01*
X0299594Y0184253D01*
X0299549Y0184099D01*
X0299500Y0183946D01*
X0299447Y0183794D01*
X0299391Y0183643D01*
X0299330Y0183494D01*
X0299267Y0183346D01*
X0299199Y0183200D01*
X0299128Y0183056D01*
X0299054Y0182914D01*
X0298976Y0182773D01*
X0298894Y0182635D01*
X0298809Y0182498D01*
X0298721Y0182364D01*
X0298629Y0182232D01*
X0298534Y0182102D01*
X0298436Y0181974D01*
X0298335Y0181849D01*
X0298231Y0181727D01*
X0298124Y0181607D01*
X0298014Y0181490D01*
X0297901Y0181375D01*
X0297785Y0181264D01*
X0297666Y0181155D01*
X0297545Y0181050D01*
X0297421Y0180947D01*
X0297295Y0180847D01*
X0297167Y0180751D01*
X0297036Y0180658D01*
X0296902Y0180568D01*
X0296767Y0180481D01*
X0296629Y0180398D01*
X0296490Y0180318D01*
X0296348Y0180242D01*
X0296205Y0180169D01*
X0296060Y0180100D01*
X0295913Y0180034D01*
X0295765Y0179972D01*
X0295615Y0179914D01*
X0295464Y0179859D01*
X0295311Y0179808D01*
X0295157Y0179761D01*
X0295002Y0179718D01*
X0294846Y0179679D01*
X0294690Y0179643D01*
X0294532Y0179612D01*
X0294374Y0179584D01*
X0294215Y0179560D01*
X0294055Y0179540D01*
X0293895Y0179524D01*
X0293735Y0179512D01*
X0293574Y0179504D01*
X0293413Y0179500D01*
X0293253Y0179500D01*
X0293092Y0179504D01*
X0292931Y0179512D01*
X0292771Y0179524D01*
X0292611Y0179540D01*
X0292451Y0179560D01*
X0292292Y0179584D01*
X0292134Y0179612D01*
X0291976Y0179643D01*
X0291820Y0179679D01*
X0291664Y0179718D01*
X0291509Y0179761D01*
X0291355Y0179808D01*
X0291202Y0179859D01*
X0291051Y0179914D01*
X0290901Y0179972D01*
X0290753Y0180034D01*
X0290606Y0180100D01*
X0290461Y0180169D01*
X0290318Y0180242D01*
X0290176Y0180318D01*
X0290037Y0180398D01*
X0289899Y0180481D01*
X0289764Y0180568D01*
X0289630Y0180658D01*
X0289499Y0180751D01*
X0289371Y0180847D01*
X0289245Y0180947D01*
X0289121Y0181050D01*
X0289000Y0181155D01*
X0288881Y0181264D01*
X0288765Y0181375D01*
X0288652Y0181490D01*
X0288542Y0181607D01*
X0288435Y0181727D01*
X0288331Y0181849D01*
X0288230Y0181974D01*
X0288132Y0182102D01*
X0288037Y0182232D01*
X0287945Y0182364D01*
X0287857Y0182498D01*
X0287772Y0182635D01*
X0287690Y0182773D01*
X0287612Y0182914D01*
X0287538Y0183056D01*
X0287467Y0183200D01*
X0287399Y0183346D01*
X0287336Y0183494D01*
X0287275Y0183643D01*
X0287219Y0183794D01*
X0287166Y0183946D01*
X0287117Y0184099D01*
X0287072Y0184253D01*
X0287031Y0184408D01*
X0286993Y0184565D01*
X0286960Y0184722D01*
X0286930Y0184880D01*
X0286904Y0185039D01*
X0286883Y0185198D01*
X0286865Y0185358D01*
X0286851Y0185518D01*
X0286841Y0185679D01*
X0286835Y0185839D01*
X0286833Y0186000D01*
X0116833Y0186000D02*
X0116835Y0186161D01*
X0116841Y0186321D01*
X0116851Y0186482D01*
X0116865Y0186642D01*
X0116883Y0186802D01*
X0116904Y0186961D01*
X0116930Y0187120D01*
X0116960Y0187278D01*
X0116993Y0187435D01*
X0117031Y0187592D01*
X0117072Y0187747D01*
X0117117Y0187901D01*
X0117166Y0188054D01*
X0117219Y0188206D01*
X0117275Y0188357D01*
X0117336Y0188506D01*
X0117399Y0188654D01*
X0117467Y0188800D01*
X0117538Y0188944D01*
X0117612Y0189086D01*
X0117690Y0189227D01*
X0117772Y0189365D01*
X0117857Y0189502D01*
X0117945Y0189636D01*
X0118037Y0189768D01*
X0118132Y0189898D01*
X0118230Y0190026D01*
X0118331Y0190151D01*
X0118435Y0190273D01*
X0118542Y0190393D01*
X0118652Y0190510D01*
X0118765Y0190625D01*
X0118881Y0190736D01*
X0119000Y0190845D01*
X0119121Y0190950D01*
X0119245Y0191053D01*
X0119371Y0191153D01*
X0119499Y0191249D01*
X0119630Y0191342D01*
X0119764Y0191432D01*
X0119899Y0191519D01*
X0120037Y0191602D01*
X0120176Y0191682D01*
X0120318Y0191758D01*
X0120461Y0191831D01*
X0120606Y0191900D01*
X0120753Y0191966D01*
X0120901Y0192028D01*
X0121051Y0192086D01*
X0121202Y0192141D01*
X0121355Y0192192D01*
X0121509Y0192239D01*
X0121664Y0192282D01*
X0121820Y0192321D01*
X0121976Y0192357D01*
X0122134Y0192388D01*
X0122292Y0192416D01*
X0122451Y0192440D01*
X0122611Y0192460D01*
X0122771Y0192476D01*
X0122931Y0192488D01*
X0123092Y0192496D01*
X0123253Y0192500D01*
X0123413Y0192500D01*
X0123574Y0192496D01*
X0123735Y0192488D01*
X0123895Y0192476D01*
X0124055Y0192460D01*
X0124215Y0192440D01*
X0124374Y0192416D01*
X0124532Y0192388D01*
X0124690Y0192357D01*
X0124846Y0192321D01*
X0125002Y0192282D01*
X0125157Y0192239D01*
X0125311Y0192192D01*
X0125464Y0192141D01*
X0125615Y0192086D01*
X0125765Y0192028D01*
X0125913Y0191966D01*
X0126060Y0191900D01*
X0126205Y0191831D01*
X0126348Y0191758D01*
X0126490Y0191682D01*
X0126629Y0191602D01*
X0126767Y0191519D01*
X0126902Y0191432D01*
X0127036Y0191342D01*
X0127167Y0191249D01*
X0127295Y0191153D01*
X0127421Y0191053D01*
X0127545Y0190950D01*
X0127666Y0190845D01*
X0127785Y0190736D01*
X0127901Y0190625D01*
X0128014Y0190510D01*
X0128124Y0190393D01*
X0128231Y0190273D01*
X0128335Y0190151D01*
X0128436Y0190026D01*
X0128534Y0189898D01*
X0128629Y0189768D01*
X0128721Y0189636D01*
X0128809Y0189502D01*
X0128894Y0189365D01*
X0128976Y0189227D01*
X0129054Y0189086D01*
X0129128Y0188944D01*
X0129199Y0188800D01*
X0129267Y0188654D01*
X0129330Y0188506D01*
X0129391Y0188357D01*
X0129447Y0188206D01*
X0129500Y0188054D01*
X0129549Y0187901D01*
X0129594Y0187747D01*
X0129635Y0187592D01*
X0129673Y0187435D01*
X0129706Y0187278D01*
X0129736Y0187120D01*
X0129762Y0186961D01*
X0129783Y0186802D01*
X0129801Y0186642D01*
X0129815Y0186482D01*
X0129825Y0186321D01*
X0129831Y0186161D01*
X0129833Y0186000D01*
X0129831Y0185839D01*
X0129825Y0185679D01*
X0129815Y0185518D01*
X0129801Y0185358D01*
X0129783Y0185198D01*
X0129762Y0185039D01*
X0129736Y0184880D01*
X0129706Y0184722D01*
X0129673Y0184565D01*
X0129635Y0184408D01*
X0129594Y0184253D01*
X0129549Y0184099D01*
X0129500Y0183946D01*
X0129447Y0183794D01*
X0129391Y0183643D01*
X0129330Y0183494D01*
X0129267Y0183346D01*
X0129199Y0183200D01*
X0129128Y0183056D01*
X0129054Y0182914D01*
X0128976Y0182773D01*
X0128894Y0182635D01*
X0128809Y0182498D01*
X0128721Y0182364D01*
X0128629Y0182232D01*
X0128534Y0182102D01*
X0128436Y0181974D01*
X0128335Y0181849D01*
X0128231Y0181727D01*
X0128124Y0181607D01*
X0128014Y0181490D01*
X0127901Y0181375D01*
X0127785Y0181264D01*
X0127666Y0181155D01*
X0127545Y0181050D01*
X0127421Y0180947D01*
X0127295Y0180847D01*
X0127167Y0180751D01*
X0127036Y0180658D01*
X0126902Y0180568D01*
X0126767Y0180481D01*
X0126629Y0180398D01*
X0126490Y0180318D01*
X0126348Y0180242D01*
X0126205Y0180169D01*
X0126060Y0180100D01*
X0125913Y0180034D01*
X0125765Y0179972D01*
X0125615Y0179914D01*
X0125464Y0179859D01*
X0125311Y0179808D01*
X0125157Y0179761D01*
X0125002Y0179718D01*
X0124846Y0179679D01*
X0124690Y0179643D01*
X0124532Y0179612D01*
X0124374Y0179584D01*
X0124215Y0179560D01*
X0124055Y0179540D01*
X0123895Y0179524D01*
X0123735Y0179512D01*
X0123574Y0179504D01*
X0123413Y0179500D01*
X0123253Y0179500D01*
X0123092Y0179504D01*
X0122931Y0179512D01*
X0122771Y0179524D01*
X0122611Y0179540D01*
X0122451Y0179560D01*
X0122292Y0179584D01*
X0122134Y0179612D01*
X0121976Y0179643D01*
X0121820Y0179679D01*
X0121664Y0179718D01*
X0121509Y0179761D01*
X0121355Y0179808D01*
X0121202Y0179859D01*
X0121051Y0179914D01*
X0120901Y0179972D01*
X0120753Y0180034D01*
X0120606Y0180100D01*
X0120461Y0180169D01*
X0120318Y0180242D01*
X0120176Y0180318D01*
X0120037Y0180398D01*
X0119899Y0180481D01*
X0119764Y0180568D01*
X0119630Y0180658D01*
X0119499Y0180751D01*
X0119371Y0180847D01*
X0119245Y0180947D01*
X0119121Y0181050D01*
X0119000Y0181155D01*
X0118881Y0181264D01*
X0118765Y0181375D01*
X0118652Y0181490D01*
X0118542Y0181607D01*
X0118435Y0181727D01*
X0118331Y0181849D01*
X0118230Y0181974D01*
X0118132Y0182102D01*
X0118037Y0182232D01*
X0117945Y0182364D01*
X0117857Y0182498D01*
X0117772Y0182635D01*
X0117690Y0182773D01*
X0117612Y0182914D01*
X0117538Y0183056D01*
X0117467Y0183200D01*
X0117399Y0183346D01*
X0117336Y0183494D01*
X0117275Y0183643D01*
X0117219Y0183794D01*
X0117166Y0183946D01*
X0117117Y0184099D01*
X0117072Y0184253D01*
X0117031Y0184408D01*
X0116993Y0184565D01*
X0116960Y0184722D01*
X0116930Y0184880D01*
X0116904Y0185039D01*
X0116883Y0185198D01*
X0116865Y0185358D01*
X0116851Y0185518D01*
X0116841Y0185679D01*
X0116835Y0185839D01*
X0116833Y0186000D01*
D11*
X0295894Y0128518D02*
X0296878Y0128518D01*
X0298847Y0128518D02*
X0303767Y0128518D01*
X0304752Y0127534D01*
X0304752Y0126550D01*
X0302783Y0130847D02*
X0298847Y0130847D01*
X0298847Y0131831D01*
X0299831Y0132815D01*
X0298847Y0133800D01*
X0299831Y0134784D01*
X0302783Y0134784D01*
X0302783Y0132815D02*
X0299831Y0132815D01*
X0301799Y0137292D02*
X0300815Y0138277D01*
X0300815Y0141229D01*
X0299831Y0141229D02*
X0302783Y0141229D01*
X0302783Y0138277D01*
X0301799Y0137292D01*
X0298847Y0138277D02*
X0298847Y0140245D01*
X0299831Y0141229D01*
X0299831Y0143738D02*
X0301799Y0143738D01*
X0302783Y0144722D01*
X0302783Y0147675D01*
X0301799Y0150183D02*
X0299831Y0150183D01*
X0298847Y0151168D01*
X0298847Y0154120D01*
X0298847Y0157613D02*
X0298847Y0159582D01*
X0299831Y0160566D01*
X0302783Y0160566D01*
X0302783Y0157613D01*
X0301799Y0156629D01*
X0300815Y0157613D01*
X0300815Y0160566D01*
X0300815Y0163074D02*
X0298847Y0165043D01*
X0298847Y0166027D01*
X0296878Y0168446D02*
X0296878Y0169430D01*
X0302783Y0169430D01*
X0302783Y0168446D02*
X0302783Y0170414D01*
X0302783Y0163074D02*
X0298847Y0163074D01*
X0302783Y0154120D02*
X0302783Y0151168D01*
X0301799Y0150183D01*
X0298847Y0147675D02*
X0298847Y0144722D01*
X0299831Y0143738D01*
D12*
X0238345Y0190000D03*
X0227322Y0190000D03*
X0206845Y0190000D03*
X0195822Y0190000D03*
X0282822Y0041000D03*
X0293845Y0041000D03*
X0258345Y0029000D03*
X0247322Y0029000D03*
X0230345Y0029000D03*
X0219322Y0029000D03*
X0208345Y0029000D03*
X0197322Y0029000D03*
X0259822Y0014000D03*
X0270845Y0014000D03*
D13*
X0140333Y0053488D03*
X0140333Y0064512D03*
X0253333Y0095488D03*
X0253333Y0106512D03*
X0257333Y0178988D03*
X0268333Y0178988D03*
X0268333Y0190012D03*
X0257333Y0190012D03*
D14*
X0158833Y0121000D03*
X0287833Y0091000D03*
D15*
X0288833Y0101000D03*
X0287833Y0111000D03*
X0288833Y0121000D03*
X0287833Y0131000D03*
X0288833Y0141000D03*
X0287833Y0151000D03*
X0288833Y0161000D03*
X0157833Y0111000D03*
X0158833Y0101000D03*
X0157833Y0091000D03*
X0158833Y0081000D03*
X0157833Y0071000D03*
X0158833Y0061000D03*
X0157833Y0051000D03*
X0197833Y0017000D03*
X0207833Y0017000D03*
X0217833Y0017000D03*
X0227833Y0017000D03*
X0237833Y0017000D03*
X0247833Y0017000D03*
X0248333Y0041000D03*
X0253333Y0048500D03*
X0258333Y0041000D03*
D16*
X0253333Y0066000D03*
X0243333Y0066000D03*
X0243333Y0076000D03*
X0253333Y0076000D03*
X0263333Y0076000D03*
X0263333Y0066000D03*
D17*
X0163333Y0159063D03*
X0144829Y0170874D03*
X0163333Y0182685D03*
D18*
X0153333Y0021000D03*
D19*
X0173018Y0021000D03*
D20*
X0257333Y0155094D03*
X0268333Y0155094D03*
X0268333Y0166906D03*
X0257333Y0166906D03*
D21*
X0131333Y0071000D02*
X0125333Y0071000D01*
X0125333Y0061000D02*
X0131333Y0061000D01*
X0131333Y0051000D02*
X0125333Y0051000D01*
D22*
X0274833Y0058500D03*
X0274833Y0073500D03*
X0296833Y0073500D03*
X0296833Y0058500D03*
D23*
X0137433Y0098800D03*
X0128333Y0098800D03*
X0119233Y0098800D03*
D24*
X0128333Y0123201D03*
D25*
X0195733Y0126000D02*
X0200933Y0126000D01*
X0200933Y0116000D02*
X0195733Y0116000D01*
X0195733Y0106000D02*
X0200933Y0106000D01*
X0200933Y0096000D02*
X0195733Y0096000D01*
X0195733Y0086000D02*
X0200933Y0086000D01*
X0200933Y0076000D02*
X0195733Y0076000D01*
X0195733Y0066000D02*
X0200933Y0066000D01*
X0200933Y0056000D02*
X0195733Y0056000D01*
X0195733Y0046000D02*
X0200933Y0046000D01*
X0225733Y0046000D02*
X0230933Y0046000D01*
X0230933Y0056000D02*
X0225733Y0056000D01*
X0225733Y0066000D02*
X0230933Y0066000D01*
X0230933Y0076000D02*
X0225733Y0076000D01*
X0225733Y0086000D02*
X0230933Y0086000D01*
X0230933Y0096000D02*
X0225733Y0096000D01*
X0225733Y0106000D02*
X0230933Y0106000D01*
X0230933Y0116000D02*
X0225733Y0116000D01*
X0225733Y0126000D02*
X0230933Y0126000D01*
X0230933Y0136000D02*
X0225733Y0136000D01*
X0225733Y0146000D02*
X0230933Y0146000D01*
X0230933Y0156000D02*
X0225733Y0156000D01*
X0225733Y0166000D02*
X0230933Y0166000D01*
X0230933Y0176000D02*
X0225733Y0176000D01*
X0200933Y0176000D02*
X0195733Y0176000D01*
X0195733Y0166000D02*
X0200933Y0166000D01*
X0200933Y0156000D02*
X0195733Y0156000D01*
X0195733Y0146000D02*
X0200933Y0146000D01*
X0200933Y0136000D02*
X0195733Y0136000D01*
D26*
X0123333Y0148717D03*
X0123333Y0163283D03*
D27*
X0123333Y0141000D03*
X0144829Y0128500D03*
X0188333Y0111000D03*
X0173333Y0096000D03*
X0143333Y0096000D03*
X0140333Y0076000D03*
X0189333Y0051000D03*
X0219333Y0091000D03*
X0258333Y0149500D03*
X0268333Y0149500D03*
X0217833Y0190000D03*
X0188333Y0176000D03*
X0169833Y0170000D03*
D28*
X0158833Y0170000D01*
X0147550Y0158717D01*
X0133333Y0158717D01*
X0123333Y0148717D01*
X0123333Y0141000D01*
X0118333Y0136000D02*
X0140270Y0136000D01*
X0163333Y0159063D01*
X0175518Y0170500D02*
X0163333Y0182685D01*
X0156640Y0182685D01*
X0144829Y0170874D01*
X0123333Y0167000D02*
X0123333Y0163283D01*
X0123333Y0167000D02*
X0149333Y0193000D01*
X0192822Y0193000D01*
X0195822Y0190000D01*
X0195822Y0183488D01*
X0188333Y0176000D01*
X0175518Y0170500D02*
X0204833Y0170500D01*
X0218333Y0184000D01*
X0232345Y0184000D01*
X0238345Y0190000D01*
X0257322Y0190000D01*
X0257333Y0190012D01*
X0268333Y0190012D01*
X0268333Y0178988D02*
X0268333Y0166906D01*
X0257333Y0166906D02*
X0257333Y0178988D01*
X0248333Y0166000D02*
X0238333Y0176000D01*
X0228333Y0176000D01*
X0218333Y0184000D02*
X0216833Y0184000D01*
X0210833Y0190000D01*
X0206845Y0190000D01*
X0217833Y0190000D02*
X0227322Y0190000D01*
X0195822Y0190000D02*
X0193833Y0191000D01*
X0198333Y0166000D02*
X0183333Y0151000D01*
X0183333Y0141000D01*
X0163333Y0121000D01*
X0158833Y0121000D01*
X0146833Y0109000D01*
X0146833Y0038000D01*
X0175833Y0009000D01*
X0209833Y0009000D01*
X0217833Y0017000D01*
X0207833Y0017000D02*
X0201833Y0011000D01*
X0193333Y0011000D01*
X0173333Y0031000D01*
X0163333Y0031000D01*
X0150333Y0044000D01*
X0150333Y0104000D01*
X0157333Y0111000D01*
X0157833Y0111000D01*
X0159833Y0111000D01*
X0186833Y0138000D01*
X0186833Y0147500D01*
X0195333Y0156000D01*
X0198333Y0156000D01*
X0198333Y0146000D02*
X0168333Y0116000D01*
X0168333Y0110500D01*
X0158833Y0101000D01*
X0165333Y0098500D02*
X0165333Y0103500D01*
X0171833Y0110000D01*
X0171833Y0116000D01*
X0191833Y0136000D01*
X0198333Y0136000D01*
X0198333Y0135500D01*
X0198333Y0126000D02*
X0185833Y0126000D01*
X0174833Y0115000D01*
X0174833Y0109000D01*
X0168333Y0102500D01*
X0168333Y0097500D01*
X0165333Y0094500D01*
X0165333Y0087500D01*
X0158833Y0081000D01*
X0157833Y0071000D02*
X0163333Y0071000D01*
X0168333Y0066000D01*
X0188333Y0066000D01*
X0198333Y0076000D01*
X0209833Y0082000D02*
X0209833Y0057500D01*
X0198333Y0046000D01*
X0189333Y0045000D02*
X0189333Y0051000D01*
X0198333Y0056000D02*
X0168333Y0056000D01*
X0163333Y0051000D01*
X0157833Y0051000D01*
X0158833Y0061000D02*
X0193333Y0061000D01*
X0198333Y0066000D01*
X0209833Y0082000D02*
X0218833Y0091000D01*
X0219333Y0091000D01*
X0228333Y0096000D02*
X0208333Y0116000D01*
X0198333Y0116000D01*
X0185833Y0116000D01*
X0173333Y0103500D01*
X0173333Y0096000D01*
X0165333Y0098500D02*
X0157833Y0091000D01*
X0143333Y0096000D02*
X0140233Y0096000D01*
X0137433Y0098800D01*
X0128333Y0098800D02*
X0144829Y0115296D01*
X0144829Y0128500D01*
X0118333Y0136000D02*
X0113333Y0131000D01*
X0113333Y0101000D01*
X0115533Y0098800D01*
X0119233Y0098800D01*
X0119233Y0091900D01*
X0113333Y0086000D01*
X0113333Y0041000D01*
X0123333Y0031000D01*
X0143333Y0031000D01*
X0153333Y0021000D01*
X0167833Y0006500D01*
X0273833Y0006500D01*
X0278333Y0011000D01*
X0278333Y0036512D01*
X0282822Y0041000D01*
X0286845Y0048000D02*
X0276833Y0048000D01*
X0269833Y0041000D01*
X0258333Y0041000D01*
X0258345Y0029000D01*
X0270845Y0014000D01*
X0271333Y0013512D01*
X0271333Y0011000D01*
X0268833Y0008500D01*
X0253833Y0008500D01*
X0247833Y0014500D01*
X0247833Y0017000D01*
X0237833Y0017000D01*
X0227833Y0017000D02*
X0230345Y0029000D01*
X0247322Y0029000D01*
X0248333Y0041000D01*
X0248333Y0056000D02*
X0228333Y0036000D01*
X0226322Y0036000D01*
X0219322Y0029000D01*
X0208345Y0029000D01*
X0197322Y0029000D02*
X0197833Y0017000D01*
X0198333Y0036000D02*
X0218333Y0036000D01*
X0228333Y0046000D01*
X0248333Y0056000D02*
X0253333Y0056000D01*
X0263333Y0066000D01*
X0270833Y0058500D01*
X0274833Y0058500D01*
X0296833Y0058500D01*
X0301333Y0048488D02*
X0293845Y0041000D01*
X0286845Y0048000D01*
X0293845Y0042012D02*
X0293845Y0041000D01*
X0301333Y0048488D02*
X0301333Y0070500D01*
X0298333Y0073500D01*
X0274833Y0073500D01*
X0296833Y0073500D01*
X0296833Y0098500D01*
X0294333Y0101000D01*
X0288833Y0101000D01*
X0278333Y0101000D01*
X0272822Y0106512D01*
X0253333Y0106512D01*
X0247822Y0106512D01*
X0238333Y0116000D01*
X0228333Y0116000D01*
X0228333Y0126000D02*
X0235833Y0133500D01*
X0274833Y0133500D01*
X0278333Y0130000D01*
X0278333Y0121000D01*
X0287833Y0111500D01*
X0287833Y0111000D01*
X0286833Y0121000D02*
X0280833Y0127000D01*
X0280833Y0133500D01*
X0278333Y0136000D01*
X0228333Y0136000D01*
X0235833Y0138500D02*
X0228333Y0146000D01*
X0228333Y0156000D02*
X0243333Y0141000D01*
X0288833Y0141000D01*
X0280333Y0138500D02*
X0235833Y0138500D01*
X0250833Y0143500D02*
X0228333Y0166000D01*
X0228833Y0165500D01*
X0247833Y0165500D02*
X0248333Y0166000D01*
X0247833Y0165500D02*
X0247833Y0151500D01*
X0253333Y0146000D01*
X0273333Y0146000D01*
X0288333Y0161000D01*
X0288833Y0161000D01*
X0287833Y0151000D02*
X0282833Y0151000D01*
X0275333Y0143500D01*
X0250833Y0143500D01*
X0258333Y0149500D02*
X0258333Y0154094D01*
X0257333Y0155094D01*
X0268333Y0155094D02*
X0268333Y0149500D01*
X0268333Y0155094D02*
X0268333Y0156000D01*
X0280333Y0138500D02*
X0287833Y0131000D01*
X0288833Y0121000D02*
X0286833Y0121000D01*
X0278333Y0096000D02*
X0253845Y0096000D01*
X0253333Y0095488D01*
X0243333Y0086000D01*
X0243333Y0076000D01*
X0243333Y0066000D02*
X0228333Y0076000D01*
X0243333Y0086000D02*
X0228333Y0096000D01*
X0198333Y0086000D02*
X0188333Y0096000D01*
X0188333Y0111000D01*
X0194833Y0126000D02*
X0198333Y0126000D01*
X0128333Y0098800D02*
X0128333Y0071000D01*
X0140333Y0076000D02*
X0140333Y0064512D01*
X0140333Y0053488D02*
X0137845Y0051000D01*
X0128333Y0051000D01*
X0189333Y0045000D02*
X0198333Y0036000D01*
X0247322Y0029000D02*
X0259822Y0014000D01*
X0265833Y0073500D02*
X0263333Y0076000D01*
X0265833Y0073500D02*
X0274833Y0073500D01*
X0283333Y0091000D02*
X0278333Y0096000D01*
X0283333Y0091000D02*
X0287833Y0091000D01*
M02*
