G75*
%MOIN*%
%OFA0B0*%
%FSLAX25Y25*%
%IPPOS*%
%LPD*%
%AMOC8*
5,1,8,0,0,1.08239X$1,22.5*
%
%ADD10R,0.07099X0.07887*%
%ADD11R,0.07887X0.07099*%
%ADD12C,0.13800*%
%ADD13R,0.08200X0.08200*%
%ADD14C,0.08200*%
%ADD15OC8,0.08200*%
%ADD16C,0.17800*%
%ADD17R,0.08800X0.08800*%
%ADD18C,0.08800*%
%ADD19R,0.06312X0.05524*%
%ADD20C,0.06800*%
%ADD21R,0.06800X0.03800*%
%ADD22R,0.05600X0.09600*%
%ADD23R,0.14973X0.09461*%
%ADD24C,0.06000*%
%ADD25R,0.10249X0.07493*%
%ADD26C,0.05156*%
D10*
X0197322Y0029000D03*
X0208345Y0029000D03*
X0219322Y0029000D03*
X0230345Y0029000D03*
X0247322Y0029000D03*
X0258345Y0029000D03*
X0282822Y0041000D03*
X0293845Y0041000D03*
X0270845Y0014000D03*
X0259822Y0014000D03*
X0238345Y0190000D03*
X0227322Y0190000D03*
X0206845Y0190000D03*
X0195822Y0190000D03*
D11*
X0257333Y0190012D03*
X0268333Y0190012D03*
X0268333Y0178988D03*
X0257333Y0178988D03*
X0253333Y0106512D03*
X0253333Y0095488D03*
X0140333Y0064512D03*
X0140333Y0053488D03*
D12*
X0123333Y0016000D03*
X0293333Y0016000D03*
X0293333Y0186000D03*
X0123333Y0186000D03*
D13*
X0158833Y0121000D03*
X0287833Y0091000D03*
D14*
X0288833Y0101000D03*
X0287833Y0111000D03*
X0288833Y0121000D03*
X0287833Y0131000D03*
X0288833Y0141000D03*
X0287833Y0151000D03*
X0288833Y0161000D03*
X0157833Y0111000D03*
X0158833Y0101000D03*
X0157833Y0091000D03*
X0158833Y0081000D03*
X0157833Y0071000D03*
X0158833Y0061000D03*
X0157833Y0051000D03*
X0197833Y0017000D03*
X0207833Y0017000D03*
X0217833Y0017000D03*
X0227833Y0017000D03*
X0237833Y0017000D03*
X0247833Y0017000D03*
X0248333Y0041000D03*
X0253333Y0048500D03*
X0258333Y0041000D03*
D15*
X0253333Y0066000D03*
X0243333Y0066000D03*
X0243333Y0076000D03*
X0253333Y0076000D03*
X0263333Y0076000D03*
X0263333Y0066000D03*
D16*
X0163333Y0159063D03*
X0144829Y0170874D03*
X0163333Y0182685D03*
D17*
X0153333Y0021000D03*
D18*
X0173018Y0021000D03*
D19*
X0257333Y0155094D03*
X0268333Y0155094D03*
X0268333Y0166906D03*
X0257333Y0166906D03*
D20*
X0131333Y0071000D02*
X0125333Y0071000D01*
X0125333Y0061000D02*
X0131333Y0061000D01*
X0131333Y0051000D02*
X0125333Y0051000D01*
D21*
X0274833Y0058500D03*
X0274833Y0073500D03*
X0296833Y0073500D03*
X0296833Y0058500D03*
D22*
X0137433Y0098800D03*
X0128333Y0098800D03*
X0119233Y0098800D03*
D23*
X0128333Y0123201D03*
D24*
X0195733Y0126000D02*
X0200933Y0126000D01*
X0200933Y0116000D02*
X0195733Y0116000D01*
X0195733Y0106000D02*
X0200933Y0106000D01*
X0200933Y0096000D02*
X0195733Y0096000D01*
X0195733Y0086000D02*
X0200933Y0086000D01*
X0200933Y0076000D02*
X0195733Y0076000D01*
X0195733Y0066000D02*
X0200933Y0066000D01*
X0200933Y0056000D02*
X0195733Y0056000D01*
X0195733Y0046000D02*
X0200933Y0046000D01*
X0225733Y0046000D02*
X0230933Y0046000D01*
X0230933Y0056000D02*
X0225733Y0056000D01*
X0225733Y0066000D02*
X0230933Y0066000D01*
X0230933Y0076000D02*
X0225733Y0076000D01*
X0225733Y0086000D02*
X0230933Y0086000D01*
X0230933Y0096000D02*
X0225733Y0096000D01*
X0225733Y0106000D02*
X0230933Y0106000D01*
X0230933Y0116000D02*
X0225733Y0116000D01*
X0225733Y0126000D02*
X0230933Y0126000D01*
X0230933Y0136000D02*
X0225733Y0136000D01*
X0225733Y0146000D02*
X0230933Y0146000D01*
X0230933Y0156000D02*
X0225733Y0156000D01*
X0225733Y0166000D02*
X0230933Y0166000D01*
X0230933Y0176000D02*
X0225733Y0176000D01*
X0200933Y0176000D02*
X0195733Y0176000D01*
X0195733Y0166000D02*
X0200933Y0166000D01*
X0200933Y0156000D02*
X0195733Y0156000D01*
X0195733Y0146000D02*
X0200933Y0146000D01*
X0200933Y0136000D02*
X0195733Y0136000D01*
D25*
X0123333Y0148717D03*
X0123333Y0163283D03*
D26*
X0123333Y0141000D03*
X0144829Y0128500D03*
X0188333Y0111000D03*
X0173333Y0096000D03*
X0143333Y0096000D03*
X0140333Y0076000D03*
X0189333Y0051000D03*
X0219333Y0091000D03*
X0258333Y0149500D03*
X0268333Y0149500D03*
X0217833Y0190000D03*
X0188333Y0176000D03*
X0169833Y0170000D03*
M02*
