%
M48
M72
T01C0.02756
T02C0.03200
T03C0.04000
T04C0.05118
T05C0.11800
T06C0.13000
%
T01
X140333Y76000
X143333Y96000
X173333Y96000
X188333Y111000
X219333Y91000
X189333Y51000
X144829Y128500
X123333Y141000
X169833Y170000
X188333Y176000
X217833Y190000
X258333Y149500
X268333Y149500
T02
X228333Y146000
X228333Y136000
X228333Y126000
X228333Y116000
X228333Y106000
X228333Y96000
X228333Y86000
X228333Y76000
X228333Y66000
X228333Y56000
X228333Y46000
X248333Y41000
X253333Y48500
X258333Y41000
X198333Y46000
X198333Y56000
X198333Y66000
X198333Y76000
X198333Y86000
X198333Y96000
X198333Y106000
X198333Y116000
X198333Y126000
X198333Y136000
X198333Y146000
X198333Y156000
X198333Y166000
X198333Y176000
X228333Y176000
X228333Y166000
X228333Y156000
T03
X287833Y151000
X288833Y141000
X287833Y131000
X288833Y121000
X287833Y111000
X288833Y101000
X287833Y91000
X263333Y76000
X253333Y76000
X243333Y76000
X243333Y66000
X253333Y66000
X263333Y66000
X247833Y17000
X237833Y17000
X227833Y17000
X217833Y17000
X207833Y17000
X197833Y17000
X157833Y51000
X158833Y61000
X157833Y71000
X158833Y81000
X157833Y91000
X158833Y101000
X157833Y111000
X158833Y121000
X128333Y71000
X128333Y61000
X128333Y51000
X288833Y161000
T04
X173018Y21000
X153333Y21000
T05
X163333Y159063
X144829Y170874
X163333Y182685
T06
X123333Y16000
X293333Y16000
X293333Y186000
X123333Y186000
M30
