G75*
%MOIN*%
%OFA0B0*%
%FSLAX25Y25*%
%IPPOS*%
%LPD*%
%AMOC8*
5,1,8,0,0,1.08239X$1,22.5*
%
%ADD10C,0.00100*%
%ADD11C,0.00800*%
%ADD12C,0.00500*%
%ADD13C,0.00400*%
%ADD14R,0.04000X0.40000*%
%ADD15C,0.00200*%
%ADD16C,0.00080*%
D10*
X0134282Y0054050D02*
X0134282Y0054801D01*
X0134532Y0055051D01*
X0135033Y0055051D01*
X0135283Y0054801D01*
X0135283Y0054050D01*
X0135783Y0054050D02*
X0134282Y0054050D01*
X0135283Y0054550D02*
X0135783Y0055051D01*
X0135033Y0055523D02*
X0135033Y0056524D01*
X0135783Y0056274D02*
X0134282Y0056274D01*
X0135033Y0055523D01*
X0148884Y0032551D02*
X0149384Y0032551D01*
X0149134Y0032551D02*
X0149134Y0031300D01*
X0148884Y0031050D01*
X0148634Y0031050D01*
X0148383Y0031300D01*
X0149857Y0031300D02*
X0150107Y0031050D01*
X0150607Y0031050D01*
X0150857Y0031300D01*
X0150857Y0031550D01*
X0150607Y0031801D01*
X0149857Y0031801D01*
X0149857Y0031300D01*
X0149857Y0031801D02*
X0150357Y0032301D01*
X0150857Y0032551D01*
X0197883Y0033800D02*
X0198134Y0033550D01*
X0198634Y0033550D01*
X0198884Y0033800D01*
X0199357Y0033800D02*
X0199607Y0033550D01*
X0200107Y0033550D01*
X0200357Y0033800D01*
X0200357Y0034301D01*
X0200107Y0034551D01*
X0199857Y0034551D01*
X0199357Y0034301D01*
X0199357Y0035051D01*
X0200357Y0035051D01*
X0198884Y0034801D02*
X0198634Y0035051D01*
X0198134Y0035051D01*
X0197883Y0034801D01*
X0197883Y0033800D01*
X0219883Y0034050D02*
X0220634Y0034050D01*
X0220884Y0034301D01*
X0220884Y0034801D01*
X0220634Y0035051D01*
X0219883Y0035051D01*
X0219883Y0033550D01*
X0220384Y0034050D02*
X0220884Y0033550D01*
X0221357Y0033800D02*
X0221607Y0033550D01*
X0222107Y0033550D01*
X0222357Y0033800D01*
X0222357Y0034050D01*
X0222107Y0034301D01*
X0221857Y0034301D01*
X0222107Y0034301D02*
X0222357Y0034551D01*
X0222357Y0034801D01*
X0222107Y0035051D01*
X0221607Y0035051D01*
X0221357Y0034801D01*
X0247883Y0034801D02*
X0247883Y0033800D01*
X0248134Y0033550D01*
X0248634Y0033550D01*
X0248884Y0033800D01*
X0249357Y0034301D02*
X0250357Y0034301D01*
X0250107Y0035051D02*
X0249357Y0034301D01*
X0248884Y0034801D02*
X0248634Y0035051D01*
X0248134Y0035051D01*
X0247883Y0034801D01*
X0250107Y0035051D02*
X0250107Y0033550D01*
X0260634Y0020051D02*
X0260383Y0019801D01*
X0260383Y0018800D01*
X0260634Y0018550D01*
X0261134Y0018550D01*
X0261384Y0018800D01*
X0261857Y0018800D02*
X0261857Y0018550D01*
X0261857Y0018800D02*
X0262857Y0019801D01*
X0262857Y0020051D01*
X0261857Y0020051D01*
X0261384Y0019801D02*
X0261134Y0020051D01*
X0260634Y0020051D01*
X0283634Y0045550D02*
X0284134Y0045550D01*
X0284384Y0045800D01*
X0284857Y0045800D02*
X0285107Y0045550D01*
X0285607Y0045550D01*
X0285857Y0045800D01*
X0285857Y0046050D01*
X0285607Y0046301D01*
X0284857Y0046301D01*
X0284857Y0045800D01*
X0284857Y0046301D02*
X0285357Y0046801D01*
X0285857Y0047051D01*
X0284384Y0046801D02*
X0284134Y0047051D01*
X0283634Y0047051D01*
X0283383Y0046801D01*
X0283383Y0045800D01*
X0283634Y0045550D01*
X0283857Y0073050D02*
X0284857Y0073050D01*
X0284357Y0073050D02*
X0284357Y0074551D01*
X0283857Y0074051D01*
X0283384Y0074301D02*
X0283134Y0074551D01*
X0282634Y0074551D01*
X0282383Y0074301D01*
X0282383Y0074051D01*
X0282634Y0073801D01*
X0283134Y0073801D01*
X0283384Y0073550D01*
X0283384Y0073300D01*
X0283134Y0073050D01*
X0282634Y0073050D01*
X0282383Y0073300D01*
X0248783Y0096300D02*
X0248783Y0096801D01*
X0248533Y0097051D01*
X0248533Y0097523D02*
X0248783Y0097773D01*
X0248783Y0098274D01*
X0248533Y0098524D01*
X0248283Y0098524D01*
X0248033Y0098274D01*
X0248033Y0098024D01*
X0248033Y0098274D02*
X0247782Y0098524D01*
X0247532Y0098524D01*
X0247282Y0098274D01*
X0247282Y0097773D01*
X0247532Y0097523D01*
X0247532Y0097051D02*
X0247282Y0096801D01*
X0247282Y0096300D01*
X0247532Y0096050D01*
X0248533Y0096050D01*
X0248783Y0096300D01*
X0129081Y0128800D02*
X0128080Y0128800D01*
X0128580Y0128800D02*
X0128580Y0130301D01*
X0128080Y0129801D01*
X0127607Y0130051D02*
X0127357Y0130301D01*
X0126857Y0130301D01*
X0126607Y0130051D01*
X0126607Y0129801D01*
X0126857Y0129551D01*
X0127357Y0129551D01*
X0127607Y0129300D01*
X0127607Y0129050D01*
X0127357Y0128800D01*
X0126857Y0128800D01*
X0126607Y0129050D01*
X0126134Y0129050D02*
X0126134Y0130301D01*
X0125133Y0130301D02*
X0125133Y0129050D01*
X0125384Y0128800D01*
X0125884Y0128800D01*
X0126134Y0129050D01*
X0127107Y0128550D02*
X0127107Y0130551D01*
X0124632Y0157103D02*
X0125133Y0157604D01*
X0125883Y0157604D01*
X0125133Y0157604D02*
X0124632Y0158104D01*
X0124382Y0158104D01*
X0124882Y0158577D02*
X0124382Y0159077D01*
X0125883Y0159077D01*
X0125883Y0158577D02*
X0125883Y0159578D01*
X0124632Y0157103D02*
X0124382Y0157103D01*
X0175437Y0191700D02*
X0175687Y0191450D01*
X0175937Y0191450D01*
X0176187Y0191700D01*
X0176187Y0192951D01*
X0175937Y0192951D02*
X0176438Y0192951D01*
X0176910Y0192951D02*
X0176910Y0192201D01*
X0177410Y0192451D01*
X0177661Y0192451D01*
X0177911Y0192201D01*
X0177911Y0191700D01*
X0177661Y0191450D01*
X0177160Y0191450D01*
X0176910Y0191700D01*
X0176910Y0192951D02*
X0177911Y0192951D01*
X0196383Y0194800D02*
X0196634Y0194550D01*
X0197134Y0194550D01*
X0197384Y0194800D01*
X0197857Y0194550D02*
X0198857Y0195551D01*
X0198857Y0195801D01*
X0198607Y0196051D01*
X0198107Y0196051D01*
X0197857Y0195801D01*
X0197384Y0195801D02*
X0197134Y0196051D01*
X0196634Y0196051D01*
X0196383Y0195801D01*
X0196383Y0194800D01*
X0197857Y0194550D02*
X0198857Y0194550D01*
X0227883Y0194800D02*
X0228134Y0194550D01*
X0228634Y0194550D01*
X0228884Y0194800D01*
X0229357Y0194550D02*
X0230357Y0194550D01*
X0229857Y0194550D02*
X0229857Y0196051D01*
X0229357Y0195551D01*
X0228884Y0195801D02*
X0228634Y0196051D01*
X0228134Y0196051D01*
X0227883Y0195801D01*
X0227883Y0194800D01*
X0261882Y0188577D02*
X0263383Y0188577D01*
X0263383Y0188077D02*
X0263383Y0189078D01*
X0262382Y0188077D02*
X0261882Y0188577D01*
X0262132Y0187604D02*
X0262633Y0187604D01*
X0262883Y0187354D01*
X0262883Y0186603D01*
X0263383Y0186603D02*
X0261882Y0186603D01*
X0261882Y0187354D01*
X0262132Y0187604D01*
X0262883Y0187104D02*
X0263383Y0187604D01*
X0272882Y0187354D02*
X0273132Y0187604D01*
X0273633Y0187604D01*
X0273883Y0187354D01*
X0273883Y0186603D01*
X0274383Y0186603D02*
X0272882Y0186603D01*
X0272882Y0187354D01*
X0273132Y0188077D02*
X0272882Y0188327D01*
X0272882Y0188827D01*
X0273132Y0189078D01*
X0273382Y0189078D01*
X0274383Y0188077D01*
X0274383Y0189078D01*
X0274383Y0187604D02*
X0273883Y0187104D01*
D11*
X0285833Y0166000D02*
X0290833Y0166000D01*
X0293333Y0163500D01*
X0293333Y0158500D01*
X0290833Y0156000D01*
X0293333Y0153500D01*
X0293333Y0148500D01*
X0290833Y0146000D01*
X0293333Y0143500D01*
X0293333Y0138500D01*
X0290833Y0136000D01*
X0293333Y0133500D01*
X0293333Y0128500D01*
X0290833Y0126000D01*
X0293333Y0123500D01*
X0293333Y0118500D01*
X0290833Y0116000D01*
X0293333Y0113500D01*
X0293333Y0108500D01*
X0290833Y0106000D01*
X0293333Y0103500D01*
X0293333Y0098500D01*
X0290833Y0096000D01*
X0293333Y0093500D01*
X0293333Y0088500D01*
X0290833Y0086000D01*
X0285833Y0086000D01*
X0283333Y0088500D01*
X0283333Y0093500D01*
X0285833Y0096000D01*
X0283333Y0098500D01*
X0283333Y0103500D01*
X0285833Y0106000D01*
X0283333Y0108500D01*
X0283333Y0113500D01*
X0285833Y0116000D01*
X0283333Y0118500D01*
X0283333Y0123500D01*
X0285833Y0126000D01*
X0283333Y0128500D01*
X0283333Y0133500D01*
X0285833Y0136000D01*
X0283333Y0138500D01*
X0283333Y0143500D01*
X0285833Y0146000D01*
X0283333Y0148500D01*
X0283333Y0153500D01*
X0285833Y0156000D01*
X0283333Y0158500D01*
X0283333Y0163500D01*
X0285833Y0166000D01*
X0271089Y0162181D02*
X0268333Y0162181D01*
X0270696Y0159819D01*
X0265971Y0159819D01*
X0268333Y0162181D01*
X0265577Y0162181D01*
X0260089Y0162181D02*
X0257333Y0162181D01*
X0259696Y0159819D01*
X0254971Y0159819D01*
X0257333Y0162181D01*
X0254577Y0162181D01*
X0225333Y0180000D02*
X0225333Y0181000D01*
X0218333Y0181000D01*
X0218331Y0180860D01*
X0218325Y0180720D01*
X0218315Y0180580D01*
X0218302Y0180440D01*
X0218284Y0180301D01*
X0218262Y0180162D01*
X0218237Y0180025D01*
X0218208Y0179887D01*
X0218175Y0179751D01*
X0218138Y0179616D01*
X0218097Y0179482D01*
X0218052Y0179349D01*
X0218004Y0179217D01*
X0217952Y0179087D01*
X0217897Y0178958D01*
X0217838Y0178831D01*
X0217775Y0178705D01*
X0217709Y0178581D01*
X0217640Y0178460D01*
X0217567Y0178340D01*
X0217490Y0178222D01*
X0217411Y0178107D01*
X0217328Y0177993D01*
X0217242Y0177883D01*
X0217153Y0177774D01*
X0217061Y0177668D01*
X0216966Y0177565D01*
X0216869Y0177464D01*
X0216768Y0177367D01*
X0216665Y0177272D01*
X0216559Y0177180D01*
X0216450Y0177091D01*
X0216340Y0177005D01*
X0216226Y0176922D01*
X0216111Y0176843D01*
X0215993Y0176766D01*
X0215873Y0176693D01*
X0215752Y0176624D01*
X0215628Y0176558D01*
X0215502Y0176495D01*
X0215375Y0176436D01*
X0215246Y0176381D01*
X0215116Y0176329D01*
X0214984Y0176281D01*
X0214851Y0176236D01*
X0214717Y0176195D01*
X0214582Y0176158D01*
X0214446Y0176125D01*
X0214308Y0176096D01*
X0214171Y0176071D01*
X0214032Y0176049D01*
X0213893Y0176031D01*
X0213753Y0176018D01*
X0213613Y0176008D01*
X0213473Y0176002D01*
X0213333Y0176000D01*
X0213193Y0176002D01*
X0213053Y0176008D01*
X0212913Y0176018D01*
X0212773Y0176031D01*
X0212634Y0176049D01*
X0212495Y0176071D01*
X0212358Y0176096D01*
X0212220Y0176125D01*
X0212084Y0176158D01*
X0211949Y0176195D01*
X0211815Y0176236D01*
X0211682Y0176281D01*
X0211550Y0176329D01*
X0211420Y0176381D01*
X0211291Y0176436D01*
X0211164Y0176495D01*
X0211038Y0176558D01*
X0210914Y0176624D01*
X0210793Y0176693D01*
X0210673Y0176766D01*
X0210555Y0176843D01*
X0210440Y0176922D01*
X0210326Y0177005D01*
X0210216Y0177091D01*
X0210107Y0177180D01*
X0210001Y0177272D01*
X0209898Y0177367D01*
X0209797Y0177464D01*
X0209700Y0177565D01*
X0209605Y0177668D01*
X0209513Y0177774D01*
X0209424Y0177883D01*
X0209338Y0177993D01*
X0209255Y0178107D01*
X0209176Y0178222D01*
X0209099Y0178340D01*
X0209026Y0178460D01*
X0208957Y0178581D01*
X0208891Y0178705D01*
X0208828Y0178831D01*
X0208769Y0178958D01*
X0208714Y0179087D01*
X0208662Y0179217D01*
X0208614Y0179349D01*
X0208569Y0179482D01*
X0208528Y0179616D01*
X0208491Y0179751D01*
X0208458Y0179887D01*
X0208429Y0180025D01*
X0208404Y0180162D01*
X0208382Y0180301D01*
X0208364Y0180440D01*
X0208351Y0180580D01*
X0208341Y0180720D01*
X0208335Y0180860D01*
X0208333Y0181000D01*
X0201333Y0181000D01*
X0201333Y0180000D01*
X0181050Y0159063D02*
X0172782Y0159063D01*
X0181050Y0159063D02*
X0181050Y0201189D01*
X0145617Y0201189D01*
X0145617Y0180323D01*
X0145617Y0161819D02*
X0145617Y0159063D01*
X0153885Y0159063D01*
X0155833Y0126000D02*
X0153333Y0123500D01*
X0153333Y0118500D01*
X0155833Y0116000D01*
X0153333Y0113500D01*
X0153333Y0108500D01*
X0155833Y0106000D01*
X0153333Y0103500D01*
X0153333Y0098500D01*
X0155833Y0096000D01*
X0153333Y0093500D01*
X0153333Y0088500D01*
X0155833Y0086000D01*
X0153333Y0083500D01*
X0153333Y0078500D01*
X0155833Y0076000D01*
X0153333Y0073500D01*
X0153333Y0068500D01*
X0155833Y0066000D01*
X0153333Y0063500D01*
X0153333Y0058500D01*
X0155833Y0056000D01*
X0153333Y0053500D01*
X0153333Y0048500D01*
X0155833Y0046000D01*
X0160833Y0046000D01*
X0163333Y0048500D01*
X0163333Y0053500D01*
X0160833Y0056000D01*
X0163333Y0058500D01*
X0163333Y0063500D01*
X0160833Y0066000D01*
X0163333Y0068500D01*
X0163333Y0073500D01*
X0160833Y0076000D01*
X0163333Y0078500D01*
X0163333Y0083500D01*
X0160833Y0086000D01*
X0163333Y0088500D01*
X0163333Y0093500D01*
X0160833Y0096000D01*
X0163333Y0098500D01*
X0163333Y0103500D01*
X0160833Y0106000D01*
X0163333Y0108500D01*
X0163333Y0113500D01*
X0160833Y0116000D01*
X0163333Y0118500D01*
X0163333Y0123500D01*
X0160833Y0126000D01*
X0155833Y0126000D01*
X0141233Y0117500D02*
X0115433Y0117500D01*
X0115433Y0104500D01*
X0141233Y0104500D01*
X0141233Y0117500D01*
X0129833Y0081000D02*
X0120333Y0081000D01*
X0116333Y0081000D01*
X0116333Y0041000D01*
X0120333Y0041000D01*
X0120333Y0081000D01*
X0129834Y0081000D02*
X0129949Y0081001D01*
X0130064Y0080998D01*
X0130179Y0080991D01*
X0130294Y0080980D01*
X0130408Y0080965D01*
X0130522Y0080947D01*
X0130635Y0080925D01*
X0130748Y0080899D01*
X0130859Y0080869D01*
X0130969Y0080835D01*
X0131079Y0080798D01*
X0131186Y0080757D01*
X0131293Y0080712D01*
X0131397Y0080664D01*
X0131501Y0080612D01*
X0131602Y0080557D01*
X0131701Y0080498D01*
X0131799Y0080437D01*
X0131894Y0080371D01*
X0131987Y0080303D01*
X0132077Y0080232D01*
X0132165Y0080157D01*
X0132251Y0080080D01*
X0132334Y0080000D01*
X0132414Y0079917D01*
X0132491Y0079831D01*
X0132566Y0079743D01*
X0132637Y0079653D01*
X0132705Y0079560D01*
X0132771Y0079465D01*
X0132832Y0079367D01*
X0132891Y0079268D01*
X0132946Y0079167D01*
X0132998Y0079063D01*
X0133046Y0078959D01*
X0133091Y0078852D01*
X0133132Y0078745D01*
X0133169Y0078635D01*
X0133203Y0078525D01*
X0133233Y0078414D01*
X0133259Y0078301D01*
X0133281Y0078188D01*
X0133299Y0078074D01*
X0133314Y0077960D01*
X0133325Y0077845D01*
X0133332Y0077730D01*
X0133335Y0077615D01*
X0133334Y0077500D01*
X0133333Y0077500D02*
X0133333Y0076000D01*
X0133333Y0046000D02*
X0133333Y0044500D01*
X0133334Y0044500D02*
X0133335Y0044385D01*
X0133332Y0044270D01*
X0133325Y0044155D01*
X0133314Y0044040D01*
X0133299Y0043926D01*
X0133281Y0043812D01*
X0133259Y0043699D01*
X0133233Y0043586D01*
X0133203Y0043475D01*
X0133169Y0043365D01*
X0133132Y0043255D01*
X0133091Y0043148D01*
X0133046Y0043041D01*
X0132998Y0042937D01*
X0132946Y0042833D01*
X0132891Y0042732D01*
X0132832Y0042633D01*
X0132771Y0042535D01*
X0132705Y0042440D01*
X0132637Y0042347D01*
X0132566Y0042257D01*
X0132491Y0042169D01*
X0132414Y0042083D01*
X0132334Y0042000D01*
X0132251Y0041920D01*
X0132165Y0041843D01*
X0132077Y0041768D01*
X0131987Y0041697D01*
X0131894Y0041629D01*
X0131799Y0041563D01*
X0131701Y0041502D01*
X0131602Y0041443D01*
X0131501Y0041388D01*
X0131397Y0041336D01*
X0131293Y0041288D01*
X0131186Y0041243D01*
X0131079Y0041202D01*
X0130969Y0041165D01*
X0130859Y0041131D01*
X0130748Y0041101D01*
X0130635Y0041075D01*
X0130522Y0041053D01*
X0130408Y0041035D01*
X0130294Y0041020D01*
X0130179Y0041009D01*
X0130064Y0041002D01*
X0129949Y0040999D01*
X0129834Y0041000D01*
X0129833Y0041000D02*
X0120333Y0041000D01*
X0141129Y0037535D02*
X0141129Y0011945D01*
X0185223Y0011945D01*
X0185223Y0008008D01*
X0141129Y0008008D01*
X0141129Y0011945D01*
X0141129Y0037535D02*
X0185223Y0037535D01*
X0185223Y0011945D01*
X0192833Y0014500D02*
X0195333Y0012000D01*
X0200333Y0012000D01*
X0202833Y0014500D01*
X0205333Y0012000D01*
X0210333Y0012000D01*
X0212833Y0014500D01*
X0215333Y0012000D01*
X0220333Y0012000D01*
X0222833Y0014500D01*
X0225333Y0012000D01*
X0230333Y0012000D01*
X0232833Y0014500D01*
X0235333Y0012000D01*
X0240333Y0012000D01*
X0242833Y0014500D01*
X0245333Y0012000D01*
X0250333Y0012000D01*
X0252833Y0014500D01*
X0252833Y0019500D01*
X0250333Y0022000D01*
X0245333Y0022000D01*
X0242833Y0019500D01*
X0240333Y0022000D01*
X0235333Y0022000D01*
X0232833Y0019500D01*
X0230333Y0022000D01*
X0225333Y0022000D01*
X0222833Y0019500D01*
X0220333Y0022000D01*
X0215333Y0022000D01*
X0212833Y0019500D01*
X0210333Y0022000D01*
X0205333Y0022000D01*
X0202833Y0019500D01*
X0200333Y0022000D01*
X0195333Y0022000D01*
X0192833Y0019500D01*
X0192833Y0014500D01*
X0201333Y0041000D02*
X0201333Y0042000D01*
X0201333Y0041000D02*
X0225333Y0041000D01*
X0225333Y0042000D01*
X0242881Y0040000D02*
X0244460Y0040000D01*
X0245087Y0034500D02*
X0261579Y0034500D01*
X0262206Y0040000D02*
X0263786Y0040000D01*
X0254460Y0040000D02*
X0252206Y0040000D01*
X0279770Y0056000D02*
X0291896Y0056000D01*
X0295833Y0061118D02*
X0295833Y0070882D01*
X0291896Y0076000D02*
X0279770Y0076000D01*
X0275833Y0071000D02*
X0275833Y0061118D01*
X0268333Y0063500D02*
X0268333Y0078500D01*
X0265833Y0081000D01*
X0260833Y0081000D01*
X0258333Y0078500D01*
X0258333Y0063500D01*
X0260833Y0061000D01*
X0265833Y0061000D01*
X0268333Y0063500D01*
X0258333Y0063500D02*
X0255833Y0061000D01*
X0250833Y0061000D01*
X0248333Y0063500D01*
X0248333Y0078500D01*
X0250833Y0081000D01*
X0255833Y0081000D01*
X0258333Y0078500D01*
X0248333Y0078500D02*
X0245833Y0081000D01*
X0240833Y0081000D01*
X0238333Y0078500D01*
X0238333Y0063500D01*
X0240833Y0061000D01*
X0245833Y0061000D01*
X0248333Y0063500D01*
X0245833Y0059681D02*
X0240833Y0059681D01*
X0280833Y0066000D02*
X0280835Y0066141D01*
X0280841Y0066282D01*
X0280851Y0066422D01*
X0280865Y0066562D01*
X0280883Y0066702D01*
X0280904Y0066841D01*
X0280930Y0066980D01*
X0280959Y0067118D01*
X0280993Y0067254D01*
X0281030Y0067390D01*
X0281071Y0067525D01*
X0281116Y0067659D01*
X0281165Y0067791D01*
X0281217Y0067922D01*
X0281273Y0068051D01*
X0281333Y0068178D01*
X0281396Y0068304D01*
X0281462Y0068428D01*
X0281533Y0068551D01*
X0281606Y0068671D01*
X0281683Y0068789D01*
X0281763Y0068905D01*
X0281847Y0069018D01*
X0281933Y0069129D01*
X0282023Y0069238D01*
X0282116Y0069344D01*
X0282211Y0069447D01*
X0282310Y0069548D01*
X0282411Y0069646D01*
X0282515Y0069741D01*
X0282622Y0069833D01*
X0282731Y0069922D01*
X0282843Y0070007D01*
X0282957Y0070090D01*
X0283073Y0070170D01*
X0283192Y0070246D01*
X0283313Y0070318D01*
X0283435Y0070388D01*
X0283560Y0070453D01*
X0283686Y0070516D01*
X0283814Y0070574D01*
X0283944Y0070629D01*
X0284075Y0070681D01*
X0284208Y0070728D01*
X0284342Y0070772D01*
X0284477Y0070813D01*
X0284613Y0070849D01*
X0284750Y0070881D01*
X0284888Y0070910D01*
X0285026Y0070935D01*
X0285166Y0070955D01*
X0285306Y0070972D01*
X0285446Y0070985D01*
X0285587Y0070994D01*
X0285727Y0070999D01*
X0285868Y0071000D01*
X0286009Y0070997D01*
X0286150Y0070990D01*
X0286290Y0070979D01*
X0286430Y0070964D01*
X0286570Y0070945D01*
X0286709Y0070923D01*
X0286847Y0070896D01*
X0286985Y0070866D01*
X0287121Y0070831D01*
X0287257Y0070793D01*
X0287391Y0070751D01*
X0287525Y0070705D01*
X0287657Y0070656D01*
X0287787Y0070602D01*
X0287916Y0070545D01*
X0288043Y0070485D01*
X0288169Y0070421D01*
X0288292Y0070353D01*
X0288414Y0070282D01*
X0288534Y0070208D01*
X0288651Y0070130D01*
X0288766Y0070049D01*
X0288879Y0069965D01*
X0288990Y0069878D01*
X0289098Y0069787D01*
X0289203Y0069694D01*
X0289306Y0069597D01*
X0289406Y0069498D01*
X0289503Y0069396D01*
X0289597Y0069291D01*
X0289688Y0069184D01*
X0289776Y0069074D01*
X0289861Y0068962D01*
X0289943Y0068847D01*
X0290022Y0068730D01*
X0290097Y0068611D01*
X0290169Y0068490D01*
X0290237Y0068367D01*
X0290302Y0068242D01*
X0290364Y0068115D01*
X0290421Y0067986D01*
X0290476Y0067856D01*
X0290526Y0067725D01*
X0290573Y0067592D01*
X0290616Y0067458D01*
X0290655Y0067322D01*
X0290690Y0067186D01*
X0290722Y0067049D01*
X0290749Y0066911D01*
X0290773Y0066772D01*
X0290793Y0066632D01*
X0290809Y0066492D01*
X0290821Y0066352D01*
X0290829Y0066211D01*
X0290833Y0066070D01*
X0290833Y0065930D01*
X0290829Y0065789D01*
X0290821Y0065648D01*
X0290809Y0065508D01*
X0290793Y0065368D01*
X0290773Y0065228D01*
X0290749Y0065089D01*
X0290722Y0064951D01*
X0290690Y0064814D01*
X0290655Y0064678D01*
X0290616Y0064542D01*
X0290573Y0064408D01*
X0290526Y0064275D01*
X0290476Y0064144D01*
X0290421Y0064014D01*
X0290364Y0063885D01*
X0290302Y0063758D01*
X0290237Y0063633D01*
X0290169Y0063510D01*
X0290097Y0063389D01*
X0290022Y0063270D01*
X0289943Y0063153D01*
X0289861Y0063038D01*
X0289776Y0062926D01*
X0289688Y0062816D01*
X0289597Y0062709D01*
X0289503Y0062604D01*
X0289406Y0062502D01*
X0289306Y0062403D01*
X0289203Y0062306D01*
X0289098Y0062213D01*
X0288990Y0062122D01*
X0288879Y0062035D01*
X0288766Y0061951D01*
X0288651Y0061870D01*
X0288534Y0061792D01*
X0288414Y0061718D01*
X0288292Y0061647D01*
X0288169Y0061579D01*
X0288043Y0061515D01*
X0287916Y0061455D01*
X0287787Y0061398D01*
X0287657Y0061344D01*
X0287525Y0061295D01*
X0287391Y0061249D01*
X0287257Y0061207D01*
X0287121Y0061169D01*
X0286985Y0061134D01*
X0286847Y0061104D01*
X0286709Y0061077D01*
X0286570Y0061055D01*
X0286430Y0061036D01*
X0286290Y0061021D01*
X0286150Y0061010D01*
X0286009Y0061003D01*
X0285868Y0061000D01*
X0285727Y0061001D01*
X0285587Y0061006D01*
X0285446Y0061015D01*
X0285306Y0061028D01*
X0285166Y0061045D01*
X0285026Y0061065D01*
X0284888Y0061090D01*
X0284750Y0061119D01*
X0284613Y0061151D01*
X0284477Y0061187D01*
X0284342Y0061228D01*
X0284208Y0061272D01*
X0284075Y0061319D01*
X0283944Y0061371D01*
X0283814Y0061426D01*
X0283686Y0061484D01*
X0283560Y0061547D01*
X0283435Y0061612D01*
X0283313Y0061682D01*
X0283192Y0061754D01*
X0283073Y0061830D01*
X0282957Y0061910D01*
X0282843Y0061993D01*
X0282731Y0062078D01*
X0282622Y0062167D01*
X0282515Y0062259D01*
X0282411Y0062354D01*
X0282310Y0062452D01*
X0282211Y0062553D01*
X0282116Y0062656D01*
X0282023Y0062762D01*
X0281933Y0062871D01*
X0281847Y0062982D01*
X0281763Y0063095D01*
X0281683Y0063211D01*
X0281606Y0063329D01*
X0281533Y0063449D01*
X0281462Y0063572D01*
X0281396Y0063696D01*
X0281333Y0063822D01*
X0281273Y0063949D01*
X0281217Y0064078D01*
X0281165Y0064209D01*
X0281116Y0064341D01*
X0281071Y0064475D01*
X0281030Y0064610D01*
X0280993Y0064746D01*
X0280959Y0064882D01*
X0280930Y0065020D01*
X0280904Y0065159D01*
X0280883Y0065298D01*
X0280865Y0065438D01*
X0280851Y0065578D01*
X0280841Y0065718D01*
X0280835Y0065859D01*
X0280833Y0066000D01*
D12*
X0110830Y0050250D02*
X0110079Y0051001D01*
X0110079Y0052502D01*
X0110830Y0053253D01*
X0113833Y0053253D01*
X0114583Y0052502D01*
X0114583Y0051001D01*
X0113833Y0050250D01*
X0110830Y0050250D01*
X0113082Y0051751D02*
X0114583Y0053253D01*
X0114583Y0054854D02*
X0114583Y0057856D01*
X0114583Y0056355D02*
X0110079Y0056355D01*
X0111581Y0054854D01*
X0169533Y0117342D02*
X0170283Y0118093D01*
X0170283Y0118843D01*
X0169533Y0119594D01*
X0165779Y0119594D01*
X0165779Y0118843D02*
X0165779Y0120345D01*
X0167281Y0121946D02*
X0165779Y0123447D01*
X0170283Y0123447D01*
X0170283Y0121946D02*
X0170283Y0124949D01*
X0129633Y0145764D02*
X0129633Y0166236D01*
X0117034Y0166236D02*
X0117034Y0145764D01*
X0265085Y0088254D02*
X0266586Y0088254D01*
X0265835Y0088254D02*
X0265835Y0084501D01*
X0265085Y0083750D01*
X0264334Y0083750D01*
X0263583Y0084501D01*
X0268187Y0084501D02*
X0268938Y0083750D01*
X0270439Y0083750D01*
X0271190Y0084501D01*
X0271190Y0085251D01*
X0270439Y0086002D01*
X0269689Y0086002D01*
X0270439Y0086002D02*
X0271190Y0086753D01*
X0271190Y0087503D01*
X0270439Y0088254D01*
X0268938Y0088254D01*
X0268187Y0087503D01*
X0276379Y0087451D02*
X0276379Y0088953D01*
X0276379Y0088202D02*
X0280133Y0088202D01*
X0280883Y0087451D01*
X0280883Y0086701D01*
X0280133Y0085950D01*
X0280883Y0090554D02*
X0277881Y0093556D01*
X0277130Y0093556D01*
X0276379Y0092806D01*
X0276379Y0091305D01*
X0277130Y0090554D01*
X0280883Y0090554D02*
X0280883Y0093556D01*
X0224639Y0008954D02*
X0222387Y0006702D01*
X0225390Y0006702D01*
X0224639Y0004450D02*
X0224639Y0008954D01*
X0220786Y0008954D02*
X0219285Y0008954D01*
X0220035Y0008954D02*
X0220035Y0005201D01*
X0219285Y0004450D01*
X0218534Y0004450D01*
X0217783Y0005201D01*
D13*
X0247955Y0153157D02*
X0252559Y0153157D01*
X0252559Y0156226D01*
X0252559Y0157761D02*
X0252559Y0160830D01*
X0252559Y0162365D02*
X0247955Y0162365D01*
X0247955Y0164666D01*
X0248722Y0165434D01*
X0251791Y0165434D01*
X0252559Y0164666D01*
X0252559Y0162365D01*
X0250257Y0159295D02*
X0250257Y0157761D01*
X0247955Y0157761D02*
X0252559Y0157761D01*
X0247955Y0157761D02*
X0247955Y0160830D01*
X0249489Y0166968D02*
X0247955Y0168503D01*
X0252559Y0168503D01*
X0252559Y0166968D02*
X0252559Y0170038D01*
X0272955Y0169270D02*
X0272955Y0167736D01*
X0273722Y0166968D01*
X0273722Y0165434D02*
X0272955Y0164666D01*
X0272955Y0162365D01*
X0277559Y0162365D01*
X0277559Y0164666D01*
X0276791Y0165434D01*
X0273722Y0165434D01*
X0277559Y0166968D02*
X0274489Y0170038D01*
X0273722Y0170038D01*
X0272955Y0169270D01*
X0277559Y0170038D02*
X0277559Y0166968D01*
X0277559Y0160830D02*
X0277559Y0157761D01*
X0272955Y0157761D01*
X0272955Y0160830D01*
X0275257Y0159295D02*
X0275257Y0157761D01*
X0277559Y0156226D02*
X0277559Y0153157D01*
X0272955Y0153157D01*
D14*
X0118333Y0061000D03*
D15*
X0265933Y0045001D02*
X0265933Y0043834D01*
X0266167Y0043600D01*
X0266634Y0043600D01*
X0266867Y0043834D01*
X0266867Y0045001D01*
X0267407Y0044768D02*
X0267640Y0045001D01*
X0268107Y0045001D01*
X0268341Y0044768D01*
X0268341Y0044534D01*
X0267407Y0043600D01*
X0268341Y0043600D01*
X0215266Y0166680D02*
X0213431Y0166680D01*
X0213431Y0168148D02*
X0215266Y0168148D01*
X0215633Y0167781D01*
X0215633Y0167047D01*
X0215266Y0166680D01*
X0215633Y0168890D02*
X0215633Y0170358D01*
X0215633Y0169624D02*
X0213431Y0169624D01*
X0214165Y0168890D01*
D16*
X0250094Y0051365D02*
X0250306Y0050677D01*
X0250305Y0050677D02*
X0250070Y0050601D01*
X0249836Y0050518D01*
X0249604Y0050430D01*
X0249375Y0050336D01*
X0249148Y0050236D01*
X0248924Y0050131D01*
X0248702Y0050021D01*
X0248483Y0049905D01*
X0248266Y0049783D01*
X0248053Y0049657D01*
X0247843Y0049525D01*
X0247636Y0049389D01*
X0247433Y0049247D01*
X0247233Y0049100D01*
X0247037Y0048949D01*
X0246845Y0048792D01*
X0246656Y0048631D01*
X0246472Y0048466D01*
X0246291Y0048296D01*
X0246115Y0048122D01*
X0245943Y0047943D01*
X0245776Y0047761D01*
X0245613Y0047574D01*
X0245454Y0047383D01*
X0245301Y0047189D01*
X0245152Y0046990D01*
X0245008Y0046789D01*
X0244869Y0046583D01*
X0244735Y0046375D01*
X0244606Y0046163D01*
X0244482Y0045948D01*
X0244364Y0045730D01*
X0244251Y0045510D01*
X0244144Y0045286D01*
X0244042Y0045061D01*
X0243945Y0044832D01*
X0243854Y0044602D01*
X0243769Y0044369D01*
X0243690Y0044134D01*
X0243616Y0043897D01*
X0243548Y0043659D01*
X0243486Y0043419D01*
X0243430Y0043178D01*
X0243379Y0042935D01*
X0243335Y0042691D01*
X0243297Y0042446D01*
X0243264Y0042200D01*
X0243238Y0041954D01*
X0243218Y0041707D01*
X0243203Y0041460D01*
X0243195Y0041212D01*
X0243193Y0040964D01*
X0243197Y0040716D01*
X0243207Y0040468D01*
X0243223Y0040221D01*
X0243245Y0039974D01*
X0243273Y0039728D01*
X0243307Y0039482D01*
X0243347Y0039238D01*
X0243393Y0038994D01*
X0243445Y0038752D01*
X0243503Y0038511D01*
X0243567Y0038271D01*
X0243637Y0038034D01*
X0243712Y0037797D01*
X0243793Y0037563D01*
X0243880Y0037331D01*
X0243973Y0037101D01*
X0244071Y0036873D01*
X0244174Y0036648D01*
X0244283Y0036426D01*
X0244398Y0036206D01*
X0244518Y0035989D01*
X0244643Y0035775D01*
X0244773Y0035564D01*
X0244909Y0035357D01*
X0245049Y0035152D01*
X0245194Y0034952D01*
X0245345Y0034754D01*
X0244780Y0034309D01*
X0244779Y0034309D01*
X0244618Y0034520D01*
X0244462Y0034735D01*
X0244312Y0034954D01*
X0244167Y0035176D01*
X0244027Y0035402D01*
X0243893Y0035631D01*
X0243765Y0035863D01*
X0243642Y0036099D01*
X0243525Y0036337D01*
X0243414Y0036579D01*
X0243309Y0036822D01*
X0243210Y0037069D01*
X0243116Y0037317D01*
X0243029Y0037568D01*
X0242949Y0037821D01*
X0242874Y0038076D01*
X0242806Y0038333D01*
X0242744Y0038591D01*
X0242688Y0038850D01*
X0242638Y0039111D01*
X0242596Y0039373D01*
X0242559Y0039636D01*
X0242529Y0039900D01*
X0242505Y0040165D01*
X0242488Y0040430D01*
X0242477Y0040695D01*
X0242473Y0040960D01*
X0242475Y0041226D01*
X0242484Y0041491D01*
X0242499Y0041757D01*
X0242521Y0042021D01*
X0242549Y0042285D01*
X0242584Y0042548D01*
X0242625Y0042811D01*
X0242673Y0043072D01*
X0242726Y0043332D01*
X0242787Y0043591D01*
X0242853Y0043848D01*
X0242926Y0044103D01*
X0243005Y0044357D01*
X0243090Y0044608D01*
X0243181Y0044858D01*
X0243279Y0045105D01*
X0243382Y0045349D01*
X0243491Y0045591D01*
X0243606Y0045830D01*
X0243727Y0046067D01*
X0243854Y0046300D01*
X0243987Y0046530D01*
X0244125Y0046757D01*
X0244268Y0046981D01*
X0244417Y0047200D01*
X0244571Y0047417D01*
X0244731Y0047629D01*
X0244895Y0047837D01*
X0245065Y0048041D01*
X0245240Y0048241D01*
X0245419Y0048437D01*
X0245603Y0048628D01*
X0245792Y0048815D01*
X0245986Y0048997D01*
X0246183Y0049174D01*
X0246385Y0049347D01*
X0246591Y0049514D01*
X0246802Y0049676D01*
X0247016Y0049834D01*
X0247234Y0049985D01*
X0247455Y0050132D01*
X0247680Y0050273D01*
X0247908Y0050408D01*
X0248140Y0050538D01*
X0248375Y0050662D01*
X0248613Y0050780D01*
X0248853Y0050893D01*
X0249096Y0051000D01*
X0249342Y0051100D01*
X0249590Y0051195D01*
X0249841Y0051283D01*
X0250093Y0051365D01*
X0250115Y0051294D01*
X0249864Y0051212D01*
X0249616Y0051124D01*
X0249369Y0051030D01*
X0249125Y0050930D01*
X0248884Y0050825D01*
X0248645Y0050713D01*
X0248409Y0050595D01*
X0248176Y0050472D01*
X0247946Y0050343D01*
X0247719Y0050209D01*
X0247495Y0050069D01*
X0247276Y0049923D01*
X0247059Y0049772D01*
X0246847Y0049616D01*
X0246638Y0049455D01*
X0246433Y0049289D01*
X0246233Y0049118D01*
X0246036Y0048942D01*
X0245844Y0048761D01*
X0245657Y0048576D01*
X0245474Y0048386D01*
X0245296Y0048191D01*
X0245122Y0047993D01*
X0244954Y0047790D01*
X0244790Y0047583D01*
X0244632Y0047372D01*
X0244479Y0047158D01*
X0244331Y0046939D01*
X0244188Y0046717D01*
X0244051Y0046492D01*
X0243920Y0046263D01*
X0243794Y0046032D01*
X0243674Y0045797D01*
X0243559Y0045559D01*
X0243451Y0045319D01*
X0243348Y0045076D01*
X0243251Y0044831D01*
X0243161Y0044583D01*
X0243076Y0044334D01*
X0242998Y0044082D01*
X0242925Y0043828D01*
X0242859Y0043573D01*
X0242800Y0043316D01*
X0242746Y0043058D01*
X0242699Y0042798D01*
X0242658Y0042538D01*
X0242624Y0042276D01*
X0242596Y0042014D01*
X0242574Y0041751D01*
X0242559Y0041488D01*
X0242550Y0041225D01*
X0242548Y0040961D01*
X0242552Y0040697D01*
X0242563Y0040434D01*
X0242580Y0040171D01*
X0242603Y0039908D01*
X0242633Y0039646D01*
X0242670Y0039385D01*
X0242712Y0039125D01*
X0242761Y0038865D01*
X0242817Y0038608D01*
X0242878Y0038351D01*
X0242946Y0038096D01*
X0243020Y0037843D01*
X0243101Y0037592D01*
X0243187Y0037343D01*
X0243279Y0037096D01*
X0243378Y0036851D01*
X0243482Y0036609D01*
X0243593Y0036370D01*
X0243709Y0036133D01*
X0243831Y0035899D01*
X0243958Y0035668D01*
X0244091Y0035441D01*
X0244230Y0035216D01*
X0244374Y0034996D01*
X0244523Y0034778D01*
X0244678Y0034565D01*
X0244838Y0034355D01*
X0244897Y0034402D01*
X0244738Y0034610D01*
X0244585Y0034822D01*
X0244436Y0035038D01*
X0244293Y0035257D01*
X0244155Y0035480D01*
X0244023Y0035706D01*
X0243896Y0035935D01*
X0243775Y0036167D01*
X0243660Y0036402D01*
X0243551Y0036640D01*
X0243447Y0036880D01*
X0243349Y0037123D01*
X0243257Y0037369D01*
X0243172Y0037616D01*
X0243092Y0037865D01*
X0243018Y0038117D01*
X0242951Y0038370D01*
X0242890Y0038624D01*
X0242835Y0038880D01*
X0242786Y0039138D01*
X0242744Y0039396D01*
X0242708Y0039655D01*
X0242678Y0039916D01*
X0242655Y0040176D01*
X0242638Y0040438D01*
X0242627Y0040699D01*
X0242623Y0040961D01*
X0242625Y0041223D01*
X0242634Y0041485D01*
X0242649Y0041746D01*
X0242670Y0042007D01*
X0242698Y0042268D01*
X0242732Y0042527D01*
X0242773Y0042786D01*
X0242820Y0043044D01*
X0242873Y0043300D01*
X0242932Y0043555D01*
X0242998Y0043808D01*
X0243070Y0044060D01*
X0243147Y0044310D01*
X0243231Y0044558D01*
X0243321Y0044804D01*
X0243417Y0045048D01*
X0243519Y0045289D01*
X0243627Y0045528D01*
X0243741Y0045764D01*
X0243860Y0045997D01*
X0243985Y0046227D01*
X0244116Y0046454D01*
X0244252Y0046678D01*
X0244393Y0046898D01*
X0244540Y0047115D01*
X0244692Y0047328D01*
X0244849Y0047537D01*
X0245012Y0047743D01*
X0245179Y0047944D01*
X0245351Y0048141D01*
X0245528Y0048334D01*
X0245710Y0048523D01*
X0245896Y0048707D01*
X0246087Y0048887D01*
X0246282Y0049061D01*
X0246481Y0049231D01*
X0246684Y0049396D01*
X0246892Y0049556D01*
X0247103Y0049711D01*
X0247317Y0049861D01*
X0247536Y0050005D01*
X0247758Y0050144D01*
X0247983Y0050278D01*
X0248211Y0050406D01*
X0248443Y0050528D01*
X0248677Y0050645D01*
X0248915Y0050756D01*
X0249154Y0050861D01*
X0249397Y0050960D01*
X0249641Y0051054D01*
X0249888Y0051141D01*
X0250137Y0051222D01*
X0250159Y0051150D01*
X0249912Y0051070D01*
X0249667Y0050983D01*
X0249424Y0050891D01*
X0249183Y0050792D01*
X0248945Y0050688D01*
X0248710Y0050578D01*
X0248477Y0050462D01*
X0248247Y0050340D01*
X0248020Y0050213D01*
X0247797Y0050080D01*
X0247576Y0049942D01*
X0247359Y0049799D01*
X0247146Y0049650D01*
X0246937Y0049496D01*
X0246731Y0049337D01*
X0246529Y0049174D01*
X0246331Y0049005D01*
X0246137Y0048831D01*
X0245948Y0048653D01*
X0245763Y0048470D01*
X0245583Y0048283D01*
X0245407Y0048091D01*
X0245236Y0047895D01*
X0245070Y0047695D01*
X0244909Y0047491D01*
X0244753Y0047283D01*
X0244602Y0047072D01*
X0244456Y0046856D01*
X0244315Y0046638D01*
X0244180Y0046416D01*
X0244050Y0046190D01*
X0243926Y0045962D01*
X0243808Y0045730D01*
X0243695Y0045496D01*
X0243588Y0045259D01*
X0243487Y0045019D01*
X0243392Y0044778D01*
X0243302Y0044533D01*
X0243219Y0044287D01*
X0243141Y0044039D01*
X0243070Y0043789D01*
X0243005Y0043537D01*
X0242946Y0043284D01*
X0242893Y0043029D01*
X0242847Y0042773D01*
X0242807Y0042517D01*
X0242773Y0042259D01*
X0242745Y0042000D01*
X0242724Y0041741D01*
X0242709Y0041481D01*
X0242700Y0041222D01*
X0242698Y0040962D01*
X0242702Y0040702D01*
X0242713Y0040442D01*
X0242729Y0040182D01*
X0242753Y0039923D01*
X0242782Y0039665D01*
X0242818Y0039407D01*
X0242860Y0039151D01*
X0242908Y0038895D01*
X0242963Y0038641D01*
X0243024Y0038388D01*
X0243091Y0038137D01*
X0243164Y0037888D01*
X0243243Y0037640D01*
X0243328Y0037394D01*
X0243419Y0037151D01*
X0243516Y0036909D01*
X0243619Y0036671D01*
X0243728Y0036435D01*
X0243842Y0036201D01*
X0243962Y0035970D01*
X0244088Y0035743D01*
X0244220Y0035518D01*
X0244356Y0035297D01*
X0244498Y0035080D01*
X0244646Y0034865D01*
X0244798Y0034655D01*
X0244956Y0034448D01*
X0245015Y0034494D01*
X0244858Y0034700D01*
X0244707Y0034909D01*
X0244560Y0035122D01*
X0244419Y0035338D01*
X0244284Y0035557D01*
X0244153Y0035780D01*
X0244028Y0036006D01*
X0243909Y0036235D01*
X0243795Y0036467D01*
X0243687Y0036701D01*
X0243585Y0036938D01*
X0243489Y0037178D01*
X0243398Y0037420D01*
X0243314Y0037664D01*
X0243235Y0037910D01*
X0243163Y0038157D01*
X0243096Y0038407D01*
X0243036Y0038658D01*
X0242982Y0038910D01*
X0242934Y0039164D01*
X0242892Y0039419D01*
X0242857Y0039675D01*
X0242827Y0039931D01*
X0242804Y0040188D01*
X0242788Y0040446D01*
X0242777Y0040704D01*
X0242773Y0040962D01*
X0242775Y0041220D01*
X0242784Y0041478D01*
X0242799Y0041736D01*
X0242820Y0041993D01*
X0242847Y0042250D01*
X0242881Y0042506D01*
X0242921Y0042761D01*
X0242967Y0043015D01*
X0243019Y0043268D01*
X0243078Y0043519D01*
X0243143Y0043769D01*
X0243213Y0044017D01*
X0243290Y0044264D01*
X0243373Y0044508D01*
X0243462Y0044751D01*
X0243556Y0044991D01*
X0243657Y0045229D01*
X0243763Y0045464D01*
X0243875Y0045697D01*
X0243993Y0045927D01*
X0244116Y0046154D01*
X0244245Y0046377D01*
X0244379Y0046598D01*
X0244518Y0046815D01*
X0244663Y0047029D01*
X0244813Y0047239D01*
X0244968Y0047445D01*
X0245128Y0047648D01*
X0245293Y0047847D01*
X0245463Y0048041D01*
X0245637Y0048231D01*
X0245817Y0048417D01*
X0246000Y0048599D01*
X0246188Y0048776D01*
X0246380Y0048948D01*
X0246577Y0049116D01*
X0246777Y0049279D01*
X0246981Y0049436D01*
X0247190Y0049589D01*
X0247401Y0049737D01*
X0247617Y0049879D01*
X0247836Y0050016D01*
X0248058Y0050148D01*
X0248283Y0050274D01*
X0248511Y0050395D01*
X0248742Y0050510D01*
X0248976Y0050619D01*
X0249212Y0050723D01*
X0249451Y0050821D01*
X0249693Y0050913D01*
X0249936Y0050999D01*
X0250181Y0051079D01*
X0250204Y0051007D01*
X0249960Y0050928D01*
X0249718Y0050842D01*
X0249479Y0050751D01*
X0249241Y0050654D01*
X0249007Y0050551D01*
X0248775Y0050442D01*
X0248545Y0050328D01*
X0248318Y0050208D01*
X0248095Y0050083D01*
X0247874Y0049952D01*
X0247657Y0049816D01*
X0247443Y0049675D01*
X0247233Y0049528D01*
X0247026Y0049376D01*
X0246824Y0049220D01*
X0246625Y0049058D01*
X0246430Y0048892D01*
X0246239Y0048721D01*
X0246052Y0048545D01*
X0245870Y0048365D01*
X0245692Y0048180D01*
X0245519Y0047991D01*
X0245350Y0047798D01*
X0245186Y0047601D01*
X0245028Y0047400D01*
X0244874Y0047195D01*
X0244725Y0046986D01*
X0244581Y0046774D01*
X0244442Y0046558D01*
X0244309Y0046339D01*
X0244181Y0046117D01*
X0244059Y0045892D01*
X0243942Y0045663D01*
X0243831Y0045432D01*
X0243725Y0045199D01*
X0243626Y0044963D01*
X0243532Y0044724D01*
X0243444Y0044484D01*
X0243361Y0044241D01*
X0243285Y0043996D01*
X0243215Y0043750D01*
X0243151Y0043501D01*
X0243093Y0043252D01*
X0243041Y0043001D01*
X0242995Y0042748D01*
X0242955Y0042495D01*
X0242922Y0042241D01*
X0242894Y0041986D01*
X0242873Y0041731D01*
X0242859Y0041475D01*
X0242850Y0041219D01*
X0242848Y0040962D01*
X0242852Y0040706D01*
X0242862Y0040450D01*
X0242879Y0040194D01*
X0242902Y0039939D01*
X0242931Y0039684D01*
X0242966Y0039430D01*
X0243008Y0039177D01*
X0243055Y0038925D01*
X0243109Y0038675D01*
X0243169Y0038425D01*
X0243235Y0038178D01*
X0243307Y0037932D01*
X0243385Y0037688D01*
X0243469Y0037445D01*
X0243559Y0037205D01*
X0243654Y0036968D01*
X0243756Y0036732D01*
X0243863Y0036499D01*
X0243976Y0036269D01*
X0244094Y0036042D01*
X0244218Y0035817D01*
X0244348Y0035596D01*
X0244483Y0035378D01*
X0244623Y0035163D01*
X0244768Y0034952D01*
X0244918Y0034745D01*
X0245074Y0034541D01*
X0245133Y0034587D01*
X0244978Y0034790D01*
X0244829Y0034996D01*
X0244685Y0035205D01*
X0244546Y0035419D01*
X0244412Y0035635D01*
X0244283Y0035855D01*
X0244160Y0036077D01*
X0244043Y0036303D01*
X0243931Y0036532D01*
X0243824Y0036763D01*
X0243724Y0036997D01*
X0243629Y0037233D01*
X0243539Y0037471D01*
X0243456Y0037711D01*
X0243379Y0037954D01*
X0243307Y0038198D01*
X0243242Y0038444D01*
X0243182Y0038692D01*
X0243129Y0038940D01*
X0243081Y0039190D01*
X0243040Y0039442D01*
X0243005Y0039694D01*
X0242976Y0039946D01*
X0242954Y0040200D01*
X0242937Y0040454D01*
X0242927Y0040708D01*
X0242923Y0040963D01*
X0242925Y0041217D01*
X0242934Y0041471D01*
X0242948Y0041726D01*
X0242969Y0041979D01*
X0242996Y0042232D01*
X0243029Y0042485D01*
X0243069Y0042736D01*
X0243114Y0042986D01*
X0243166Y0043236D01*
X0243224Y0043483D01*
X0243287Y0043730D01*
X0243357Y0043975D01*
X0243433Y0044218D01*
X0243514Y0044459D01*
X0243602Y0044698D01*
X0243695Y0044934D01*
X0243794Y0045169D01*
X0243899Y0045401D01*
X0244009Y0045630D01*
X0244125Y0045857D01*
X0244247Y0046080D01*
X0244374Y0046301D01*
X0244506Y0046518D01*
X0244643Y0046732D01*
X0244786Y0046943D01*
X0244934Y0047150D01*
X0245087Y0047354D01*
X0245245Y0047553D01*
X0245407Y0047749D01*
X0245575Y0047941D01*
X0245747Y0048128D01*
X0245923Y0048312D01*
X0246104Y0048491D01*
X0246289Y0048665D01*
X0246479Y0048835D01*
X0246672Y0049000D01*
X0246870Y0049161D01*
X0247071Y0049316D01*
X0247277Y0049467D01*
X0247485Y0049612D01*
X0247698Y0049753D01*
X0247913Y0049888D01*
X0248132Y0050018D01*
X0248354Y0050142D01*
X0248579Y0050261D01*
X0248807Y0050375D01*
X0249037Y0050482D01*
X0249271Y0050585D01*
X0249506Y0050681D01*
X0249744Y0050772D01*
X0249984Y0050857D01*
X0250226Y0050935D01*
X0250248Y0050864D01*
X0250008Y0050785D01*
X0249769Y0050701D01*
X0249533Y0050611D01*
X0249300Y0050515D01*
X0249068Y0050414D01*
X0248839Y0050307D01*
X0248613Y0050194D01*
X0248390Y0050076D01*
X0248169Y0049953D01*
X0247952Y0049824D01*
X0247738Y0049690D01*
X0247527Y0049550D01*
X0247320Y0049406D01*
X0247116Y0049256D01*
X0246916Y0049102D01*
X0246720Y0048943D01*
X0246528Y0048779D01*
X0246340Y0048610D01*
X0246156Y0048437D01*
X0245976Y0048259D01*
X0245801Y0048077D01*
X0245630Y0047891D01*
X0245464Y0047700D01*
X0245303Y0047506D01*
X0245146Y0047308D01*
X0244994Y0047106D01*
X0244848Y0046900D01*
X0244706Y0046691D01*
X0244569Y0046478D01*
X0244438Y0046263D01*
X0244312Y0046044D01*
X0244192Y0045822D01*
X0244076Y0045597D01*
X0243967Y0045369D01*
X0243863Y0045139D01*
X0243765Y0044906D01*
X0243672Y0044671D01*
X0243585Y0044434D01*
X0243504Y0044194D01*
X0243429Y0043953D01*
X0243360Y0043710D01*
X0243296Y0043466D01*
X0243239Y0043220D01*
X0243188Y0042972D01*
X0243143Y0042724D01*
X0243104Y0042474D01*
X0243071Y0042223D01*
X0243044Y0041972D01*
X0243023Y0041720D01*
X0243009Y0041468D01*
X0243000Y0041216D01*
X0242998Y0040963D01*
X0243002Y0040710D01*
X0243012Y0040458D01*
X0243029Y0040206D01*
X0243051Y0039954D01*
X0243080Y0039703D01*
X0243114Y0039453D01*
X0243155Y0039204D01*
X0243202Y0038955D01*
X0243255Y0038708D01*
X0243314Y0038463D01*
X0243379Y0038218D01*
X0243450Y0037976D01*
X0243527Y0037735D01*
X0243610Y0037497D01*
X0243698Y0037260D01*
X0243793Y0037026D01*
X0243893Y0036794D01*
X0243998Y0036564D01*
X0244110Y0036337D01*
X0244226Y0036113D01*
X0244349Y0035892D01*
X0244476Y0035674D01*
X0244609Y0035459D01*
X0244747Y0035247D01*
X0244890Y0035039D01*
X0245038Y0034835D01*
X0245192Y0034634D01*
X0245250Y0034680D01*
X0245098Y0034880D01*
X0244951Y0035083D01*
X0244809Y0035289D01*
X0244672Y0035499D01*
X0244540Y0035713D01*
X0244414Y0035929D01*
X0244292Y0036149D01*
X0244176Y0036371D01*
X0244066Y0036596D01*
X0243961Y0036824D01*
X0243862Y0037055D01*
X0243768Y0037287D01*
X0243680Y0037522D01*
X0243598Y0037759D01*
X0243522Y0037998D01*
X0243452Y0038239D01*
X0243387Y0038481D01*
X0243328Y0038725D01*
X0243276Y0038970D01*
X0243229Y0039217D01*
X0243189Y0039464D01*
X0243154Y0039713D01*
X0243126Y0039962D01*
X0243103Y0040212D01*
X0243087Y0040462D01*
X0243077Y0040713D01*
X0243073Y0040963D01*
X0243075Y0041214D01*
X0243084Y0041465D01*
X0243098Y0041715D01*
X0243119Y0041965D01*
X0243145Y0042215D01*
X0243178Y0042463D01*
X0243217Y0042711D01*
X0243262Y0042958D01*
X0243312Y0043203D01*
X0243369Y0043448D01*
X0243432Y0043691D01*
X0243501Y0043932D01*
X0243575Y0044171D01*
X0243656Y0044409D01*
X0243742Y0044644D01*
X0243834Y0044878D01*
X0243932Y0045109D01*
X0244035Y0045337D01*
X0244144Y0045563D01*
X0244258Y0045787D01*
X0244378Y0046007D01*
X0244503Y0046224D01*
X0244633Y0046439D01*
X0244769Y0046650D01*
X0244909Y0046857D01*
X0245055Y0047061D01*
X0245206Y0047262D01*
X0245361Y0047459D01*
X0245521Y0047652D01*
X0245686Y0047841D01*
X0245856Y0048026D01*
X0246030Y0048206D01*
X0246208Y0048383D01*
X0246391Y0048555D01*
X0246577Y0048722D01*
X0246768Y0048885D01*
X0246963Y0049043D01*
X0247161Y0049196D01*
X0247364Y0049345D01*
X0247569Y0049488D01*
X0247778Y0049626D01*
X0247991Y0049760D01*
X0248207Y0049888D01*
X0248425Y0050010D01*
X0248647Y0050127D01*
X0248872Y0050239D01*
X0249099Y0050346D01*
X0249329Y0050446D01*
X0249561Y0050541D01*
X0249795Y0050631D01*
X0250032Y0050714D01*
X0250270Y0050792D01*
X0250292Y0050720D01*
X0250055Y0050643D01*
X0249821Y0050560D01*
X0249588Y0050471D01*
X0249358Y0050377D01*
X0249130Y0050277D01*
X0248904Y0050172D01*
X0248681Y0050061D01*
X0248461Y0049944D01*
X0248244Y0049822D01*
X0248030Y0049695D01*
X0247819Y0049563D01*
X0247611Y0049426D01*
X0247407Y0049284D01*
X0247206Y0049136D01*
X0247009Y0048984D01*
X0246816Y0048827D01*
X0246627Y0048665D01*
X0246441Y0048499D01*
X0246260Y0048329D01*
X0246083Y0048153D01*
X0245910Y0047974D01*
X0245742Y0047791D01*
X0245578Y0047603D01*
X0245419Y0047411D01*
X0245265Y0047216D01*
X0245115Y0047017D01*
X0244971Y0046814D01*
X0244831Y0046608D01*
X0244697Y0046399D01*
X0244567Y0046186D01*
X0244443Y0045970D01*
X0244324Y0045751D01*
X0244211Y0045530D01*
X0244103Y0045306D01*
X0244000Y0045079D01*
X0243903Y0044849D01*
X0243812Y0044618D01*
X0243727Y0044384D01*
X0243647Y0044148D01*
X0243573Y0043910D01*
X0243504Y0043671D01*
X0243442Y0043430D01*
X0243386Y0043187D01*
X0243335Y0042944D01*
X0243291Y0042699D01*
X0243252Y0042453D01*
X0243220Y0042206D01*
X0243193Y0041958D01*
X0243173Y0041710D01*
X0243158Y0041462D01*
X0243150Y0041213D01*
X0243148Y0040964D01*
X0243152Y0040715D01*
X0243162Y0040466D01*
X0243178Y0040218D01*
X0243200Y0039970D01*
X0243228Y0039722D01*
X0243263Y0039476D01*
X0243303Y0039230D01*
X0243349Y0038985D01*
X0243401Y0038742D01*
X0243460Y0038500D01*
X0243524Y0038259D01*
X0243594Y0038020D01*
X0243669Y0037783D01*
X0243751Y0037548D01*
X0243838Y0037315D01*
X0243931Y0037084D01*
X0244030Y0036855D01*
X0244134Y0036629D01*
X0244243Y0036405D01*
X0244358Y0036185D01*
X0244479Y0035967D01*
X0244604Y0035752D01*
X0244735Y0035540D01*
X0244871Y0035331D01*
X0245012Y0035126D01*
X0245158Y0034925D01*
X0245309Y0034727D01*
X0261886Y0034309D02*
X0261321Y0034755D01*
X0261321Y0034754D02*
X0261471Y0034951D01*
X0261617Y0035152D01*
X0261757Y0035356D01*
X0261893Y0035564D01*
X0262023Y0035775D01*
X0262148Y0035989D01*
X0262268Y0036206D01*
X0262383Y0036426D01*
X0262492Y0036648D01*
X0262595Y0036873D01*
X0262693Y0037101D01*
X0262786Y0037331D01*
X0262873Y0037563D01*
X0262954Y0037797D01*
X0263029Y0038033D01*
X0263099Y0038271D01*
X0263163Y0038511D01*
X0263221Y0038752D01*
X0263273Y0038994D01*
X0263319Y0039238D01*
X0263359Y0039482D01*
X0263393Y0039728D01*
X0263421Y0039974D01*
X0263443Y0040221D01*
X0263459Y0040468D01*
X0263469Y0040716D01*
X0263473Y0040964D01*
X0263471Y0041212D01*
X0263463Y0041459D01*
X0263448Y0041707D01*
X0263428Y0041954D01*
X0263402Y0042200D01*
X0263369Y0042446D01*
X0263331Y0042691D01*
X0263287Y0042935D01*
X0263236Y0043178D01*
X0263180Y0043419D01*
X0263118Y0043659D01*
X0263050Y0043897D01*
X0262977Y0044134D01*
X0262897Y0044369D01*
X0262812Y0044602D01*
X0262721Y0044832D01*
X0262625Y0045060D01*
X0262522Y0045286D01*
X0262415Y0045510D01*
X0262302Y0045730D01*
X0262184Y0045948D01*
X0262060Y0046163D01*
X0261931Y0046375D01*
X0261797Y0046583D01*
X0261658Y0046789D01*
X0261514Y0046990D01*
X0261366Y0047188D01*
X0261212Y0047383D01*
X0261054Y0047574D01*
X0260891Y0047760D01*
X0260723Y0047943D01*
X0260551Y0048122D01*
X0260375Y0048296D01*
X0260194Y0048466D01*
X0260010Y0048631D01*
X0259821Y0048792D01*
X0259629Y0048949D01*
X0259433Y0049100D01*
X0259233Y0049247D01*
X0259030Y0049389D01*
X0258823Y0049525D01*
X0258613Y0049657D01*
X0258400Y0049783D01*
X0258184Y0049905D01*
X0257964Y0050020D01*
X0257743Y0050131D01*
X0257518Y0050236D01*
X0257291Y0050336D01*
X0257062Y0050430D01*
X0256830Y0050518D01*
X0256596Y0050601D01*
X0256361Y0050677D01*
X0256573Y0051365D01*
X0256826Y0051283D01*
X0257076Y0051195D01*
X0257324Y0051100D01*
X0257570Y0050999D01*
X0257813Y0050893D01*
X0258054Y0050780D01*
X0258291Y0050662D01*
X0258526Y0050538D01*
X0258758Y0050408D01*
X0258986Y0050273D01*
X0259211Y0050132D01*
X0259433Y0049985D01*
X0259650Y0049833D01*
X0259864Y0049676D01*
X0260075Y0049514D01*
X0260281Y0049347D01*
X0260483Y0049174D01*
X0260681Y0048997D01*
X0260874Y0048815D01*
X0261063Y0048628D01*
X0261247Y0048437D01*
X0261426Y0048241D01*
X0261601Y0048041D01*
X0261771Y0047837D01*
X0261935Y0047629D01*
X0262095Y0047416D01*
X0262249Y0047200D01*
X0262398Y0046980D01*
X0262541Y0046757D01*
X0262679Y0046530D01*
X0262812Y0046300D01*
X0262939Y0046067D01*
X0263060Y0045830D01*
X0263175Y0045591D01*
X0263284Y0045349D01*
X0263388Y0045104D01*
X0263485Y0044857D01*
X0263576Y0044608D01*
X0263661Y0044357D01*
X0263740Y0044103D01*
X0263813Y0043848D01*
X0263879Y0043591D01*
X0263940Y0043332D01*
X0263994Y0043072D01*
X0264041Y0042811D01*
X0264082Y0042548D01*
X0264117Y0042285D01*
X0264145Y0042021D01*
X0264167Y0041756D01*
X0264182Y0041491D01*
X0264191Y0041226D01*
X0264193Y0040960D01*
X0264189Y0040695D01*
X0264178Y0040429D01*
X0264161Y0040165D01*
X0264137Y0039900D01*
X0264107Y0039636D01*
X0264070Y0039373D01*
X0264027Y0039111D01*
X0263978Y0038850D01*
X0263922Y0038591D01*
X0263860Y0038332D01*
X0263792Y0038076D01*
X0263717Y0037821D01*
X0263636Y0037568D01*
X0263549Y0037317D01*
X0263456Y0037069D01*
X0263357Y0036822D01*
X0263252Y0036578D01*
X0263141Y0036337D01*
X0263024Y0036099D01*
X0262901Y0035863D01*
X0262773Y0035631D01*
X0262639Y0035402D01*
X0262499Y0035176D01*
X0262354Y0034953D01*
X0262203Y0034735D01*
X0262048Y0034520D01*
X0261887Y0034309D01*
X0261828Y0034355D01*
X0261988Y0034565D01*
X0262142Y0034778D01*
X0262292Y0034995D01*
X0262436Y0035216D01*
X0262575Y0035441D01*
X0262708Y0035668D01*
X0262835Y0035899D01*
X0262957Y0036133D01*
X0263073Y0036370D01*
X0263184Y0036609D01*
X0263288Y0036851D01*
X0263387Y0037096D01*
X0263479Y0037343D01*
X0263565Y0037592D01*
X0263646Y0037843D01*
X0263720Y0038096D01*
X0263788Y0038351D01*
X0263849Y0038607D01*
X0263905Y0038865D01*
X0263954Y0039124D01*
X0263996Y0039385D01*
X0264033Y0039646D01*
X0264063Y0039908D01*
X0264086Y0040170D01*
X0264103Y0040434D01*
X0264114Y0040697D01*
X0264118Y0040961D01*
X0264116Y0041224D01*
X0264107Y0041488D01*
X0264092Y0041751D01*
X0264070Y0042014D01*
X0264042Y0042276D01*
X0264008Y0042538D01*
X0263967Y0042798D01*
X0263920Y0043058D01*
X0263866Y0043316D01*
X0263807Y0043573D01*
X0263741Y0043828D01*
X0263668Y0044082D01*
X0263590Y0044333D01*
X0263505Y0044583D01*
X0263415Y0044831D01*
X0263318Y0045076D01*
X0263215Y0045319D01*
X0263107Y0045559D01*
X0262992Y0045797D01*
X0262872Y0046032D01*
X0262746Y0046263D01*
X0262615Y0046492D01*
X0262478Y0046717D01*
X0262335Y0046939D01*
X0262188Y0047157D01*
X0262034Y0047372D01*
X0261876Y0047583D01*
X0261712Y0047790D01*
X0261544Y0047993D01*
X0261371Y0048191D01*
X0261192Y0048386D01*
X0261009Y0048576D01*
X0260822Y0048761D01*
X0260630Y0048942D01*
X0260434Y0049118D01*
X0260233Y0049289D01*
X0260028Y0049455D01*
X0259820Y0049616D01*
X0259607Y0049772D01*
X0259391Y0049923D01*
X0259171Y0050069D01*
X0258947Y0050209D01*
X0258720Y0050343D01*
X0258490Y0050472D01*
X0258257Y0050595D01*
X0258021Y0050713D01*
X0257782Y0050824D01*
X0257541Y0050930D01*
X0257297Y0051030D01*
X0257050Y0051124D01*
X0256802Y0051212D01*
X0256551Y0051294D01*
X0256529Y0051222D01*
X0256778Y0051141D01*
X0257025Y0051054D01*
X0257269Y0050960D01*
X0257512Y0050861D01*
X0257752Y0050756D01*
X0257989Y0050645D01*
X0258223Y0050528D01*
X0258455Y0050406D01*
X0258683Y0050278D01*
X0258908Y0050144D01*
X0259130Y0050005D01*
X0259349Y0049861D01*
X0259563Y0049711D01*
X0259775Y0049556D01*
X0259982Y0049396D01*
X0260185Y0049231D01*
X0260384Y0049061D01*
X0260579Y0048886D01*
X0260770Y0048707D01*
X0260956Y0048523D01*
X0261138Y0048334D01*
X0261315Y0048141D01*
X0261487Y0047944D01*
X0261654Y0047742D01*
X0261817Y0047537D01*
X0261974Y0047328D01*
X0262126Y0047115D01*
X0262273Y0046898D01*
X0262414Y0046677D01*
X0262550Y0046454D01*
X0262681Y0046227D01*
X0262806Y0045997D01*
X0262925Y0045764D01*
X0263039Y0045528D01*
X0263147Y0045289D01*
X0263249Y0045048D01*
X0263345Y0044804D01*
X0263435Y0044558D01*
X0263519Y0044310D01*
X0263597Y0044060D01*
X0263668Y0043808D01*
X0263734Y0043555D01*
X0263793Y0043300D01*
X0263846Y0043043D01*
X0263893Y0042786D01*
X0263934Y0042527D01*
X0263968Y0042267D01*
X0263996Y0042007D01*
X0264017Y0041746D01*
X0264032Y0041485D01*
X0264041Y0041223D01*
X0264043Y0040961D01*
X0264039Y0040699D01*
X0264028Y0040438D01*
X0264011Y0040176D01*
X0263988Y0039915D01*
X0263958Y0039655D01*
X0263922Y0039396D01*
X0263880Y0039138D01*
X0263831Y0038880D01*
X0263776Y0038624D01*
X0263715Y0038370D01*
X0263648Y0038117D01*
X0263574Y0037865D01*
X0263494Y0037616D01*
X0263408Y0037368D01*
X0263317Y0037123D01*
X0263219Y0036880D01*
X0263115Y0036640D01*
X0263006Y0036402D01*
X0262890Y0036167D01*
X0262769Y0035935D01*
X0262643Y0035705D01*
X0262511Y0035479D01*
X0262373Y0035257D01*
X0262230Y0035037D01*
X0262081Y0034822D01*
X0261928Y0034610D01*
X0261769Y0034401D01*
X0261710Y0034448D01*
X0261868Y0034655D01*
X0262020Y0034865D01*
X0262168Y0035079D01*
X0262310Y0035297D01*
X0262446Y0035518D01*
X0262578Y0035743D01*
X0262703Y0035970D01*
X0262824Y0036201D01*
X0262938Y0036434D01*
X0263047Y0036671D01*
X0263150Y0036909D01*
X0263247Y0037150D01*
X0263338Y0037394D01*
X0263423Y0037640D01*
X0263502Y0037887D01*
X0263575Y0038137D01*
X0263642Y0038388D01*
X0263703Y0038641D01*
X0263758Y0038895D01*
X0263806Y0039151D01*
X0263848Y0039407D01*
X0263884Y0039665D01*
X0263913Y0039923D01*
X0263937Y0040182D01*
X0263953Y0040442D01*
X0263964Y0040701D01*
X0263968Y0040961D01*
X0263966Y0041221D01*
X0263957Y0041481D01*
X0263942Y0041741D01*
X0263921Y0042000D01*
X0263893Y0042259D01*
X0263859Y0042516D01*
X0263819Y0042773D01*
X0263773Y0043029D01*
X0263720Y0043284D01*
X0263661Y0043537D01*
X0263596Y0043789D01*
X0263525Y0044039D01*
X0263447Y0044287D01*
X0263364Y0044533D01*
X0263275Y0044777D01*
X0263179Y0045019D01*
X0263078Y0045259D01*
X0262971Y0045496D01*
X0262858Y0045730D01*
X0262740Y0045962D01*
X0262616Y0046190D01*
X0262486Y0046415D01*
X0262351Y0046638D01*
X0262210Y0046856D01*
X0262064Y0047072D01*
X0261913Y0047283D01*
X0261757Y0047491D01*
X0261596Y0047695D01*
X0261430Y0047895D01*
X0261259Y0048091D01*
X0261083Y0048283D01*
X0260903Y0048470D01*
X0260718Y0048653D01*
X0260529Y0048831D01*
X0260335Y0049005D01*
X0260137Y0049173D01*
X0259935Y0049337D01*
X0259730Y0049496D01*
X0259520Y0049650D01*
X0259307Y0049799D01*
X0259090Y0049942D01*
X0258869Y0050080D01*
X0258646Y0050213D01*
X0258419Y0050340D01*
X0258189Y0050462D01*
X0257956Y0050577D01*
X0257721Y0050688D01*
X0257483Y0050792D01*
X0257242Y0050891D01*
X0256999Y0050983D01*
X0256754Y0051070D01*
X0256507Y0051150D01*
X0256485Y0051079D01*
X0256730Y0050999D01*
X0256973Y0050913D01*
X0257215Y0050821D01*
X0257454Y0050723D01*
X0257690Y0050619D01*
X0257924Y0050510D01*
X0258155Y0050395D01*
X0258383Y0050274D01*
X0258609Y0050148D01*
X0258831Y0050016D01*
X0259049Y0049879D01*
X0259265Y0049737D01*
X0259476Y0049589D01*
X0259685Y0049436D01*
X0259889Y0049278D01*
X0260089Y0049116D01*
X0260286Y0048948D01*
X0260478Y0048776D01*
X0260666Y0048599D01*
X0260850Y0048417D01*
X0261029Y0048231D01*
X0261203Y0048041D01*
X0261373Y0047846D01*
X0261538Y0047648D01*
X0261698Y0047445D01*
X0261853Y0047239D01*
X0262003Y0047029D01*
X0262148Y0046815D01*
X0262287Y0046598D01*
X0262421Y0046377D01*
X0262550Y0046153D01*
X0262673Y0045927D01*
X0262791Y0045697D01*
X0262903Y0045464D01*
X0263009Y0045229D01*
X0263110Y0044991D01*
X0263204Y0044751D01*
X0263293Y0044508D01*
X0263376Y0044264D01*
X0263453Y0044017D01*
X0263523Y0043769D01*
X0263588Y0043519D01*
X0263647Y0043268D01*
X0263699Y0043015D01*
X0263745Y0042761D01*
X0263785Y0042506D01*
X0263819Y0042250D01*
X0263846Y0041993D01*
X0263867Y0041736D01*
X0263882Y0041478D01*
X0263891Y0041220D01*
X0263893Y0040962D01*
X0263889Y0040704D01*
X0263878Y0040446D01*
X0263862Y0040188D01*
X0263839Y0039931D01*
X0263809Y0039674D01*
X0263774Y0039419D01*
X0263732Y0039164D01*
X0263684Y0038910D01*
X0263630Y0038658D01*
X0263570Y0038407D01*
X0263503Y0038157D01*
X0263431Y0037909D01*
X0263352Y0037664D01*
X0263268Y0037420D01*
X0263177Y0037178D01*
X0263081Y0036938D01*
X0262978Y0036701D01*
X0262870Y0036467D01*
X0262757Y0036235D01*
X0262637Y0036006D01*
X0262513Y0035780D01*
X0262382Y0035557D01*
X0262246Y0035338D01*
X0262105Y0035121D01*
X0261959Y0034909D01*
X0261808Y0034700D01*
X0261651Y0034494D01*
X0261592Y0034541D01*
X0261748Y0034745D01*
X0261898Y0034952D01*
X0262043Y0035163D01*
X0262183Y0035378D01*
X0262318Y0035596D01*
X0262448Y0035817D01*
X0262571Y0036042D01*
X0262690Y0036269D01*
X0262803Y0036499D01*
X0262910Y0036732D01*
X0263011Y0036967D01*
X0263107Y0037205D01*
X0263197Y0037445D01*
X0263281Y0037687D01*
X0263359Y0037932D01*
X0263431Y0038178D01*
X0263497Y0038425D01*
X0263557Y0038675D01*
X0263611Y0038925D01*
X0263658Y0039177D01*
X0263700Y0039430D01*
X0263735Y0039684D01*
X0263764Y0039939D01*
X0263787Y0040194D01*
X0263804Y0040450D01*
X0263814Y0040706D01*
X0263818Y0040962D01*
X0263816Y0041218D01*
X0263807Y0041475D01*
X0263793Y0041731D01*
X0263772Y0041986D01*
X0263744Y0042241D01*
X0263711Y0042495D01*
X0263671Y0042748D01*
X0263625Y0043001D01*
X0263573Y0043252D01*
X0263515Y0043501D01*
X0263451Y0043749D01*
X0263381Y0043996D01*
X0263305Y0044241D01*
X0263222Y0044483D01*
X0263134Y0044724D01*
X0263040Y0044963D01*
X0262941Y0045199D01*
X0262835Y0045432D01*
X0262724Y0045663D01*
X0262607Y0045891D01*
X0262485Y0046117D01*
X0262357Y0046339D01*
X0262224Y0046558D01*
X0262085Y0046774D01*
X0261941Y0046986D01*
X0261793Y0047195D01*
X0261639Y0047399D01*
X0261480Y0047601D01*
X0261316Y0047798D01*
X0261147Y0047991D01*
X0260974Y0048180D01*
X0260796Y0048364D01*
X0260614Y0048545D01*
X0260427Y0048720D01*
X0260237Y0048892D01*
X0260042Y0049058D01*
X0259843Y0049220D01*
X0259640Y0049376D01*
X0259433Y0049528D01*
X0259223Y0049674D01*
X0259009Y0049816D01*
X0258792Y0049952D01*
X0258571Y0050083D01*
X0258348Y0050208D01*
X0258121Y0050328D01*
X0257892Y0050442D01*
X0257659Y0050551D01*
X0257425Y0050654D01*
X0257187Y0050751D01*
X0256948Y0050842D01*
X0256706Y0050928D01*
X0256462Y0051007D01*
X0256440Y0050935D01*
X0256682Y0050856D01*
X0256922Y0050772D01*
X0257160Y0050681D01*
X0257396Y0050585D01*
X0257629Y0050482D01*
X0257859Y0050375D01*
X0258087Y0050261D01*
X0258312Y0050142D01*
X0258534Y0050018D01*
X0258753Y0049888D01*
X0258968Y0049753D01*
X0259181Y0049612D01*
X0259390Y0049467D01*
X0259595Y0049316D01*
X0259796Y0049161D01*
X0259994Y0049000D01*
X0260187Y0048835D01*
X0260377Y0048665D01*
X0260562Y0048491D01*
X0260743Y0048312D01*
X0260919Y0048128D01*
X0261091Y0047941D01*
X0261259Y0047749D01*
X0261421Y0047553D01*
X0261579Y0047354D01*
X0261732Y0047150D01*
X0261880Y0046943D01*
X0262023Y0046732D01*
X0262160Y0046518D01*
X0262292Y0046301D01*
X0262419Y0046080D01*
X0262541Y0045856D01*
X0262657Y0045630D01*
X0262767Y0045401D01*
X0262872Y0045169D01*
X0262971Y0044934D01*
X0263064Y0044697D01*
X0263152Y0044458D01*
X0263233Y0044217D01*
X0263309Y0043974D01*
X0263379Y0043730D01*
X0263442Y0043483D01*
X0263500Y0043235D01*
X0263552Y0042986D01*
X0263597Y0042736D01*
X0263637Y0042484D01*
X0263670Y0042232D01*
X0263697Y0041979D01*
X0263718Y0041725D01*
X0263732Y0041471D01*
X0263741Y0041217D01*
X0263743Y0040962D01*
X0263739Y0040708D01*
X0263729Y0040454D01*
X0263712Y0040200D01*
X0263690Y0039946D01*
X0263661Y0039693D01*
X0263626Y0039441D01*
X0263584Y0039190D01*
X0263537Y0038940D01*
X0263484Y0038691D01*
X0263424Y0038444D01*
X0263359Y0038198D01*
X0263287Y0037954D01*
X0263210Y0037711D01*
X0263127Y0037471D01*
X0263037Y0037232D01*
X0262942Y0036996D01*
X0262842Y0036763D01*
X0262735Y0036532D01*
X0262623Y0036303D01*
X0262506Y0036077D01*
X0262382Y0035855D01*
X0262254Y0035635D01*
X0262120Y0035418D01*
X0261981Y0035205D01*
X0261837Y0034996D01*
X0261688Y0034790D01*
X0261533Y0034587D01*
X0261474Y0034634D01*
X0261627Y0034834D01*
X0261776Y0035039D01*
X0261919Y0035247D01*
X0262057Y0035459D01*
X0262190Y0035674D01*
X0262317Y0035892D01*
X0262440Y0036113D01*
X0262556Y0036337D01*
X0262668Y0036564D01*
X0262773Y0036793D01*
X0262873Y0037025D01*
X0262967Y0037260D01*
X0263056Y0037496D01*
X0263139Y0037735D01*
X0263216Y0037976D01*
X0263287Y0038218D01*
X0263352Y0038462D01*
X0263411Y0038708D01*
X0263464Y0038955D01*
X0263511Y0039203D01*
X0263552Y0039453D01*
X0263586Y0039703D01*
X0263615Y0039954D01*
X0263637Y0040206D01*
X0263654Y0040458D01*
X0263664Y0040710D01*
X0263668Y0040963D01*
X0263666Y0041215D01*
X0263657Y0041468D01*
X0263643Y0041720D01*
X0263622Y0041972D01*
X0263595Y0042223D01*
X0263562Y0042474D01*
X0263523Y0042723D01*
X0263478Y0042972D01*
X0263427Y0043219D01*
X0263370Y0043465D01*
X0263306Y0043710D01*
X0263237Y0043953D01*
X0263162Y0044194D01*
X0263081Y0044434D01*
X0262994Y0044671D01*
X0262902Y0044906D01*
X0262803Y0045139D01*
X0262699Y0045369D01*
X0262590Y0045597D01*
X0262474Y0045821D01*
X0262354Y0046043D01*
X0262228Y0046262D01*
X0262097Y0046478D01*
X0261960Y0046691D01*
X0261818Y0046900D01*
X0261672Y0047106D01*
X0261520Y0047308D01*
X0261363Y0047506D01*
X0261202Y0047700D01*
X0261036Y0047891D01*
X0260865Y0048077D01*
X0260690Y0048259D01*
X0260510Y0048437D01*
X0260326Y0048610D01*
X0260138Y0048778D01*
X0259946Y0048942D01*
X0259750Y0049102D01*
X0259550Y0049256D01*
X0259346Y0049406D01*
X0259139Y0049550D01*
X0258928Y0049690D01*
X0258714Y0049824D01*
X0258497Y0049953D01*
X0258276Y0050076D01*
X0258053Y0050194D01*
X0257827Y0050307D01*
X0257598Y0050414D01*
X0257367Y0050515D01*
X0257133Y0050611D01*
X0256897Y0050701D01*
X0256658Y0050785D01*
X0256418Y0050864D01*
X0256396Y0050792D01*
X0256635Y0050714D01*
X0256871Y0050631D01*
X0257105Y0050541D01*
X0257338Y0050446D01*
X0257567Y0050346D01*
X0257794Y0050239D01*
X0258019Y0050127D01*
X0258241Y0050010D01*
X0258459Y0049888D01*
X0258675Y0049760D01*
X0258888Y0049626D01*
X0259097Y0049488D01*
X0259303Y0049345D01*
X0259505Y0049196D01*
X0259703Y0049043D01*
X0259898Y0048885D01*
X0260089Y0048722D01*
X0260275Y0048554D01*
X0260458Y0048382D01*
X0260636Y0048206D01*
X0260810Y0048025D01*
X0260980Y0047841D01*
X0261145Y0047652D01*
X0261305Y0047459D01*
X0261461Y0047262D01*
X0261611Y0047061D01*
X0261757Y0046857D01*
X0261897Y0046650D01*
X0262033Y0046438D01*
X0262163Y0046224D01*
X0262288Y0046007D01*
X0262408Y0045786D01*
X0262522Y0045563D01*
X0262631Y0045337D01*
X0262734Y0045109D01*
X0262832Y0044878D01*
X0262924Y0044644D01*
X0263010Y0044409D01*
X0263091Y0044171D01*
X0263165Y0043932D01*
X0263234Y0043690D01*
X0263297Y0043448D01*
X0263354Y0043203D01*
X0263404Y0042958D01*
X0263449Y0042711D01*
X0263488Y0042463D01*
X0263521Y0042214D01*
X0263548Y0041965D01*
X0263568Y0041715D01*
X0263582Y0041465D01*
X0263591Y0041214D01*
X0263593Y0040963D01*
X0263589Y0040712D01*
X0263579Y0040462D01*
X0263563Y0040212D01*
X0263540Y0039962D01*
X0263512Y0039713D01*
X0263477Y0039464D01*
X0263437Y0039217D01*
X0263390Y0038970D01*
X0263338Y0038725D01*
X0263279Y0038481D01*
X0263214Y0038239D01*
X0263144Y0037998D01*
X0263068Y0037759D01*
X0262986Y0037522D01*
X0262898Y0037287D01*
X0262804Y0037054D01*
X0262705Y0036824D01*
X0262600Y0036596D01*
X0262489Y0036371D01*
X0262374Y0036149D01*
X0262252Y0035929D01*
X0262126Y0035713D01*
X0261994Y0035499D01*
X0261857Y0035289D01*
X0261715Y0035083D01*
X0261567Y0034879D01*
X0261415Y0034680D01*
X0261356Y0034726D01*
X0261507Y0034924D01*
X0261654Y0035126D01*
X0261795Y0035331D01*
X0261931Y0035540D01*
X0262062Y0035751D01*
X0262187Y0035966D01*
X0262308Y0036184D01*
X0262423Y0036405D01*
X0262532Y0036629D01*
X0262636Y0036855D01*
X0262735Y0037083D01*
X0262828Y0037314D01*
X0262915Y0037548D01*
X0262997Y0037783D01*
X0263072Y0038020D01*
X0263142Y0038259D01*
X0263206Y0038500D01*
X0263264Y0038742D01*
X0263317Y0038985D01*
X0263363Y0039230D01*
X0263403Y0039475D01*
X0263438Y0039722D01*
X0263466Y0039969D01*
X0263488Y0040217D01*
X0263504Y0040466D01*
X0263514Y0040715D01*
X0263518Y0040964D01*
X0263516Y0041213D01*
X0263508Y0041461D01*
X0263493Y0041710D01*
X0263473Y0041958D01*
X0263446Y0042206D01*
X0263414Y0042452D01*
X0263375Y0042698D01*
X0263331Y0042943D01*
X0263280Y0043187D01*
X0263224Y0043430D01*
X0263162Y0043671D01*
X0263093Y0043910D01*
X0263019Y0044148D01*
X0262939Y0044384D01*
X0262854Y0044618D01*
X0262763Y0044849D01*
X0262666Y0045078D01*
X0262563Y0045305D01*
X0262455Y0045530D01*
X0262342Y0045751D01*
X0262223Y0045970D01*
X0262099Y0046186D01*
X0261969Y0046399D01*
X0261835Y0046608D01*
X0261695Y0046814D01*
X0261551Y0047017D01*
X0261401Y0047216D01*
X0261247Y0047411D01*
X0261088Y0047603D01*
X0260924Y0047790D01*
X0260756Y0047974D01*
X0260583Y0048153D01*
X0260406Y0048328D01*
X0260225Y0048499D01*
X0260039Y0048665D01*
X0259850Y0048827D01*
X0259657Y0048984D01*
X0259460Y0049136D01*
X0259259Y0049283D01*
X0259055Y0049426D01*
X0258847Y0049563D01*
X0258636Y0049695D01*
X0258422Y0049822D01*
X0258205Y0049944D01*
X0257985Y0050061D01*
X0257762Y0050172D01*
X0257537Y0050277D01*
X0257308Y0050377D01*
X0257078Y0050471D01*
X0256845Y0050560D01*
X0256611Y0050643D01*
X0256374Y0050720D01*
M02*
