G75*
%MOIN*%
%OFA0B0*%
%FSLAX25Y25*%
%IPPOS*%
%LPD*%
%AMOC8*
5,1,8,0,0,1.08239X$1,22.5*
%
%ADD10C,0.07400*%
%ADD11R,0.08000X0.08000*%
%ADD12C,0.08000*%
%ADD13C,0.17000*%
%ADD14R,0.07400X0.07400*%
%ADD15C,0.05200*%
%ADD16C,0.06000*%
%ADD17OC8,0.07400*%
%ADD18C,0.01000*%
%ADD19R,0.04356X0.04356*%
%ADD20C,0.01600*%
D10*
X0110073Y0100073D03*
X0120073Y0100073D03*
X0102947Y0120073D03*
X0087199Y0120073D03*
X0089573Y0211573D03*
X0079573Y0211573D03*
X0069573Y0211573D03*
X0059573Y0211573D03*
X0049573Y0211573D03*
X0099573Y0211573D03*
X0265073Y0175073D03*
X0265073Y0165073D03*
X0265073Y0155073D03*
X0290073Y0150073D03*
X0290073Y0140073D03*
X0290073Y0130073D03*
X0290073Y0120073D03*
X0290073Y0160073D03*
X0290073Y0170073D03*
X0290073Y0180073D03*
X0290073Y0190073D03*
D11*
X0126073Y0016573D03*
X0180073Y0015573D03*
X0230073Y0016073D03*
X0016073Y0085573D03*
X0016073Y0144073D03*
X0015573Y0193573D03*
D12*
X0015573Y0179794D03*
X0016073Y0130294D03*
X0016073Y0071794D03*
X0139853Y0016573D03*
X0193853Y0015573D03*
X0243853Y0016073D03*
D13*
X0261136Y0085073D03*
X0284758Y0085073D03*
X0272947Y0103577D03*
D14*
X0265073Y0185073D03*
D15*
X0252673Y0185073D02*
X0247473Y0185073D01*
X0247473Y0195073D02*
X0252673Y0195073D01*
X0252673Y0205073D02*
X0247473Y0205073D01*
X0222673Y0205073D02*
X0217473Y0205073D01*
X0217473Y0195073D02*
X0222673Y0195073D01*
X0222673Y0185073D02*
X0217473Y0185073D01*
X0217473Y0175073D02*
X0222673Y0175073D01*
X0222673Y0165073D02*
X0217473Y0165073D01*
X0217473Y0155073D02*
X0222673Y0155073D01*
X0222673Y0145073D02*
X0217473Y0145073D01*
X0217473Y0135073D02*
X0222673Y0135073D01*
X0247473Y0135073D02*
X0252673Y0135073D01*
X0252673Y0145073D02*
X0247473Y0145073D01*
X0247473Y0155073D02*
X0252673Y0155073D01*
X0252673Y0165073D02*
X0247473Y0165073D01*
X0247473Y0175073D02*
X0252673Y0175073D01*
X0197673Y0175073D02*
X0192473Y0175073D01*
X0192473Y0165073D02*
X0197673Y0165073D01*
X0197673Y0155073D02*
X0192473Y0155073D01*
X0192473Y0145073D02*
X0197673Y0145073D01*
X0197673Y0135073D02*
X0192473Y0135073D01*
X0192473Y0125073D02*
X0197673Y0125073D01*
X0197673Y0115073D02*
X0192473Y0115073D01*
X0192473Y0105073D02*
X0197673Y0105073D01*
X0197673Y0095073D02*
X0192473Y0095073D01*
X0192473Y0085073D02*
X0197673Y0085073D01*
X0167673Y0085073D02*
X0162473Y0085073D01*
X0162473Y0095073D02*
X0167673Y0095073D01*
X0167673Y0105073D02*
X0162473Y0105073D01*
X0162473Y0115073D02*
X0167673Y0115073D01*
X0167673Y0125073D02*
X0162473Y0125073D01*
X0162473Y0135073D02*
X0167673Y0135073D01*
X0167673Y0145073D02*
X0162473Y0145073D01*
X0162473Y0155073D02*
X0167673Y0155073D01*
X0167673Y0165073D02*
X0162473Y0165073D01*
X0162473Y0175073D02*
X0167673Y0175073D01*
X0167673Y0185073D02*
X0162473Y0185073D01*
X0162473Y0195073D02*
X0167673Y0195073D01*
X0167673Y0205073D02*
X0162473Y0205073D01*
X0162473Y0215073D02*
X0167673Y0215073D01*
X0192473Y0215073D02*
X0197673Y0215073D01*
X0197673Y0205073D02*
X0192473Y0205073D01*
X0192473Y0195073D02*
X0197673Y0195073D01*
X0197673Y0185073D02*
X0192473Y0185073D01*
D16*
X0053073Y0180073D02*
X0047073Y0180073D01*
X0047073Y0170073D02*
X0053073Y0170073D01*
X0053073Y0190073D02*
X0047073Y0190073D01*
X0047073Y0140073D02*
X0053073Y0140073D01*
X0053073Y0130073D02*
X0047073Y0130073D01*
X0047073Y0120073D02*
X0053073Y0120073D01*
X0053073Y0090073D02*
X0047073Y0090073D01*
X0047073Y0080073D02*
X0053073Y0080073D01*
X0053073Y0070073D02*
X0047073Y0070073D01*
X0120073Y0053073D02*
X0120073Y0047073D01*
X0130073Y0047073D02*
X0130073Y0053073D01*
X0140073Y0053073D02*
X0140073Y0047073D01*
X0175073Y0047073D02*
X0175073Y0053073D01*
X0185073Y0053073D02*
X0185073Y0047073D01*
X0195073Y0047073D02*
X0195073Y0053073D01*
X0225073Y0053073D02*
X0225073Y0047073D01*
X0235073Y0047073D02*
X0235073Y0053073D01*
X0245073Y0053073D02*
X0245073Y0047073D01*
D17*
X0240073Y0095073D03*
X0230073Y0095073D03*
X0230073Y0105073D03*
X0230073Y0115073D03*
X0240073Y0115073D03*
X0240073Y0105073D03*
D18*
X0060073Y0010073D02*
X0010073Y0060073D01*
X0010073Y0199573D01*
X0011573Y0201073D01*
X0026073Y0201073D01*
X0045073Y0220073D01*
X0059573Y0211573D02*
X0071073Y0200073D01*
X0160073Y0200073D01*
X0165073Y0195073D01*
X0185073Y0195073D01*
X0190073Y0200073D01*
X0290573Y0200073D01*
X0297573Y0193073D01*
X0297573Y0167573D01*
X0290073Y0160073D01*
X0280073Y0175073D02*
X0280073Y0130073D01*
X0275073Y0125073D02*
X0272947Y0122947D01*
X0272947Y0103577D01*
X0255073Y0100073D02*
X0255073Y0095073D01*
X0245073Y0085073D01*
X0225073Y0085073D01*
X0205073Y0105073D01*
X0195073Y0105073D01*
X0190073Y0110073D02*
X0225073Y0110073D01*
X0230073Y0105073D01*
X0230073Y0115073D02*
X0195073Y0115073D01*
X0190073Y0110073D02*
X0188073Y0112073D01*
X0188073Y0118073D01*
X0195073Y0125073D01*
X0185073Y0123073D02*
X0178073Y0130073D01*
X0159573Y0130073D01*
X0123573Y0166073D01*
X0110073Y0170073D02*
X0110073Y0115073D01*
X0100073Y0105073D01*
X0102947Y0120073D02*
X0103073Y0120199D01*
X0103073Y0158573D01*
X0104573Y0160073D01*
X0105073Y0160073D01*
X0100073Y0186573D02*
X0086573Y0186573D01*
X0070073Y0170073D01*
X0050073Y0180073D02*
X0015573Y0179794D01*
X0069573Y0211573D02*
X0077573Y0219573D01*
X0152573Y0219573D01*
X0156573Y0215573D01*
X0156573Y0210073D01*
X0155073Y0185073D02*
X0155073Y0160073D01*
X0160073Y0155073D01*
X0165073Y0155073D01*
X0170073Y0155073D01*
X0190073Y0135073D01*
X0195073Y0135073D01*
X0210073Y0135073D01*
X0220073Y0125073D01*
X0240073Y0125073D01*
X0240073Y0115073D01*
X0245073Y0115073D01*
X0250073Y0120073D01*
X0250073Y0135073D01*
X0245073Y0140073D02*
X0250073Y0145073D01*
X0245073Y0140073D02*
X0210073Y0140073D01*
X0202573Y0147573D01*
X0202573Y0182573D01*
X0200073Y0185073D01*
X0195073Y0185073D01*
X0185073Y0175073D02*
X0185073Y0150073D01*
X0206573Y0151073D02*
X0206573Y0175073D01*
X0185073Y0175073D02*
X0175073Y0185073D01*
X0165073Y0185073D01*
X0145073Y0155073D02*
X0145073Y0151573D01*
X0156573Y0140073D01*
X0175073Y0125073D02*
X0175073Y0085073D01*
X0165073Y0085073D02*
X0164073Y0085073D01*
X0158573Y0079573D01*
X0080073Y0079573D01*
X0091073Y0084073D02*
X0080073Y0095073D01*
X0080073Y0125073D01*
X0050073Y0130073D02*
X0016073Y0130294D01*
X0040073Y0080073D02*
X0050073Y0080073D01*
X0040073Y0080073D02*
X0031794Y0071794D01*
X0016073Y0071794D01*
X0075073Y0025073D02*
X0090073Y0025073D01*
X0105073Y0040073D01*
X0105073Y0045073D01*
X0130073Y0050073D02*
X0140073Y0040073D01*
X0140073Y0016794D01*
X0139853Y0016573D01*
X0185073Y0045073D02*
X0185073Y0050073D01*
X0185073Y0045073D02*
X0195073Y0035073D01*
X0195073Y0016794D01*
X0193853Y0015573D01*
X0235073Y0035073D02*
X0245073Y0025073D01*
X0245073Y0017294D01*
X0243853Y0016073D01*
X0255073Y0010073D02*
X0060073Y0010073D01*
X0100073Y0075073D02*
X0185073Y0075073D01*
X0195073Y0085073D01*
X0185073Y0090073D02*
X0180073Y0095073D01*
X0180073Y0100073D01*
X0185073Y0105073D02*
X0195073Y0095073D01*
X0185073Y0105073D02*
X0185073Y0123073D01*
X0165073Y0115073D02*
X0150073Y0100073D01*
X0120073Y0100073D01*
X0205073Y0120073D02*
X0205073Y0130073D01*
X0212573Y0145073D02*
X0206573Y0151073D01*
X0212573Y0145073D02*
X0220073Y0145073D01*
X0220073Y0155073D02*
X0225073Y0155073D01*
X0240073Y0170073D01*
X0260073Y0170073D01*
X0265073Y0175073D01*
X0265073Y0165073D02*
X0255073Y0155073D01*
X0250073Y0155073D01*
X0270073Y0140073D02*
X0270073Y0130073D01*
X0275073Y0125073D01*
X0285073Y0125073D01*
X0290073Y0130073D01*
X0255073Y0100073D02*
X0250073Y0105073D01*
X0240073Y0105073D01*
X0240073Y0080073D02*
X0265073Y0055073D01*
X0265073Y0020073D01*
X0255073Y0010073D01*
X0235073Y0035073D02*
X0235073Y0050073D01*
X0280073Y0175073D02*
X0285073Y0180073D01*
X0290073Y0180073D01*
X0122573Y0194573D02*
X0114573Y0186573D01*
X0112573Y0186573D01*
X0100073Y0186573D01*
X0100073Y0195073D01*
D19*
X0100073Y0195073D03*
X0112573Y0186573D03*
X0122573Y0194573D03*
X0155073Y0185073D03*
X0156573Y0210073D03*
X0206573Y0175073D03*
X0185073Y0150073D03*
X0205073Y0130073D03*
X0205073Y0120073D03*
X0180073Y0100073D03*
X0185073Y0090073D03*
X0175073Y0085073D03*
X0175073Y0125073D03*
X0156573Y0140073D03*
X0145073Y0155073D03*
X0123573Y0166073D03*
X0110073Y0170073D03*
X0105073Y0160073D03*
X0070073Y0170073D03*
X0080073Y0125073D03*
X0100073Y0105073D03*
X0091073Y0084073D03*
X0080073Y0079573D03*
X0100073Y0075073D03*
X0105073Y0045073D03*
X0075073Y0025073D03*
X0240073Y0080073D03*
X0261073Y0129073D03*
X0270073Y0140073D03*
X0280073Y0130073D03*
X0045073Y0220073D03*
D20*
X0261073Y0129073D02*
X0261073Y0085136D01*
X0261136Y0085073D01*
M02*
