%
M48
M72
T01C0.02756
T02C0.03200
T03C0.03543
T04C0.04000
T05C0.04724
T06C0.11800
T07C0.13000
%
T01
X75073Y25073
X105073Y45073
X100073Y75073
X91073Y84073
X80073Y79573
X100073Y105073
X80073Y125073
X105073Y160073
X110073Y170073
X123573Y166073
X145073Y155073
X156573Y140073
X175073Y125073
X185073Y150073
X205073Y130073
X205073Y120073
X180073Y100073
X185073Y90073
X175073Y85073
X240073Y80073
X261073Y129073
X270073Y140073
X280073Y130073
X206573Y175073
X155073Y185073
X156573Y210073
X122573Y194573
X112573Y186573
X100073Y195073
X70073Y170073
X45073Y220073
T02
X165073Y215073
X165073Y205073
X165073Y195073
X165073Y185073
X165073Y175073
X165073Y165073
X165073Y155073
X165073Y145073
X165073Y135073
X165073Y125073
X165073Y115073
X165073Y105073
X165073Y95073
X165073Y85073
X195073Y85073
X195073Y95073
X195073Y105073
X195073Y115073
X195073Y125073
X195073Y135073
X195073Y145073
X195073Y155073
X195073Y165073
X195073Y175073
X195073Y185073
X195073Y195073
X195073Y205073
X195073Y215073
X220073Y205073
X220073Y195073
X220073Y185073
X220073Y175073
X220073Y165073
X220073Y155073
X220073Y145073
X220073Y135073
X250073Y135073
X250073Y145073
X250073Y155073
X250073Y165073
X250073Y175073
X250073Y185073
X250073Y195073
X250073Y205073
X120073Y100073
X110073Y100073
T03
X102947Y120073
X87199Y120073
T04
X50073Y120073
X50073Y130073
X50073Y140073
X50073Y170073
X50073Y180073
X50073Y190073
X49573Y211573
X59573Y211573
X69573Y211573
X79573Y211573
X89573Y211573
X99573Y211573
X230073Y115073
X230073Y105073
X230073Y95073
X240073Y95073
X240073Y105073
X240073Y115073
X290073Y120073
X290073Y130073
X290073Y140073
X290073Y150073
X290073Y160073
X290073Y170073
X290073Y180073
X290073Y190073
X265073Y185073
X265073Y175073
X265073Y165073
X265073Y155073
X245073Y50073
X235073Y50073
X225073Y50073
X195073Y50073
X185073Y50073
X175073Y50073
X140073Y50073
X130073Y50073
X120073Y50073
X50073Y70073
X50073Y80073
X50073Y90073
T05
X16073Y85573
X16073Y71794
X16073Y130294
X16073Y144073
X15573Y179794
X15573Y193573
X126073Y16573
X139853Y16573
X180073Y15573
X193853Y15573
X230073Y16073
X243853Y16073
T06
X261136Y85073
X284758Y85073
X272947Y103577
T07
X20073Y20073
X290073Y20073
X290073Y215073
X20073Y215073
M30
