G75*
%MOIN*%
%OFA0B0*%
%FSLAX25Y25*%
%IPPOS*%
%LPD*%
%AMOC8*
5,1,8,0,0,1.08239X$1,22.5*
%
%ADD10C,0.00000*%
%ADD11C,0.01000*%
%ADD12C,0.07400*%
%ADD13R,0.07087X0.06299*%
%ADD14R,0.06299X0.07087*%
%ADD15R,0.03268X0.02480*%
%ADD16R,0.02480X0.03268*%
%ADD17R,0.08000X0.08000*%
%ADD18C,0.08000*%
%ADD19C,0.17000*%
%ADD20R,0.07400X0.07400*%
%ADD21C,0.05200*%
%ADD22C,0.06000*%
%ADD23R,0.06000X0.03000*%
%ADD24OC8,0.07400*%
%ADD25R,0.04800X0.08800*%
%ADD26R,0.14173X0.08661*%
%ADD27R,0.06693X0.09449*%
%ADD28R,0.04356X0.04356*%
%ADD29C,0.01600*%
D10*
X0005073Y0005073D02*
X0005073Y0230034D01*
X0303274Y0230034D01*
X0303274Y0005073D01*
X0005073Y0005073D01*
X0013573Y0020073D02*
X0013575Y0020234D01*
X0013581Y0020394D01*
X0013591Y0020555D01*
X0013605Y0020715D01*
X0013623Y0020875D01*
X0013644Y0021034D01*
X0013670Y0021193D01*
X0013700Y0021351D01*
X0013733Y0021508D01*
X0013771Y0021665D01*
X0013812Y0021820D01*
X0013857Y0021974D01*
X0013906Y0022127D01*
X0013959Y0022279D01*
X0014015Y0022430D01*
X0014076Y0022579D01*
X0014139Y0022727D01*
X0014207Y0022873D01*
X0014278Y0023017D01*
X0014352Y0023159D01*
X0014430Y0023300D01*
X0014512Y0023438D01*
X0014597Y0023575D01*
X0014685Y0023709D01*
X0014777Y0023841D01*
X0014872Y0023971D01*
X0014970Y0024099D01*
X0015071Y0024224D01*
X0015175Y0024346D01*
X0015282Y0024466D01*
X0015392Y0024583D01*
X0015505Y0024698D01*
X0015621Y0024809D01*
X0015740Y0024918D01*
X0015861Y0025023D01*
X0015985Y0025126D01*
X0016111Y0025226D01*
X0016239Y0025322D01*
X0016370Y0025415D01*
X0016504Y0025505D01*
X0016639Y0025592D01*
X0016777Y0025675D01*
X0016916Y0025755D01*
X0017058Y0025831D01*
X0017201Y0025904D01*
X0017346Y0025973D01*
X0017493Y0026039D01*
X0017641Y0026101D01*
X0017791Y0026159D01*
X0017942Y0026214D01*
X0018095Y0026265D01*
X0018249Y0026312D01*
X0018404Y0026355D01*
X0018560Y0026394D01*
X0018716Y0026430D01*
X0018874Y0026461D01*
X0019032Y0026489D01*
X0019191Y0026513D01*
X0019351Y0026533D01*
X0019511Y0026549D01*
X0019671Y0026561D01*
X0019832Y0026569D01*
X0019993Y0026573D01*
X0020153Y0026573D01*
X0020314Y0026569D01*
X0020475Y0026561D01*
X0020635Y0026549D01*
X0020795Y0026533D01*
X0020955Y0026513D01*
X0021114Y0026489D01*
X0021272Y0026461D01*
X0021430Y0026430D01*
X0021586Y0026394D01*
X0021742Y0026355D01*
X0021897Y0026312D01*
X0022051Y0026265D01*
X0022204Y0026214D01*
X0022355Y0026159D01*
X0022505Y0026101D01*
X0022653Y0026039D01*
X0022800Y0025973D01*
X0022945Y0025904D01*
X0023088Y0025831D01*
X0023230Y0025755D01*
X0023369Y0025675D01*
X0023507Y0025592D01*
X0023642Y0025505D01*
X0023776Y0025415D01*
X0023907Y0025322D01*
X0024035Y0025226D01*
X0024161Y0025126D01*
X0024285Y0025023D01*
X0024406Y0024918D01*
X0024525Y0024809D01*
X0024641Y0024698D01*
X0024754Y0024583D01*
X0024864Y0024466D01*
X0024971Y0024346D01*
X0025075Y0024224D01*
X0025176Y0024099D01*
X0025274Y0023971D01*
X0025369Y0023841D01*
X0025461Y0023709D01*
X0025549Y0023575D01*
X0025634Y0023438D01*
X0025716Y0023300D01*
X0025794Y0023159D01*
X0025868Y0023017D01*
X0025939Y0022873D01*
X0026007Y0022727D01*
X0026070Y0022579D01*
X0026131Y0022430D01*
X0026187Y0022279D01*
X0026240Y0022127D01*
X0026289Y0021974D01*
X0026334Y0021820D01*
X0026375Y0021665D01*
X0026413Y0021508D01*
X0026446Y0021351D01*
X0026476Y0021193D01*
X0026502Y0021034D01*
X0026523Y0020875D01*
X0026541Y0020715D01*
X0026555Y0020555D01*
X0026565Y0020394D01*
X0026571Y0020234D01*
X0026573Y0020073D01*
X0026571Y0019912D01*
X0026565Y0019752D01*
X0026555Y0019591D01*
X0026541Y0019431D01*
X0026523Y0019271D01*
X0026502Y0019112D01*
X0026476Y0018953D01*
X0026446Y0018795D01*
X0026413Y0018638D01*
X0026375Y0018481D01*
X0026334Y0018326D01*
X0026289Y0018172D01*
X0026240Y0018019D01*
X0026187Y0017867D01*
X0026131Y0017716D01*
X0026070Y0017567D01*
X0026007Y0017419D01*
X0025939Y0017273D01*
X0025868Y0017129D01*
X0025794Y0016987D01*
X0025716Y0016846D01*
X0025634Y0016708D01*
X0025549Y0016571D01*
X0025461Y0016437D01*
X0025369Y0016305D01*
X0025274Y0016175D01*
X0025176Y0016047D01*
X0025075Y0015922D01*
X0024971Y0015800D01*
X0024864Y0015680D01*
X0024754Y0015563D01*
X0024641Y0015448D01*
X0024525Y0015337D01*
X0024406Y0015228D01*
X0024285Y0015123D01*
X0024161Y0015020D01*
X0024035Y0014920D01*
X0023907Y0014824D01*
X0023776Y0014731D01*
X0023642Y0014641D01*
X0023507Y0014554D01*
X0023369Y0014471D01*
X0023230Y0014391D01*
X0023088Y0014315D01*
X0022945Y0014242D01*
X0022800Y0014173D01*
X0022653Y0014107D01*
X0022505Y0014045D01*
X0022355Y0013987D01*
X0022204Y0013932D01*
X0022051Y0013881D01*
X0021897Y0013834D01*
X0021742Y0013791D01*
X0021586Y0013752D01*
X0021430Y0013716D01*
X0021272Y0013685D01*
X0021114Y0013657D01*
X0020955Y0013633D01*
X0020795Y0013613D01*
X0020635Y0013597D01*
X0020475Y0013585D01*
X0020314Y0013577D01*
X0020153Y0013573D01*
X0019993Y0013573D01*
X0019832Y0013577D01*
X0019671Y0013585D01*
X0019511Y0013597D01*
X0019351Y0013613D01*
X0019191Y0013633D01*
X0019032Y0013657D01*
X0018874Y0013685D01*
X0018716Y0013716D01*
X0018560Y0013752D01*
X0018404Y0013791D01*
X0018249Y0013834D01*
X0018095Y0013881D01*
X0017942Y0013932D01*
X0017791Y0013987D01*
X0017641Y0014045D01*
X0017493Y0014107D01*
X0017346Y0014173D01*
X0017201Y0014242D01*
X0017058Y0014315D01*
X0016916Y0014391D01*
X0016777Y0014471D01*
X0016639Y0014554D01*
X0016504Y0014641D01*
X0016370Y0014731D01*
X0016239Y0014824D01*
X0016111Y0014920D01*
X0015985Y0015020D01*
X0015861Y0015123D01*
X0015740Y0015228D01*
X0015621Y0015337D01*
X0015505Y0015448D01*
X0015392Y0015563D01*
X0015282Y0015680D01*
X0015175Y0015800D01*
X0015071Y0015922D01*
X0014970Y0016047D01*
X0014872Y0016175D01*
X0014777Y0016305D01*
X0014685Y0016437D01*
X0014597Y0016571D01*
X0014512Y0016708D01*
X0014430Y0016846D01*
X0014352Y0016987D01*
X0014278Y0017129D01*
X0014207Y0017273D01*
X0014139Y0017419D01*
X0014076Y0017567D01*
X0014015Y0017716D01*
X0013959Y0017867D01*
X0013906Y0018019D01*
X0013857Y0018172D01*
X0013812Y0018326D01*
X0013771Y0018481D01*
X0013733Y0018638D01*
X0013700Y0018795D01*
X0013670Y0018953D01*
X0013644Y0019112D01*
X0013623Y0019271D01*
X0013605Y0019431D01*
X0013591Y0019591D01*
X0013581Y0019752D01*
X0013575Y0019912D01*
X0013573Y0020073D01*
X0013573Y0215073D02*
X0013575Y0215234D01*
X0013581Y0215394D01*
X0013591Y0215555D01*
X0013605Y0215715D01*
X0013623Y0215875D01*
X0013644Y0216034D01*
X0013670Y0216193D01*
X0013700Y0216351D01*
X0013733Y0216508D01*
X0013771Y0216665D01*
X0013812Y0216820D01*
X0013857Y0216974D01*
X0013906Y0217127D01*
X0013959Y0217279D01*
X0014015Y0217430D01*
X0014076Y0217579D01*
X0014139Y0217727D01*
X0014207Y0217873D01*
X0014278Y0218017D01*
X0014352Y0218159D01*
X0014430Y0218300D01*
X0014512Y0218438D01*
X0014597Y0218575D01*
X0014685Y0218709D01*
X0014777Y0218841D01*
X0014872Y0218971D01*
X0014970Y0219099D01*
X0015071Y0219224D01*
X0015175Y0219346D01*
X0015282Y0219466D01*
X0015392Y0219583D01*
X0015505Y0219698D01*
X0015621Y0219809D01*
X0015740Y0219918D01*
X0015861Y0220023D01*
X0015985Y0220126D01*
X0016111Y0220226D01*
X0016239Y0220322D01*
X0016370Y0220415D01*
X0016504Y0220505D01*
X0016639Y0220592D01*
X0016777Y0220675D01*
X0016916Y0220755D01*
X0017058Y0220831D01*
X0017201Y0220904D01*
X0017346Y0220973D01*
X0017493Y0221039D01*
X0017641Y0221101D01*
X0017791Y0221159D01*
X0017942Y0221214D01*
X0018095Y0221265D01*
X0018249Y0221312D01*
X0018404Y0221355D01*
X0018560Y0221394D01*
X0018716Y0221430D01*
X0018874Y0221461D01*
X0019032Y0221489D01*
X0019191Y0221513D01*
X0019351Y0221533D01*
X0019511Y0221549D01*
X0019671Y0221561D01*
X0019832Y0221569D01*
X0019993Y0221573D01*
X0020153Y0221573D01*
X0020314Y0221569D01*
X0020475Y0221561D01*
X0020635Y0221549D01*
X0020795Y0221533D01*
X0020955Y0221513D01*
X0021114Y0221489D01*
X0021272Y0221461D01*
X0021430Y0221430D01*
X0021586Y0221394D01*
X0021742Y0221355D01*
X0021897Y0221312D01*
X0022051Y0221265D01*
X0022204Y0221214D01*
X0022355Y0221159D01*
X0022505Y0221101D01*
X0022653Y0221039D01*
X0022800Y0220973D01*
X0022945Y0220904D01*
X0023088Y0220831D01*
X0023230Y0220755D01*
X0023369Y0220675D01*
X0023507Y0220592D01*
X0023642Y0220505D01*
X0023776Y0220415D01*
X0023907Y0220322D01*
X0024035Y0220226D01*
X0024161Y0220126D01*
X0024285Y0220023D01*
X0024406Y0219918D01*
X0024525Y0219809D01*
X0024641Y0219698D01*
X0024754Y0219583D01*
X0024864Y0219466D01*
X0024971Y0219346D01*
X0025075Y0219224D01*
X0025176Y0219099D01*
X0025274Y0218971D01*
X0025369Y0218841D01*
X0025461Y0218709D01*
X0025549Y0218575D01*
X0025634Y0218438D01*
X0025716Y0218300D01*
X0025794Y0218159D01*
X0025868Y0218017D01*
X0025939Y0217873D01*
X0026007Y0217727D01*
X0026070Y0217579D01*
X0026131Y0217430D01*
X0026187Y0217279D01*
X0026240Y0217127D01*
X0026289Y0216974D01*
X0026334Y0216820D01*
X0026375Y0216665D01*
X0026413Y0216508D01*
X0026446Y0216351D01*
X0026476Y0216193D01*
X0026502Y0216034D01*
X0026523Y0215875D01*
X0026541Y0215715D01*
X0026555Y0215555D01*
X0026565Y0215394D01*
X0026571Y0215234D01*
X0026573Y0215073D01*
X0026571Y0214912D01*
X0026565Y0214752D01*
X0026555Y0214591D01*
X0026541Y0214431D01*
X0026523Y0214271D01*
X0026502Y0214112D01*
X0026476Y0213953D01*
X0026446Y0213795D01*
X0026413Y0213638D01*
X0026375Y0213481D01*
X0026334Y0213326D01*
X0026289Y0213172D01*
X0026240Y0213019D01*
X0026187Y0212867D01*
X0026131Y0212716D01*
X0026070Y0212567D01*
X0026007Y0212419D01*
X0025939Y0212273D01*
X0025868Y0212129D01*
X0025794Y0211987D01*
X0025716Y0211846D01*
X0025634Y0211708D01*
X0025549Y0211571D01*
X0025461Y0211437D01*
X0025369Y0211305D01*
X0025274Y0211175D01*
X0025176Y0211047D01*
X0025075Y0210922D01*
X0024971Y0210800D01*
X0024864Y0210680D01*
X0024754Y0210563D01*
X0024641Y0210448D01*
X0024525Y0210337D01*
X0024406Y0210228D01*
X0024285Y0210123D01*
X0024161Y0210020D01*
X0024035Y0209920D01*
X0023907Y0209824D01*
X0023776Y0209731D01*
X0023642Y0209641D01*
X0023507Y0209554D01*
X0023369Y0209471D01*
X0023230Y0209391D01*
X0023088Y0209315D01*
X0022945Y0209242D01*
X0022800Y0209173D01*
X0022653Y0209107D01*
X0022505Y0209045D01*
X0022355Y0208987D01*
X0022204Y0208932D01*
X0022051Y0208881D01*
X0021897Y0208834D01*
X0021742Y0208791D01*
X0021586Y0208752D01*
X0021430Y0208716D01*
X0021272Y0208685D01*
X0021114Y0208657D01*
X0020955Y0208633D01*
X0020795Y0208613D01*
X0020635Y0208597D01*
X0020475Y0208585D01*
X0020314Y0208577D01*
X0020153Y0208573D01*
X0019993Y0208573D01*
X0019832Y0208577D01*
X0019671Y0208585D01*
X0019511Y0208597D01*
X0019351Y0208613D01*
X0019191Y0208633D01*
X0019032Y0208657D01*
X0018874Y0208685D01*
X0018716Y0208716D01*
X0018560Y0208752D01*
X0018404Y0208791D01*
X0018249Y0208834D01*
X0018095Y0208881D01*
X0017942Y0208932D01*
X0017791Y0208987D01*
X0017641Y0209045D01*
X0017493Y0209107D01*
X0017346Y0209173D01*
X0017201Y0209242D01*
X0017058Y0209315D01*
X0016916Y0209391D01*
X0016777Y0209471D01*
X0016639Y0209554D01*
X0016504Y0209641D01*
X0016370Y0209731D01*
X0016239Y0209824D01*
X0016111Y0209920D01*
X0015985Y0210020D01*
X0015861Y0210123D01*
X0015740Y0210228D01*
X0015621Y0210337D01*
X0015505Y0210448D01*
X0015392Y0210563D01*
X0015282Y0210680D01*
X0015175Y0210800D01*
X0015071Y0210922D01*
X0014970Y0211047D01*
X0014872Y0211175D01*
X0014777Y0211305D01*
X0014685Y0211437D01*
X0014597Y0211571D01*
X0014512Y0211708D01*
X0014430Y0211846D01*
X0014352Y0211987D01*
X0014278Y0212129D01*
X0014207Y0212273D01*
X0014139Y0212419D01*
X0014076Y0212567D01*
X0014015Y0212716D01*
X0013959Y0212867D01*
X0013906Y0213019D01*
X0013857Y0213172D01*
X0013812Y0213326D01*
X0013771Y0213481D01*
X0013733Y0213638D01*
X0013700Y0213795D01*
X0013670Y0213953D01*
X0013644Y0214112D01*
X0013623Y0214271D01*
X0013605Y0214431D01*
X0013591Y0214591D01*
X0013581Y0214752D01*
X0013575Y0214912D01*
X0013573Y0215073D01*
X0283573Y0215073D02*
X0283575Y0215234D01*
X0283581Y0215394D01*
X0283591Y0215555D01*
X0283605Y0215715D01*
X0283623Y0215875D01*
X0283644Y0216034D01*
X0283670Y0216193D01*
X0283700Y0216351D01*
X0283733Y0216508D01*
X0283771Y0216665D01*
X0283812Y0216820D01*
X0283857Y0216974D01*
X0283906Y0217127D01*
X0283959Y0217279D01*
X0284015Y0217430D01*
X0284076Y0217579D01*
X0284139Y0217727D01*
X0284207Y0217873D01*
X0284278Y0218017D01*
X0284352Y0218159D01*
X0284430Y0218300D01*
X0284512Y0218438D01*
X0284597Y0218575D01*
X0284685Y0218709D01*
X0284777Y0218841D01*
X0284872Y0218971D01*
X0284970Y0219099D01*
X0285071Y0219224D01*
X0285175Y0219346D01*
X0285282Y0219466D01*
X0285392Y0219583D01*
X0285505Y0219698D01*
X0285621Y0219809D01*
X0285740Y0219918D01*
X0285861Y0220023D01*
X0285985Y0220126D01*
X0286111Y0220226D01*
X0286239Y0220322D01*
X0286370Y0220415D01*
X0286504Y0220505D01*
X0286639Y0220592D01*
X0286777Y0220675D01*
X0286916Y0220755D01*
X0287058Y0220831D01*
X0287201Y0220904D01*
X0287346Y0220973D01*
X0287493Y0221039D01*
X0287641Y0221101D01*
X0287791Y0221159D01*
X0287942Y0221214D01*
X0288095Y0221265D01*
X0288249Y0221312D01*
X0288404Y0221355D01*
X0288560Y0221394D01*
X0288716Y0221430D01*
X0288874Y0221461D01*
X0289032Y0221489D01*
X0289191Y0221513D01*
X0289351Y0221533D01*
X0289511Y0221549D01*
X0289671Y0221561D01*
X0289832Y0221569D01*
X0289993Y0221573D01*
X0290153Y0221573D01*
X0290314Y0221569D01*
X0290475Y0221561D01*
X0290635Y0221549D01*
X0290795Y0221533D01*
X0290955Y0221513D01*
X0291114Y0221489D01*
X0291272Y0221461D01*
X0291430Y0221430D01*
X0291586Y0221394D01*
X0291742Y0221355D01*
X0291897Y0221312D01*
X0292051Y0221265D01*
X0292204Y0221214D01*
X0292355Y0221159D01*
X0292505Y0221101D01*
X0292653Y0221039D01*
X0292800Y0220973D01*
X0292945Y0220904D01*
X0293088Y0220831D01*
X0293230Y0220755D01*
X0293369Y0220675D01*
X0293507Y0220592D01*
X0293642Y0220505D01*
X0293776Y0220415D01*
X0293907Y0220322D01*
X0294035Y0220226D01*
X0294161Y0220126D01*
X0294285Y0220023D01*
X0294406Y0219918D01*
X0294525Y0219809D01*
X0294641Y0219698D01*
X0294754Y0219583D01*
X0294864Y0219466D01*
X0294971Y0219346D01*
X0295075Y0219224D01*
X0295176Y0219099D01*
X0295274Y0218971D01*
X0295369Y0218841D01*
X0295461Y0218709D01*
X0295549Y0218575D01*
X0295634Y0218438D01*
X0295716Y0218300D01*
X0295794Y0218159D01*
X0295868Y0218017D01*
X0295939Y0217873D01*
X0296007Y0217727D01*
X0296070Y0217579D01*
X0296131Y0217430D01*
X0296187Y0217279D01*
X0296240Y0217127D01*
X0296289Y0216974D01*
X0296334Y0216820D01*
X0296375Y0216665D01*
X0296413Y0216508D01*
X0296446Y0216351D01*
X0296476Y0216193D01*
X0296502Y0216034D01*
X0296523Y0215875D01*
X0296541Y0215715D01*
X0296555Y0215555D01*
X0296565Y0215394D01*
X0296571Y0215234D01*
X0296573Y0215073D01*
X0296571Y0214912D01*
X0296565Y0214752D01*
X0296555Y0214591D01*
X0296541Y0214431D01*
X0296523Y0214271D01*
X0296502Y0214112D01*
X0296476Y0213953D01*
X0296446Y0213795D01*
X0296413Y0213638D01*
X0296375Y0213481D01*
X0296334Y0213326D01*
X0296289Y0213172D01*
X0296240Y0213019D01*
X0296187Y0212867D01*
X0296131Y0212716D01*
X0296070Y0212567D01*
X0296007Y0212419D01*
X0295939Y0212273D01*
X0295868Y0212129D01*
X0295794Y0211987D01*
X0295716Y0211846D01*
X0295634Y0211708D01*
X0295549Y0211571D01*
X0295461Y0211437D01*
X0295369Y0211305D01*
X0295274Y0211175D01*
X0295176Y0211047D01*
X0295075Y0210922D01*
X0294971Y0210800D01*
X0294864Y0210680D01*
X0294754Y0210563D01*
X0294641Y0210448D01*
X0294525Y0210337D01*
X0294406Y0210228D01*
X0294285Y0210123D01*
X0294161Y0210020D01*
X0294035Y0209920D01*
X0293907Y0209824D01*
X0293776Y0209731D01*
X0293642Y0209641D01*
X0293507Y0209554D01*
X0293369Y0209471D01*
X0293230Y0209391D01*
X0293088Y0209315D01*
X0292945Y0209242D01*
X0292800Y0209173D01*
X0292653Y0209107D01*
X0292505Y0209045D01*
X0292355Y0208987D01*
X0292204Y0208932D01*
X0292051Y0208881D01*
X0291897Y0208834D01*
X0291742Y0208791D01*
X0291586Y0208752D01*
X0291430Y0208716D01*
X0291272Y0208685D01*
X0291114Y0208657D01*
X0290955Y0208633D01*
X0290795Y0208613D01*
X0290635Y0208597D01*
X0290475Y0208585D01*
X0290314Y0208577D01*
X0290153Y0208573D01*
X0289993Y0208573D01*
X0289832Y0208577D01*
X0289671Y0208585D01*
X0289511Y0208597D01*
X0289351Y0208613D01*
X0289191Y0208633D01*
X0289032Y0208657D01*
X0288874Y0208685D01*
X0288716Y0208716D01*
X0288560Y0208752D01*
X0288404Y0208791D01*
X0288249Y0208834D01*
X0288095Y0208881D01*
X0287942Y0208932D01*
X0287791Y0208987D01*
X0287641Y0209045D01*
X0287493Y0209107D01*
X0287346Y0209173D01*
X0287201Y0209242D01*
X0287058Y0209315D01*
X0286916Y0209391D01*
X0286777Y0209471D01*
X0286639Y0209554D01*
X0286504Y0209641D01*
X0286370Y0209731D01*
X0286239Y0209824D01*
X0286111Y0209920D01*
X0285985Y0210020D01*
X0285861Y0210123D01*
X0285740Y0210228D01*
X0285621Y0210337D01*
X0285505Y0210448D01*
X0285392Y0210563D01*
X0285282Y0210680D01*
X0285175Y0210800D01*
X0285071Y0210922D01*
X0284970Y0211047D01*
X0284872Y0211175D01*
X0284777Y0211305D01*
X0284685Y0211437D01*
X0284597Y0211571D01*
X0284512Y0211708D01*
X0284430Y0211846D01*
X0284352Y0211987D01*
X0284278Y0212129D01*
X0284207Y0212273D01*
X0284139Y0212419D01*
X0284076Y0212567D01*
X0284015Y0212716D01*
X0283959Y0212867D01*
X0283906Y0213019D01*
X0283857Y0213172D01*
X0283812Y0213326D01*
X0283771Y0213481D01*
X0283733Y0213638D01*
X0283700Y0213795D01*
X0283670Y0213953D01*
X0283644Y0214112D01*
X0283623Y0214271D01*
X0283605Y0214431D01*
X0283591Y0214591D01*
X0283581Y0214752D01*
X0283575Y0214912D01*
X0283573Y0215073D01*
X0283573Y0020073D02*
X0283575Y0020234D01*
X0283581Y0020394D01*
X0283591Y0020555D01*
X0283605Y0020715D01*
X0283623Y0020875D01*
X0283644Y0021034D01*
X0283670Y0021193D01*
X0283700Y0021351D01*
X0283733Y0021508D01*
X0283771Y0021665D01*
X0283812Y0021820D01*
X0283857Y0021974D01*
X0283906Y0022127D01*
X0283959Y0022279D01*
X0284015Y0022430D01*
X0284076Y0022579D01*
X0284139Y0022727D01*
X0284207Y0022873D01*
X0284278Y0023017D01*
X0284352Y0023159D01*
X0284430Y0023300D01*
X0284512Y0023438D01*
X0284597Y0023575D01*
X0284685Y0023709D01*
X0284777Y0023841D01*
X0284872Y0023971D01*
X0284970Y0024099D01*
X0285071Y0024224D01*
X0285175Y0024346D01*
X0285282Y0024466D01*
X0285392Y0024583D01*
X0285505Y0024698D01*
X0285621Y0024809D01*
X0285740Y0024918D01*
X0285861Y0025023D01*
X0285985Y0025126D01*
X0286111Y0025226D01*
X0286239Y0025322D01*
X0286370Y0025415D01*
X0286504Y0025505D01*
X0286639Y0025592D01*
X0286777Y0025675D01*
X0286916Y0025755D01*
X0287058Y0025831D01*
X0287201Y0025904D01*
X0287346Y0025973D01*
X0287493Y0026039D01*
X0287641Y0026101D01*
X0287791Y0026159D01*
X0287942Y0026214D01*
X0288095Y0026265D01*
X0288249Y0026312D01*
X0288404Y0026355D01*
X0288560Y0026394D01*
X0288716Y0026430D01*
X0288874Y0026461D01*
X0289032Y0026489D01*
X0289191Y0026513D01*
X0289351Y0026533D01*
X0289511Y0026549D01*
X0289671Y0026561D01*
X0289832Y0026569D01*
X0289993Y0026573D01*
X0290153Y0026573D01*
X0290314Y0026569D01*
X0290475Y0026561D01*
X0290635Y0026549D01*
X0290795Y0026533D01*
X0290955Y0026513D01*
X0291114Y0026489D01*
X0291272Y0026461D01*
X0291430Y0026430D01*
X0291586Y0026394D01*
X0291742Y0026355D01*
X0291897Y0026312D01*
X0292051Y0026265D01*
X0292204Y0026214D01*
X0292355Y0026159D01*
X0292505Y0026101D01*
X0292653Y0026039D01*
X0292800Y0025973D01*
X0292945Y0025904D01*
X0293088Y0025831D01*
X0293230Y0025755D01*
X0293369Y0025675D01*
X0293507Y0025592D01*
X0293642Y0025505D01*
X0293776Y0025415D01*
X0293907Y0025322D01*
X0294035Y0025226D01*
X0294161Y0025126D01*
X0294285Y0025023D01*
X0294406Y0024918D01*
X0294525Y0024809D01*
X0294641Y0024698D01*
X0294754Y0024583D01*
X0294864Y0024466D01*
X0294971Y0024346D01*
X0295075Y0024224D01*
X0295176Y0024099D01*
X0295274Y0023971D01*
X0295369Y0023841D01*
X0295461Y0023709D01*
X0295549Y0023575D01*
X0295634Y0023438D01*
X0295716Y0023300D01*
X0295794Y0023159D01*
X0295868Y0023017D01*
X0295939Y0022873D01*
X0296007Y0022727D01*
X0296070Y0022579D01*
X0296131Y0022430D01*
X0296187Y0022279D01*
X0296240Y0022127D01*
X0296289Y0021974D01*
X0296334Y0021820D01*
X0296375Y0021665D01*
X0296413Y0021508D01*
X0296446Y0021351D01*
X0296476Y0021193D01*
X0296502Y0021034D01*
X0296523Y0020875D01*
X0296541Y0020715D01*
X0296555Y0020555D01*
X0296565Y0020394D01*
X0296571Y0020234D01*
X0296573Y0020073D01*
X0296571Y0019912D01*
X0296565Y0019752D01*
X0296555Y0019591D01*
X0296541Y0019431D01*
X0296523Y0019271D01*
X0296502Y0019112D01*
X0296476Y0018953D01*
X0296446Y0018795D01*
X0296413Y0018638D01*
X0296375Y0018481D01*
X0296334Y0018326D01*
X0296289Y0018172D01*
X0296240Y0018019D01*
X0296187Y0017867D01*
X0296131Y0017716D01*
X0296070Y0017567D01*
X0296007Y0017419D01*
X0295939Y0017273D01*
X0295868Y0017129D01*
X0295794Y0016987D01*
X0295716Y0016846D01*
X0295634Y0016708D01*
X0295549Y0016571D01*
X0295461Y0016437D01*
X0295369Y0016305D01*
X0295274Y0016175D01*
X0295176Y0016047D01*
X0295075Y0015922D01*
X0294971Y0015800D01*
X0294864Y0015680D01*
X0294754Y0015563D01*
X0294641Y0015448D01*
X0294525Y0015337D01*
X0294406Y0015228D01*
X0294285Y0015123D01*
X0294161Y0015020D01*
X0294035Y0014920D01*
X0293907Y0014824D01*
X0293776Y0014731D01*
X0293642Y0014641D01*
X0293507Y0014554D01*
X0293369Y0014471D01*
X0293230Y0014391D01*
X0293088Y0014315D01*
X0292945Y0014242D01*
X0292800Y0014173D01*
X0292653Y0014107D01*
X0292505Y0014045D01*
X0292355Y0013987D01*
X0292204Y0013932D01*
X0292051Y0013881D01*
X0291897Y0013834D01*
X0291742Y0013791D01*
X0291586Y0013752D01*
X0291430Y0013716D01*
X0291272Y0013685D01*
X0291114Y0013657D01*
X0290955Y0013633D01*
X0290795Y0013613D01*
X0290635Y0013597D01*
X0290475Y0013585D01*
X0290314Y0013577D01*
X0290153Y0013573D01*
X0289993Y0013573D01*
X0289832Y0013577D01*
X0289671Y0013585D01*
X0289511Y0013597D01*
X0289351Y0013613D01*
X0289191Y0013633D01*
X0289032Y0013657D01*
X0288874Y0013685D01*
X0288716Y0013716D01*
X0288560Y0013752D01*
X0288404Y0013791D01*
X0288249Y0013834D01*
X0288095Y0013881D01*
X0287942Y0013932D01*
X0287791Y0013987D01*
X0287641Y0014045D01*
X0287493Y0014107D01*
X0287346Y0014173D01*
X0287201Y0014242D01*
X0287058Y0014315D01*
X0286916Y0014391D01*
X0286777Y0014471D01*
X0286639Y0014554D01*
X0286504Y0014641D01*
X0286370Y0014731D01*
X0286239Y0014824D01*
X0286111Y0014920D01*
X0285985Y0015020D01*
X0285861Y0015123D01*
X0285740Y0015228D01*
X0285621Y0015337D01*
X0285505Y0015448D01*
X0285392Y0015563D01*
X0285282Y0015680D01*
X0285175Y0015800D01*
X0285071Y0015922D01*
X0284970Y0016047D01*
X0284872Y0016175D01*
X0284777Y0016305D01*
X0284685Y0016437D01*
X0284597Y0016571D01*
X0284512Y0016708D01*
X0284430Y0016846D01*
X0284352Y0016987D01*
X0284278Y0017129D01*
X0284207Y0017273D01*
X0284139Y0017419D01*
X0284076Y0017567D01*
X0284015Y0017716D01*
X0283959Y0017867D01*
X0283906Y0018019D01*
X0283857Y0018172D01*
X0283812Y0018326D01*
X0283771Y0018481D01*
X0283733Y0018638D01*
X0283700Y0018795D01*
X0283670Y0018953D01*
X0283644Y0019112D01*
X0283623Y0019271D01*
X0283605Y0019431D01*
X0283591Y0019591D01*
X0283581Y0019752D01*
X0283575Y0019912D01*
X0283573Y0020073D01*
D11*
X0274573Y0019781D02*
X0265566Y0019781D01*
X0268568Y0021282D02*
X0268568Y0024285D01*
X0270069Y0025786D01*
X0274573Y0025786D01*
X0274573Y0028989D02*
X0268568Y0028989D01*
X0268568Y0031992D02*
X0268568Y0033493D01*
X0268568Y0031992D02*
X0271571Y0028989D01*
X0270069Y0036662D02*
X0273072Y0036662D01*
X0274573Y0038163D01*
X0274573Y0041166D01*
X0273072Y0042667D01*
X0270069Y0042667D01*
X0268568Y0041166D01*
X0268568Y0038163D01*
X0270069Y0036662D01*
X0268568Y0045870D02*
X0268568Y0047371D01*
X0270069Y0048873D01*
X0268568Y0050374D01*
X0270069Y0051875D01*
X0274573Y0051875D01*
X0274573Y0048873D02*
X0270069Y0048873D01*
X0268568Y0045870D02*
X0274573Y0045870D01*
X0273072Y0055078D02*
X0271571Y0056579D01*
X0271571Y0061083D01*
X0270069Y0061083D02*
X0274573Y0061083D01*
X0274573Y0056579D01*
X0273072Y0055078D01*
X0268568Y0056579D02*
X0268568Y0059582D01*
X0270069Y0061083D01*
X0250073Y0055073D02*
X0250073Y0095073D01*
X0250073Y0095573D01*
X0257573Y0103073D01*
X0272947Y0103073D01*
X0272947Y0103577D01*
X0272947Y0097199D01*
X0285073Y0085073D01*
X0284758Y0085073D01*
X0250073Y0095073D02*
X0240073Y0095073D01*
X0230073Y0095073D02*
X0230073Y0090073D01*
X0240073Y0080073D01*
X0235585Y0070073D02*
X0215585Y0090073D01*
X0185073Y0090073D01*
X0185073Y0095073D02*
X0165073Y0095073D01*
X0165073Y0105073D02*
X0179573Y0119573D01*
X0198073Y0119573D01*
X0203073Y0124573D01*
X0267573Y0124573D01*
X0283073Y0140073D01*
X0290073Y0140073D01*
X0290073Y0150073D02*
X0275073Y0135073D01*
X0250073Y0135073D01*
X0257573Y0152573D02*
X0270073Y0140073D01*
X0280073Y0130073D02*
X0280073Y0129573D01*
X0272573Y0122073D01*
X0227073Y0122073D01*
X0205073Y0100073D01*
X0190073Y0100073D01*
X0185073Y0095073D01*
X0180073Y0100073D02*
X0180073Y0105073D01*
X0185073Y0110073D01*
X0200073Y0110073D01*
X0205073Y0115073D01*
X0205073Y0120073D01*
X0205073Y0130073D02*
X0190073Y0130073D01*
X0185073Y0135073D01*
X0185073Y0150073D01*
X0180073Y0155073D02*
X0170073Y0145073D01*
X0165073Y0145073D01*
X0170073Y0140073D02*
X0175073Y0135073D01*
X0175073Y0125073D01*
X0165073Y0125073D02*
X0155073Y0115073D01*
X0152357Y0115073D01*
X0152357Y0095802D01*
X0152573Y0095585D01*
X0138073Y0095585D02*
X0137790Y0095869D01*
X0137790Y0115073D01*
X0137790Y0122790D01*
X0150073Y0135073D01*
X0165073Y0135073D01*
X0170073Y0140073D02*
X0156573Y0140073D01*
X0145073Y0155073D02*
X0165073Y0175073D01*
X0169561Y0179561D02*
X0195073Y0205073D01*
X0200073Y0200073D02*
X0195073Y0195073D01*
X0200073Y0200073D02*
X0240073Y0200073D01*
X0245073Y0195073D01*
X0250073Y0195073D01*
X0240073Y0190073D02*
X0260073Y0190073D01*
X0265073Y0185073D01*
X0257073Y0179573D02*
X0257073Y0163073D01*
X0265073Y0155073D01*
X0257573Y0157573D02*
X0257573Y0152573D01*
X0257573Y0157573D02*
X0250073Y0165073D01*
X0250073Y0175073D01*
X0220073Y0175073D01*
X0220073Y0165073D01*
X0210073Y0155073D01*
X0195073Y0155073D01*
X0180073Y0155073D01*
X0195073Y0165073D02*
X0205073Y0165073D01*
X0210073Y0170073D01*
X0210073Y0185073D01*
X0220073Y0195073D01*
X0220073Y0185073D02*
X0235073Y0185073D01*
X0240073Y0190073D01*
X0250073Y0185073D02*
X0251573Y0185073D01*
X0257073Y0179573D01*
X0280073Y0190073D02*
X0280073Y0160073D01*
X0290073Y0150073D01*
X0290073Y0170073D02*
X0297573Y0177573D01*
X0297573Y0193073D01*
X0293573Y0197073D01*
X0286573Y0197073D01*
X0263573Y0220073D01*
X0190073Y0220073D01*
X0175073Y0205073D01*
X0165073Y0205073D01*
X0161573Y0205073D01*
X0156573Y0210073D01*
X0148573Y0214585D02*
X0148561Y0214573D01*
X0132573Y0214573D01*
X0132573Y0217573D01*
X0130073Y0220073D01*
X0045073Y0220073D01*
X0038073Y0213073D01*
X0038073Y0212585D01*
X0039561Y0201561D02*
X0049573Y0211573D01*
X0039561Y0201561D02*
X0038073Y0201561D01*
X0050073Y0190073D02*
X0050585Y0190585D01*
X0070073Y0190585D01*
X0070085Y0179561D02*
X0083573Y0166073D01*
X0123573Y0166073D01*
X0123073Y0166573D01*
X0130073Y0160073D02*
X0105073Y0160073D01*
X0095585Y0160073D02*
X0110073Y0145585D01*
X0110073Y0100073D01*
X0100073Y0105073D02*
X0100073Y0085073D01*
X0105073Y0080073D01*
X0105073Y0045073D01*
X0100073Y0040073D02*
X0095073Y0045073D01*
X0095073Y0059561D01*
X0095073Y0065073D01*
X0090073Y0070073D01*
X0088073Y0070073D01*
X0087199Y0070947D01*
X0087199Y0120073D01*
X0084561Y0122711D01*
X0084561Y0160073D01*
X0080073Y0160073D01*
X0070073Y0170073D01*
X0050073Y0170073D01*
X0070073Y0179561D02*
X0070085Y0179561D01*
X0085073Y0180546D02*
X0085073Y0190546D01*
X0148534Y0190546D01*
X0148573Y0190585D01*
X0149085Y0190073D01*
X0150073Y0190073D01*
X0155073Y0185073D01*
X0148573Y0190585D02*
X0148573Y0203561D01*
X0148573Y0214585D02*
X0164585Y0214585D01*
X0165073Y0215073D01*
X0195073Y0215073D02*
X0265073Y0215073D01*
X0290073Y0190073D01*
X0280073Y0190073D02*
X0265073Y0205073D01*
X0250073Y0205073D01*
X0220073Y0205073D01*
X0206573Y0175073D02*
X0195073Y0175073D01*
X0169561Y0179561D02*
X0148573Y0179561D01*
X0148573Y0178573D01*
X0130073Y0160073D01*
X0110073Y0170073D02*
X0106561Y0173585D01*
X0107061Y0179573D01*
X0095101Y0179573D01*
X0086046Y0179573D02*
X0085073Y0180546D01*
X0100073Y0195073D02*
X0089573Y0205573D01*
X0089573Y0211573D01*
X0099573Y0211573D01*
X0085073Y0200073D02*
X0080073Y0205073D01*
X0080073Y0211073D01*
X0079573Y0211573D01*
X0085073Y0200073D02*
X0085073Y0199601D01*
X0112573Y0186573D02*
X0117585Y0181561D01*
X0118085Y0179573D01*
X0122573Y0194573D02*
X0127573Y0194573D01*
X0132573Y0199573D01*
X0165073Y0165073D02*
X0130585Y0130585D01*
X0130585Y0070073D01*
X0119561Y0070073D02*
X0119561Y0050585D01*
X0120073Y0050073D01*
X0135073Y0040073D02*
X0100073Y0040073D01*
X0095073Y0030073D02*
X0085073Y0040073D01*
X0085073Y0059561D01*
X0084561Y0060073D01*
X0095073Y0059561D02*
X0095585Y0060073D01*
X0088073Y0070073D02*
X0075073Y0070073D01*
X0050073Y0070073D01*
X0070073Y0079561D02*
X0070085Y0079573D01*
X0080073Y0079573D01*
X0091073Y0084073D02*
X0100073Y0075073D01*
X0075073Y0070073D02*
X0075073Y0045073D01*
X0080073Y0040073D01*
X0080073Y0020073D01*
X0075073Y0015073D01*
X0065073Y0015073D01*
X0060073Y0022873D01*
X0069173Y0022873D02*
X0072873Y0022873D01*
X0075073Y0025073D01*
X0095073Y0030073D02*
X0110073Y0030073D01*
X0123573Y0016573D01*
X0126073Y0016573D01*
X0135073Y0040073D02*
X0140073Y0045073D01*
X0140073Y0050073D01*
X0150073Y0040073D01*
X0190073Y0040073D01*
X0195073Y0045073D01*
X0200073Y0040073D01*
X0235073Y0040073D01*
X0245073Y0050073D01*
X0250073Y0055073D01*
X0225073Y0050073D02*
X0224561Y0050585D01*
X0224561Y0070073D01*
X0195073Y0050073D02*
X0195073Y0045073D01*
X0175073Y0050073D02*
X0174561Y0050585D01*
X0174561Y0070073D01*
X0175073Y0080585D02*
X0185585Y0070073D01*
X0175073Y0080585D02*
X0175073Y0085073D01*
X0152573Y0084561D02*
X0138073Y0084561D01*
X0138073Y0052073D01*
X0140073Y0050073D01*
X0070073Y0090585D02*
X0050585Y0090585D01*
X0050073Y0090073D01*
X0050073Y0120073D02*
X0087199Y0120073D01*
X0085073Y0120073D01*
X0080073Y0125073D02*
X0074561Y0125073D01*
X0070073Y0129561D01*
X0070073Y0140585D02*
X0050585Y0140585D01*
X0050073Y0140073D01*
X0265566Y0015077D02*
X0265566Y0012075D01*
X0267067Y0010573D01*
X0273072Y0010573D01*
X0274573Y0012075D01*
X0274573Y0015077D01*
X0273072Y0016578D01*
X0270069Y0019781D02*
X0268568Y0021282D01*
X0267067Y0016578D02*
X0265566Y0015077D01*
D12*
X0290073Y0120073D03*
X0290073Y0130073D03*
X0290073Y0140073D03*
X0290073Y0150073D03*
X0290073Y0160073D03*
X0290073Y0170073D03*
X0290073Y0180073D03*
X0290073Y0190073D03*
X0265073Y0175073D03*
X0265073Y0165073D03*
X0265073Y0155073D03*
X0120073Y0100073D03*
X0110073Y0100073D03*
X0102947Y0120073D03*
X0087199Y0120073D03*
X0089573Y0211573D03*
X0079573Y0211573D03*
X0069573Y0211573D03*
X0059573Y0211573D03*
X0049573Y0211573D03*
X0099573Y0211573D03*
D13*
X0070073Y0190585D03*
X0070073Y0179561D03*
X0038073Y0201561D03*
X0038073Y0212585D03*
X0070073Y0140585D03*
X0070073Y0129561D03*
X0070073Y0090585D03*
X0070073Y0079561D03*
X0138073Y0084561D03*
X0152573Y0084561D03*
X0152573Y0095585D03*
X0138073Y0095585D03*
X0148573Y0179561D03*
X0148573Y0190585D03*
X0148573Y0203561D03*
X0148573Y0214585D03*
D14*
X0118085Y0179573D03*
X0107061Y0179573D03*
X0095585Y0160073D03*
X0084561Y0160073D03*
X0119561Y0070073D03*
X0130585Y0070073D03*
X0095585Y0060073D03*
X0084561Y0060073D03*
X0174561Y0070073D03*
X0185585Y0070073D03*
X0224561Y0070073D03*
X0235585Y0070073D03*
D15*
X0085073Y0190546D03*
X0085073Y0199601D03*
D16*
X0086046Y0179573D03*
X0095101Y0179573D03*
D17*
X0016073Y0144073D03*
X0015573Y0193573D03*
X0016073Y0085573D03*
X0126073Y0016573D03*
X0180073Y0015573D03*
X0230073Y0016073D03*
D18*
X0243853Y0016073D03*
X0193853Y0015573D03*
X0139853Y0016573D03*
X0016073Y0071794D03*
X0016073Y0130294D03*
X0015573Y0179794D03*
D19*
X0261136Y0085073D03*
X0284758Y0085073D03*
X0272947Y0103577D03*
D20*
X0265073Y0185073D03*
D21*
X0252673Y0185073D02*
X0247473Y0185073D01*
X0247473Y0195073D02*
X0252673Y0195073D01*
X0252673Y0205073D02*
X0247473Y0205073D01*
X0222673Y0205073D02*
X0217473Y0205073D01*
X0217473Y0195073D02*
X0222673Y0195073D01*
X0222673Y0185073D02*
X0217473Y0185073D01*
X0217473Y0175073D02*
X0222673Y0175073D01*
X0222673Y0165073D02*
X0217473Y0165073D01*
X0217473Y0155073D02*
X0222673Y0155073D01*
X0222673Y0145073D02*
X0217473Y0145073D01*
X0217473Y0135073D02*
X0222673Y0135073D01*
X0247473Y0135073D02*
X0252673Y0135073D01*
X0252673Y0145073D02*
X0247473Y0145073D01*
X0247473Y0155073D02*
X0252673Y0155073D01*
X0252673Y0165073D02*
X0247473Y0165073D01*
X0247473Y0175073D02*
X0252673Y0175073D01*
X0197673Y0175073D02*
X0192473Y0175073D01*
X0192473Y0165073D02*
X0197673Y0165073D01*
X0197673Y0155073D02*
X0192473Y0155073D01*
X0192473Y0145073D02*
X0197673Y0145073D01*
X0197673Y0135073D02*
X0192473Y0135073D01*
X0192473Y0125073D02*
X0197673Y0125073D01*
X0197673Y0115073D02*
X0192473Y0115073D01*
X0192473Y0105073D02*
X0197673Y0105073D01*
X0197673Y0095073D02*
X0192473Y0095073D01*
X0192473Y0085073D02*
X0197673Y0085073D01*
X0167673Y0085073D02*
X0162473Y0085073D01*
X0162473Y0095073D02*
X0167673Y0095073D01*
X0167673Y0105073D02*
X0162473Y0105073D01*
X0162473Y0115073D02*
X0167673Y0115073D01*
X0167673Y0125073D02*
X0162473Y0125073D01*
X0162473Y0135073D02*
X0167673Y0135073D01*
X0167673Y0145073D02*
X0162473Y0145073D01*
X0162473Y0155073D02*
X0167673Y0155073D01*
X0167673Y0165073D02*
X0162473Y0165073D01*
X0162473Y0175073D02*
X0167673Y0175073D01*
X0167673Y0185073D02*
X0162473Y0185073D01*
X0162473Y0195073D02*
X0167673Y0195073D01*
X0167673Y0205073D02*
X0162473Y0205073D01*
X0162473Y0215073D02*
X0167673Y0215073D01*
X0192473Y0215073D02*
X0197673Y0215073D01*
X0197673Y0205073D02*
X0192473Y0205073D01*
X0192473Y0195073D02*
X0197673Y0195073D01*
X0197673Y0185073D02*
X0192473Y0185073D01*
D22*
X0053073Y0180073D02*
X0047073Y0180073D01*
X0047073Y0170073D02*
X0053073Y0170073D01*
X0053073Y0190073D02*
X0047073Y0190073D01*
X0047073Y0140073D02*
X0053073Y0140073D01*
X0053073Y0130073D02*
X0047073Y0130073D01*
X0047073Y0120073D02*
X0053073Y0120073D01*
X0053073Y0090073D02*
X0047073Y0090073D01*
X0047073Y0080073D02*
X0053073Y0080073D01*
X0053073Y0070073D02*
X0047073Y0070073D01*
X0120073Y0053073D02*
X0120073Y0047073D01*
X0130073Y0047073D02*
X0130073Y0053073D01*
X0140073Y0053073D02*
X0140073Y0047073D01*
X0175073Y0047073D02*
X0175073Y0053073D01*
X0185073Y0053073D02*
X0185073Y0047073D01*
X0195073Y0047073D02*
X0195073Y0053073D01*
X0225073Y0053073D02*
X0225073Y0047073D01*
X0235073Y0047073D02*
X0235073Y0053073D01*
X0245073Y0053073D02*
X0245073Y0047073D01*
D23*
X0132573Y0199573D03*
X0132573Y0214573D03*
X0110573Y0214573D03*
X0110573Y0199573D03*
D24*
X0230073Y0115073D03*
X0230073Y0105073D03*
X0230073Y0095073D03*
X0240073Y0095073D03*
X0240073Y0105073D03*
X0240073Y0115073D03*
D25*
X0069173Y0022873D03*
X0060073Y0022873D03*
X0050973Y0022873D03*
D26*
X0060073Y0047274D03*
D27*
X0137790Y0115073D03*
X0152357Y0115073D03*
D28*
X0175073Y0125073D03*
X0156573Y0140073D03*
X0145073Y0155073D03*
X0123573Y0166073D03*
X0110073Y0170073D03*
X0105073Y0160073D03*
X0112573Y0186573D03*
X0122573Y0194573D03*
X0100073Y0195073D03*
X0070073Y0170073D03*
X0080073Y0125073D03*
X0100073Y0105073D03*
X0091073Y0084073D03*
X0080073Y0079573D03*
X0100073Y0075073D03*
X0105073Y0045073D03*
X0075073Y0025073D03*
X0175073Y0085073D03*
X0185073Y0090073D03*
X0180073Y0100073D03*
X0205073Y0120073D03*
X0205073Y0130073D03*
X0185073Y0150073D03*
X0206573Y0175073D03*
X0155073Y0185073D03*
X0156573Y0210073D03*
X0045073Y0220073D03*
X0240073Y0080073D03*
X0261073Y0129073D03*
X0270073Y0140073D03*
X0280073Y0130073D03*
D29*
X0261073Y0129073D02*
X0260573Y0129573D01*
X0225573Y0129573D01*
X0220073Y0135073D01*
X0261136Y0085073D02*
X0261136Y0047136D01*
X0230073Y0016073D01*
X0229073Y0015073D01*
X0225073Y0015073D01*
X0205073Y0035073D01*
X0190073Y0035073D01*
X0185073Y0030073D01*
X0185073Y0020073D01*
X0180573Y0015573D01*
X0180073Y0015573D01*
X0169573Y0015573D01*
X0150073Y0035073D01*
X0135073Y0035073D01*
X0130073Y0030073D01*
X0130073Y0020573D01*
X0126073Y0016573D01*
X0086573Y0016573D01*
X0080073Y0010073D01*
X0060073Y0010073D01*
X0050073Y0020073D01*
X0050073Y0021973D01*
X0050973Y0022873D01*
X0047273Y0022873D01*
X0035073Y0035073D01*
X0035073Y0085573D01*
X0016073Y0085573D01*
X0035073Y0085573D02*
X0035073Y0145073D01*
X0035073Y0174073D01*
X0015573Y0193573D01*
X0016073Y0144073D02*
X0034073Y0144073D01*
X0035073Y0145073D01*
M02*
