G75*
%MOIN*%
%OFA0B0*%
%FSLAX25Y25*%
%IPPOS*%
%LPD*%
%AMOC8*
5,1,8,0,0,1.08239X$1,22.5*
%
%ADD10C,0.08200*%
%ADD11R,0.08800X0.08800*%
%ADD12C,0.08800*%
%ADD13C,0.17800*%
%ADD14R,0.08200X0.08200*%
%ADD15C,0.06000*%
%ADD16C,0.06800*%
%ADD17C,0.00500*%
%ADD18OC8,0.08200*%
%ADD19C,0.13800*%
%ADD20R,0.05156X0.05156*%
D10*
X0110073Y0100073D03*
X0120073Y0100073D03*
X0265073Y0155073D03*
X0265073Y0165073D03*
X0265073Y0175073D03*
X0290073Y0170073D03*
X0290073Y0160073D03*
X0290073Y0150073D03*
X0290073Y0140073D03*
X0290073Y0130073D03*
X0290073Y0120073D03*
X0290073Y0180073D03*
X0290073Y0190073D03*
X0099573Y0211573D03*
X0089573Y0211573D03*
X0079573Y0211573D03*
X0069573Y0211573D03*
X0059573Y0211573D03*
X0049573Y0211573D03*
D11*
X0015573Y0193573D03*
X0016073Y0144073D03*
X0016073Y0085573D03*
X0126073Y0016573D03*
X0180073Y0015573D03*
X0230073Y0016073D03*
D12*
X0243853Y0016073D03*
X0193853Y0015573D03*
X0139853Y0016573D03*
X0016073Y0071794D03*
X0016073Y0130294D03*
X0015573Y0179794D03*
D13*
X0261136Y0085073D03*
X0284758Y0085073D03*
X0272947Y0103577D03*
D14*
X0265073Y0185073D03*
D15*
X0252673Y0185073D02*
X0247473Y0185073D01*
X0247473Y0195073D02*
X0252673Y0195073D01*
X0252673Y0205073D02*
X0247473Y0205073D01*
X0222673Y0205073D02*
X0217473Y0205073D01*
X0217473Y0195073D02*
X0222673Y0195073D01*
X0222673Y0185073D02*
X0217473Y0185073D01*
X0217473Y0175073D02*
X0222673Y0175073D01*
X0222673Y0165073D02*
X0217473Y0165073D01*
X0217473Y0155073D02*
X0222673Y0155073D01*
X0222673Y0145073D02*
X0217473Y0145073D01*
X0217473Y0135073D02*
X0222673Y0135073D01*
X0247473Y0135073D02*
X0252673Y0135073D01*
X0252673Y0145073D02*
X0247473Y0145073D01*
X0247473Y0155073D02*
X0252673Y0155073D01*
X0252673Y0165073D02*
X0247473Y0165073D01*
X0247473Y0175073D02*
X0252673Y0175073D01*
X0197673Y0175073D02*
X0192473Y0175073D01*
X0192473Y0165073D02*
X0197673Y0165073D01*
X0197673Y0155073D02*
X0192473Y0155073D01*
X0192473Y0145073D02*
X0197673Y0145073D01*
X0197673Y0135073D02*
X0192473Y0135073D01*
X0192473Y0125073D02*
X0197673Y0125073D01*
X0197673Y0115073D02*
X0192473Y0115073D01*
X0192473Y0105073D02*
X0197673Y0105073D01*
X0197673Y0095073D02*
X0192473Y0095073D01*
X0192473Y0085073D02*
X0197673Y0085073D01*
X0167673Y0085073D02*
X0162473Y0085073D01*
X0162473Y0095073D02*
X0167673Y0095073D01*
X0167673Y0105073D02*
X0162473Y0105073D01*
X0162473Y0115073D02*
X0167673Y0115073D01*
X0167673Y0125073D02*
X0162473Y0125073D01*
X0162473Y0135073D02*
X0167673Y0135073D01*
X0167673Y0145073D02*
X0162473Y0145073D01*
X0162473Y0155073D02*
X0167673Y0155073D01*
X0167673Y0165073D02*
X0162473Y0165073D01*
X0162473Y0175073D02*
X0167673Y0175073D01*
X0167673Y0185073D02*
X0162473Y0185073D01*
X0162473Y0195073D02*
X0167673Y0195073D01*
X0167673Y0205073D02*
X0162473Y0205073D01*
X0162473Y0215073D02*
X0167673Y0215073D01*
X0192473Y0215073D02*
X0197673Y0215073D01*
X0197673Y0205073D02*
X0192473Y0205073D01*
X0192473Y0195073D02*
X0197673Y0195073D01*
X0197673Y0185073D02*
X0192473Y0185073D01*
D16*
X0053073Y0180073D02*
X0047073Y0180073D01*
X0047073Y0170073D02*
X0053073Y0170073D01*
X0053073Y0190073D02*
X0047073Y0190073D01*
X0047073Y0140073D02*
X0053073Y0140073D01*
X0053073Y0130073D02*
X0047073Y0130073D01*
X0047073Y0120073D02*
X0053073Y0120073D01*
X0053073Y0090073D02*
X0047073Y0090073D01*
X0047073Y0080073D02*
X0053073Y0080073D01*
X0053073Y0070073D02*
X0047073Y0070073D01*
X0120073Y0053073D02*
X0120073Y0047073D01*
X0130073Y0047073D02*
X0130073Y0053073D01*
X0140073Y0053073D02*
X0140073Y0047073D01*
X0175073Y0047073D02*
X0175073Y0053073D01*
X0185073Y0053073D02*
X0185073Y0047073D01*
X0195073Y0047073D02*
X0195073Y0053073D01*
X0225073Y0053073D02*
X0225073Y0047073D01*
X0235073Y0047073D02*
X0235073Y0053073D01*
X0245073Y0053073D02*
X0245073Y0047073D01*
D17*
X0106417Y0118564D02*
X0106069Y0117930D01*
X0105604Y0117375D01*
X0105040Y0116923D01*
X0104398Y0116589D01*
X0103704Y0116386D01*
X0102983Y0116323D01*
X0102258Y0116385D01*
X0101560Y0116587D01*
X0100914Y0116921D01*
X0100345Y0117375D01*
X0099876Y0117931D01*
X0099525Y0118568D01*
X0099305Y0119261D01*
X0099224Y0119983D01*
X0099273Y0120643D01*
X0099437Y0121284D01*
X0099709Y0121887D01*
X0100082Y0122433D01*
X0100544Y0122907D01*
X0101082Y0123293D01*
X0101678Y0123579D01*
X0102315Y0123758D01*
X0102973Y0123824D01*
X0103631Y0123756D01*
X0104268Y0123576D01*
X0104863Y0123288D01*
X0105400Y0122900D01*
X0105861Y0122426D01*
X0106232Y0121878D01*
X0106503Y0121275D01*
X0106665Y0120633D01*
X0106713Y0119973D01*
X0106635Y0119254D01*
X0106417Y0118564D01*
X0106471Y0118734D02*
X0099472Y0118734D01*
X0099314Y0119232D02*
X0106628Y0119232D01*
X0106687Y0119731D02*
X0099252Y0119731D01*
X0099242Y0120229D02*
X0106695Y0120229D01*
X0106641Y0120728D02*
X0099295Y0120728D01*
X0099422Y0121226D02*
X0106516Y0121226D01*
X0106301Y0121725D02*
X0099636Y0121725D01*
X0099939Y0122223D02*
X0105998Y0122223D01*
X0105573Y0122722D02*
X0100364Y0122722D01*
X0100981Y0123220D02*
X0104957Y0123220D01*
X0103764Y0123719D02*
X0102175Y0123719D01*
X0099708Y0118235D02*
X0106237Y0118235D01*
X0105908Y0117737D02*
X0100040Y0117737D01*
X0100516Y0117238D02*
X0105434Y0117238D01*
X0104689Y0116740D02*
X0101264Y0116740D01*
X0090835Y0119254D02*
X0090617Y0118564D01*
X0090269Y0117930D01*
X0089804Y0117375D01*
X0089240Y0116923D01*
X0088598Y0116589D01*
X0087904Y0116386D01*
X0087183Y0116323D01*
X0086458Y0116385D01*
X0085760Y0116587D01*
X0085114Y0116921D01*
X0084545Y0117375D01*
X0084076Y0117931D01*
X0083725Y0118568D01*
X0083505Y0119261D01*
X0083424Y0119983D01*
X0083473Y0120643D01*
X0083637Y0121284D01*
X0083909Y0121887D01*
X0084282Y0122433D01*
X0084744Y0122907D01*
X0085282Y0123293D01*
X0085878Y0123579D01*
X0086515Y0123758D01*
X0087173Y0123824D01*
X0087831Y0123756D01*
X0088468Y0123576D01*
X0089063Y0123288D01*
X0089600Y0122900D01*
X0090061Y0122426D01*
X0090432Y0121878D01*
X0090703Y0121275D01*
X0090865Y0120633D01*
X0090913Y0119973D01*
X0090835Y0119254D01*
X0090828Y0119232D02*
X0083514Y0119232D01*
X0083452Y0119731D02*
X0090887Y0119731D01*
X0090895Y0120229D02*
X0083442Y0120229D01*
X0083495Y0120728D02*
X0090841Y0120728D01*
X0090716Y0121226D02*
X0083622Y0121226D01*
X0083836Y0121725D02*
X0090501Y0121725D01*
X0090198Y0122223D02*
X0084139Y0122223D01*
X0084564Y0122722D02*
X0089773Y0122722D01*
X0089157Y0123220D02*
X0085181Y0123220D01*
X0086375Y0123719D02*
X0087964Y0123719D01*
X0090671Y0118734D02*
X0083672Y0118734D01*
X0083908Y0118235D02*
X0090437Y0118235D01*
X0090108Y0117737D02*
X0084240Y0117737D01*
X0084716Y0117238D02*
X0089634Y0117238D01*
X0088889Y0116740D02*
X0085464Y0116740D01*
D18*
X0230073Y0115073D03*
X0230073Y0105073D03*
X0230073Y0095073D03*
X0240073Y0095073D03*
X0240073Y0105073D03*
X0240073Y0115073D03*
D19*
X0020073Y0020073D03*
X0290073Y0020073D03*
X0290073Y0215073D03*
X0020073Y0215073D03*
D20*
X0045073Y0220073D03*
X0100073Y0195073D03*
X0112573Y0186573D03*
X0122573Y0194573D03*
X0155073Y0185073D03*
X0156573Y0210073D03*
X0206573Y0175073D03*
X0185073Y0150073D03*
X0205073Y0130073D03*
X0205073Y0120073D03*
X0180073Y0100073D03*
X0185073Y0090073D03*
X0175073Y0085073D03*
X0175073Y0125073D03*
X0156573Y0140073D03*
X0145073Y0155073D03*
X0123573Y0166073D03*
X0110073Y0170073D03*
X0105073Y0160073D03*
X0070073Y0170073D03*
X0080073Y0125073D03*
X0100073Y0105073D03*
X0091073Y0084073D03*
X0080073Y0079573D03*
X0100073Y0075073D03*
X0105073Y0045073D03*
X0075073Y0025073D03*
X0240073Y0080073D03*
X0261073Y0129073D03*
X0270073Y0140073D03*
X0280073Y0130073D03*
M02*
