G75*
%MOIN*%
%OFA0B0*%
%FSLAX25Y25*%
%IPPOS*%
%LPD*%
%AMOC8*
5,1,8,0,0,1.08239X$1,22.5*
%
%ADD10R,0.07087X0.06299*%
%ADD11R,0.06299X0.07087*%
%ADD12R,0.03268X0.02480*%
%ADD13R,0.02480X0.03268*%
%ADD14R,0.06000X0.03000*%
%ADD15R,0.04800X0.08800*%
%ADD16R,0.14173X0.08661*%
%ADD17R,0.06693X0.09449*%
D10*
X0070073Y0079561D03*
X0070073Y0090585D03*
X0070073Y0129561D03*
X0070073Y0140585D03*
X0070073Y0179561D03*
X0070073Y0190585D03*
X0038073Y0201561D03*
X0038073Y0212585D03*
X0148573Y0214585D03*
X0148573Y0203561D03*
X0148573Y0190585D03*
X0148573Y0179561D03*
X0152573Y0095585D03*
X0138073Y0095585D03*
X0138073Y0084561D03*
X0152573Y0084561D03*
D11*
X0130585Y0070073D03*
X0119561Y0070073D03*
X0095585Y0060073D03*
X0084561Y0060073D03*
X0174561Y0070073D03*
X0185585Y0070073D03*
X0224561Y0070073D03*
X0235585Y0070073D03*
X0095585Y0160073D03*
X0084561Y0160073D03*
X0107061Y0179573D03*
X0118085Y0179573D03*
D12*
X0085073Y0190546D03*
X0085073Y0199601D03*
D13*
X0086046Y0179573D03*
X0095101Y0179573D03*
D14*
X0110573Y0199573D03*
X0110573Y0214573D03*
X0132573Y0214573D03*
X0132573Y0199573D03*
D15*
X0050973Y0022873D03*
X0060073Y0022873D03*
X0069173Y0022873D03*
D16*
X0060073Y0047274D03*
D17*
X0137790Y0115073D03*
X0152357Y0115073D03*
M02*
